<svg xmlns="http://www.w3.org/2000/svg" xmlns:xlink="http://www.w3.org/1999/xlink" version="1.1" id="Layer_1" x="0px" y="0px" width="90px" height="90px" viewBox="0 0 90 90" enable-background="new 0 0 90 90" xml:space="preserve">
<ellipse transform="matrix(-0.8359 0.5489 -0.5489 -0.8359 114.2132 30.2543)" cx="52.583" cy="32.202" rx="7.063" ry="3.263"/>
<g>
	<path fill="none" d="M32.223,35.482c-3.899-3.884-14.33,0.073-13.232,9.431c0.428,3.649,2.56,0.583,3.509-0.439   c0,0,3.825-6.278,8.651-2.697c0,0,0.017-0.011,0.028-0.019c1.439-1.083,3.064-2.134,4.892-3.143   c0.095-0.056,0.18-0.104,0.246-0.139C36.316,38.478,34.686,37.936,32.223,35.482z"/>
	<path fill="none" d="M17.089,60.338c0,0,0.974,1.975,0.366,3.497c-0.727,1.814,2.046,6.811,2.559,5.862   c0.511-0.951,0.858-2.407,0.649-5.508c-0.156-2.312-0.119-2.887-0.112-2.956c0-0.005,0-0.01,0-0.015   C20.545,61.219,18.67,61.312,17.089,60.338z"/>
	<path fill="none" d="M69.944,22.067c-1.824-0.377-3.983,0.518-3.983,0.518s-2.01-2.784-8.628,3.65c0,0,3.496,0.901,1.401,4.691   c0,0,10.598-4.316,12.665-5.212c0.119-0.054,0.238-0.108,0.353-0.161c1.393-0.68,4.767-2.737,4.898-2.818   c0.002-0.002,0.005-0.003,0.008-0.005C75.652,23.368,73.755,22.859,69.944,22.067z"/>
	<path fill="none" d="M55.421,18.254c-1.925,0.451,0.974,1.169,3.333,1.754c2.358,0.584,4.613,2.681,6.806,0   C68.057,16.955,55.421,18.254,55.421,18.254z"/>
	<path d="M22.497,74.538c1.925,1.783,3.953,2.726,4.528,2.104c0.577-0.623-0.516-2.573-2.44-4.357   c-0.79-0.731-1.591-1.311-2.308-1.709c-0.009,0.915-0.175,2.085-0.443,3.306C22.042,74.102,22.263,74.321,22.497,74.538z"/>
	<path d="M74.136,24.296c0.586-0.501,1.756-0.964,2.515-1.561c-0.132,0.081-3.506,2.138-4.898,2.818   C72.956,25,73.842,24.548,74.136,24.296z"/>
	<path d="M71.399,25.714c-2.067,0.896-12.665,5.212-12.665,5.212S66.924,27.74,71.399,25.714z"/>
	<path d="M75.112,19.229c-1.954-1.162-5.459-10.526-40.16-2.536c0,0-19.251-6.505-14.427-2.82c0,0,6.482,4.241,4.606,7.792   C22.59,26.475,3.175,44.961,19.55,70.89c0,0-2.924,3.899-1.754,8.579c0.905,3.621,3.095-1.285,4.038-5.587   c0.268-1.221,0.435-2.391,0.443-3.306c0-0.025,0.002-0.053,0.002-0.077c0,0-1.784-3.869-1.729-9.266   c-0.006,0.069-0.043,0.644,0.112,2.956c0.209,3.101-0.138,4.557-0.649,5.508c-0.512,0.948-3.286-4.048-2.559-5.862   c0.607-1.522-0.366-3.497-0.366-3.497c1.581,0.974,3.456,0.881,3.461,0.881c0.062-5.702,2.183-13.104,10.628-19.459   c-0.011,0.007-0.028,0.019-0.028,0.019c-4.826-3.582-8.651,2.697-8.651,2.697c-0.95,1.022-3.082,4.088-3.509,0.439   c-1.097-9.358,9.333-13.315,13.232-9.431c2.463,2.453,4.093,2.996,4.093,2.996c-0.066,0.035-0.151,0.083-0.246,0.139   c2.617-1.444,5.647-2.799,9.167-4.021l13.497-3.669c2.095-3.79-1.401-4.691-1.401-4.691c6.618-6.434,8.628-3.65,8.628-3.65   s2.159-0.895,3.983-0.518c3.811,0.792,5.708,1.301,6.714,0.664C77.663,21.937,77.934,20.907,75.112,19.229z M65.56,20.008   c-2.192,2.681-4.447,0.584-6.806,0c-2.359-0.585-5.258-1.303-3.333-1.754C55.421,18.254,68.057,16.955,65.56,20.008z"/>
	<polygon fill="#000000" points="76.663,22.728 76.658,22.73 76.65,22.736  "/>
	<path fill="#000000" d="M71.69,25.584c0.019-0.009,0.042-0.021,0.062-0.031c-0.114,0.053-0.233,0.106-0.353,0.161   C71.534,25.656,71.634,25.612,71.69,25.584z"/>
	<path fill="#000000" d="M36.07,38.617c-1.828,1.008-3.453,2.06-4.892,3.143C31.447,41.581,34.848,39.33,36.07,38.617z"/>
	<path fill="#000000" d="M20.552,61.219L20.552,61.219c-0.001,0.005-0.001,0.01-0.001,0.015   C20.551,61.228,20.552,61.219,20.552,61.219z"/>
</g>
<path d="M21.755,26.455c0,0,8.566-8.51,8.639-5.115c0.073,3.396,0.073,3.762,4.972,1.423c0,0-6.186,4.562-7.752,2.588  c-1.932-2.432-5.725,2.968-8.306,4.811L21.755,26.455z"/>
<circle cx="65.594" cy="20.398" r="0.526"/>
<circle fill="#000000" cx="65.501" cy="20.17" r="0.228"/>
</svg>