<svg xmlns="http://www.w3.org/2000/svg" xmlns:xlink="http://www.w3.org/1999/xlink" version="1.1" id="Your_Icon" x="0px" y="0px" width="100px" height="100px" viewBox="0 0 100 100" enable-background="new 0 0 100 100" xml:space="preserve">
<path fill="none" stroke="#000000" stroke-miterlimit="10" d="M88.151,11.195c-0.43-1.018,0.048-2.191,1.064-2.62l0.923-0.389  c1.018-0.43,2.189,0.049,2.62,1.066l1.942,4.606c0.43,1.018-0.048,2.191-1.065,2.62l-0.922,0.389  c-1.017,0.429-2.19-0.047-2.619-1.066L88.151,11.195z"/>
<path fill="none" stroke="#000000" stroke-miterlimit="10" d="M90.145,15.85c0.516-0.976,1.728-1.348,2.702-0.83l0.885,0.468  c0.977,0.518,1.348,1.729,0.831,2.704l-2.343,4.418c-0.517,0.976-1.728,1.348-2.702,0.831l-0.885-0.469  c-0.976-0.518-1.349-1.728-0.83-2.704L90.145,15.85z"/>
<path d="M5.618,67.575l-2.122,2.121c0,0-3.536,3.535,0.707,7.778c4.243,4.242,7.778,0.707,7.778,0.707l2.121-2.122L5.618,67.575z"/>
<rect x="46.287" y="3.391" transform="matrix(0.7071 0.7071 -0.7071 0.7071 36.0971 -28.3639)" width="12" height="52"/>
<rect x="26.134" y="48.043" transform="matrix(0.7071 0.7071 -0.7071 0.7071 44.4445 -8.2116)" width="12" height="3"/>
<path d="M75.621,14.542c0,0,3.536-3.535-0.707-7.778c-4.242-4.243-7.777-0.707-7.777-0.707L75.621,14.542z"/>
<path fill="none" stroke="#000000" stroke-miterlimit="10" d="M79.078,7.41c-1.097,0.126-2.089-0.662-2.214-1.759l-0.113-0.994  c-0.126-1.098,0.663-2.088,1.76-2.214l4.968-0.568c1.097-0.125,2.089,0.662,2.214,1.76l0.113,0.994  c0.126,1.097-0.662,2.089-1.76,2.214L79.078,7.41z"/>
<path fill="none" stroke="#000000" stroke-miterlimit="10" d="M84.106,6.808c-0.79-0.77-0.807-2.036-0.035-2.827l0.698-0.717  c0.771-0.791,2.036-0.806,2.828-0.036l3.579,3.491c0.791,0.771,0.808,2.036,0.037,2.828l-0.699,0.717  c-0.771,0.79-2.037,0.807-2.828,0.036L84.106,6.808z"/>
<circle fill="none" stroke="#000000" stroke-miterlimit="10" cx="74.915" cy="6.763" r="2"/>
<path d="M18.346,85.96l-2.121,2.121c0,0-3.536,3.535,0.707,7.778c4.243,4.242,7.778,0.707,7.778,0.707l2.121-2.122L18.346,85.96z"/>
<rect x="59.015" y="21.776" transform="matrix(0.7071 0.7071 -0.7071 0.7071 52.8251 -31.9794)" width="12" height="52"/>
<rect x="14.467" y="47.211" transform="matrix(0.7071 0.7071 -0.7071 0.7071 49.2754 3.4547)" width="12" height="27.999"/>
<rect x="27.195" y="65.595" transform="matrix(0.7071 0.7071 -0.7071 0.7071 66.0049 -0.1596)" width="12" height="28"/>
<rect x="38.862" y="66.428" transform="matrix(0.7071 0.7071 -0.7071 0.7071 61.1724 -11.8267)" width="12" height="3"/>
<path d="M88.35,32.926c0,0,3.535-3.535-0.707-7.778c-4.243-4.243-7.778-0.707-7.778-0.707L88.35,32.926z"/>
<circle fill="none" stroke="#000000" stroke-miterlimit="10" cx="87.643" cy="25.148" r="2"/>
</svg>