<?xml version="1.0" encoding="UTF-8" standalone="no"?>
<!DOCTYPE svg PUBLIC "-//W3C//DTD SVG 1.1//EN"
 "http://www.w3.org/Graphics/SVG/1.1/DTD/svg11.dtd">
<!-- Generated by graphviz version 10.0.1 (20240210.2158)
 -->
<!-- Title: classes_No_Name Pages: 1 -->
<svg width="758pt" height="264pt"
 viewBox="0.00 0.00 757.62 264.00" xmlns="http://www.w3.org/2000/svg" xmlns:xlink="http://www.w3.org/1999/xlink">
<g id="graph0" class="graph" transform="scale(1 1) rotate(0) translate(4 260)">
<title>classes_No_Name</title>
<polygon fill="white" stroke="none" points="-4,4 -4,-260 753.62,-260 753.62,4 -4,4"/>
<!-- 2 -->
<g id="node1" class="node">
<title>2</title>
<polygon fill="aquamarine" stroke="blue" stroke-width="3" points="304.62,-73.5 304.62,-109.5 459.38,-109.5 459.38,-73.5 304.62,-73.5"/>
<text text-anchor="middle" x="382" y="-86.45" font-family="Times,serif" font-size="14.00">ConsumptionRateFetcher</text>
</g>
<!-- 3 -->
<g id="node2" class="node">
<title>3</title>
<polygon fill="none" stroke="black" points="222.25,-146.5 222.25,-182.5 293.75,-182.5 293.75,-146.5 222.25,-146.5"/>
<text text-anchor="middle" x="258" y="-159.45" font-family="Times,serif" font-size="14.00">ViewBase</text>
</g>
<!-- 2&#45;&gt;3 -->
<g id="edge1" class="edge">
<title>2&#45;&gt;3</title>
<path fill="none" stroke="black" d="M349.74,-110.97C333.91,-120.04 314.68,-131.05 297.92,-140.64"/>
<polygon fill="none" stroke="black" points="296.64,-137.34 289.7,-145.35 300.12,-143.42 296.64,-137.34"/>
</g>
<!-- 4 -->
<g id="node3" class="node">
<title>4</title>
<polygon fill="none" stroke="black" points="51.38,-219.5 51.38,-255.5 156.62,-255.5 156.62,-219.5 51.38,-219.5"/>
<text text-anchor="middle" x="104" y="-232.45" font-family="Times,serif" font-size="14.00">ArgumentMixin</text>
</g>
<!-- 3&#45;&gt;4 -->
<g id="edge2" class="edge">
<title>3&#45;&gt;4</title>
<path fill="none" stroke="black" d="M221.89,-182.15C201.1,-191.74 174.69,-203.91 152.14,-214.3"/>
<polygon fill="none" stroke="black" points="150.75,-211.09 143.13,-218.46 153.68,-217.45 150.75,-211.09"/>
</g>
<!-- 5 -->
<g id="node4" class="node">
<title>5</title>
<polygon fill="none" stroke="black" points="213.62,-219.5 213.62,-255.5 302.38,-255.5 302.38,-219.5 213.62,-219.5"/>
<text text-anchor="middle" x="258" y="-232.45" font-family="Times,serif" font-size="14.00">RequestView</text>
</g>
<!-- 3&#45;&gt;5 -->
<g id="edge3" class="edge">
<title>3&#45;&gt;5</title>
<path fill="none" stroke="black" d="M258,-182.69C258,-190.27 258,-199.4 258,-207.96"/>
<polygon fill="none" stroke="black" points="254.5,-207.96 258,-217.96 261.5,-207.96 254.5,-207.96"/>
</g>
<!-- 6 -->
<g id="node5" class="node">
<title>6</title>
<polygon fill="yellow" stroke="black" points="346.25,-0.5 346.25,-36.5 417.75,-36.5 417.75,-0.5 346.25,-0.5"/>
<text text-anchor="middle" x="382" y="-13.45" font-family="Times,serif" font-size="14.00">TofuView</text>
</g>
<!-- 6&#45;&gt;2 -->
<g id="edge5" class="edge">
<title>6&#45;&gt;2</title>
<path fill="none" stroke="black" d="M382,-36.69C382,-43.91 382,-52.53 382,-60.73"/>
<polygon fill="none" stroke="black" points="378.5,-60.72 382,-70.72 385.5,-60.72 378.5,-60.72"/>
</g>
<!-- 7 -->
<g id="node6" class="node">
<title>7</title>
<polygon fill="aquamarine" stroke="black" points="169.75,-73.5 169.75,-109.5 286.25,-109.5 286.25,-73.5 169.75,-73.5"/>
<text text-anchor="middle" x="228" y="-86.45" font-family="Times,serif" font-size="14.00">LegumeViewBase</text>
</g>
<!-- 6&#45;&gt;7 -->
<g id="edge4" class="edge">
<title>6&#45;&gt;7</title>
<path fill="none" stroke="black" d="M345.89,-36.15C325.1,-45.74 298.69,-57.91 276.14,-68.3"/>
<polygon fill="none" stroke="black" points="274.75,-65.09 267.13,-72.46 277.68,-71.45 274.75,-65.09"/>
</g>
<!-- 8 -->
<g id="node7" class="node">
<title>8</title>
<polygon fill="aquamarine" stroke="black" points="477.75,-73.5 477.75,-109.5 588.25,-109.5 588.25,-73.5 477.75,-73.5"/>
<text text-anchor="middle" x="533" y="-86.45" font-family="Times,serif" font-size="14.00">ProteinViewBase</text>
</g>
<!-- 6&#45;&gt;8 -->
<g id="edge6" class="edge">
<title>6&#45;&gt;8</title>
<path fill="none" stroke="black" d="M418.17,-36.51C438.34,-45.99 463.7,-57.92 485.46,-68.15"/>
<polygon fill="none" stroke="black" points="483.91,-71.28 494.44,-72.37 486.88,-64.95 483.91,-71.28"/>
</g>
<!-- 7&#45;&gt;3 -->
<g id="edge7" class="edge">
<title>7&#45;&gt;3</title>
<path fill="none" stroke="black" d="M235.26,-109.69C238.62,-117.62 242.68,-127.24 246.44,-136.14"/>
<polygon fill="none" stroke="black" points="243.1,-137.23 250.22,-145.08 249.55,-134.5 243.1,-137.23"/>
</g>
<!-- 8&#45;&gt;3 -->
<g id="edge8" class="edge">
<title>8&#45;&gt;3</title>
<path fill="none" stroke="black" d="M477.34,-107.54C474.18,-108.37 471.05,-109.2 468,-110 412.16,-124.63 347.82,-140.94 305.23,-151.66"/>
<polygon fill="none" stroke="black" points="304.4,-148.26 295.55,-154.1 306.1,-155.05 304.4,-148.26"/>
</g>
<!-- 9 -->
<g id="node8" class="node">
<title>9</title>
<polygon fill="aquamarine" stroke="blue" stroke-width="3" points="606.12,-73.5 606.12,-109.5 745.88,-109.5 745.88,-73.5 606.12,-73.5"/>
<text text-anchor="middle" x="676" y="-86.45" font-family="Times,serif" font-size="14.00">ProteinMetadataMixin</text>
</g>
<!-- 10 -->
<g id="node9" class="node">
<title>10</title>
<polygon fill="wheat" stroke="black" points="602.38,-146.5 602.38,-182.5 749.62,-182.5 749.62,-146.5 602.38,-146.5"/>
<text text-anchor="middle" x="676" y="-159.45" font-family="Times,serif" font-size="14.00">FoodMetadataDBMixin</text>
</g>
<!-- 9&#45;&gt;10 -->
<g id="edge9" class="edge">
<title>9&#45;&gt;10</title>
<path fill="none" stroke="black" d="M676,-110.78C676,-118.07 676,-126.64 676,-134.72"/>
<polygon fill="none" stroke="black" points="672.5,-134.5 676,-144.5 679.5,-134.5 672.5,-134.5"/>
</g>
<!-- 12 -->
<g id="node10" class="node">
<title>12</title>
<polygon fill="aquamarine" stroke="black" points="36.12,-73.5 36.12,-109.5 151.88,-109.5 151.88,-73.5 36.12,-73.5"/>
<text text-anchor="middle" x="94" y="-86.45" font-family="Times,serif" font-size="14.00">ProduceViewBase</text>
</g>
<!-- 12&#45;&gt;3 -->
<g id="edge11" class="edge">
<title>12&#45;&gt;3</title>
<path fill="none" stroke="black" d="M134.12,-109.87C157.5,-119.99 187.08,-132.8 211.48,-143.36"/>
<polygon fill="none" stroke="black" points="209.97,-146.52 220.54,-147.28 212.75,-140.1 209.97,-146.52"/>
</g>
<!-- 12&#45;&gt;4 -->
<g id="edge13" class="edge">
<title>12&#45;&gt;4</title>
<path fill="none" stroke="black" d="M88.71,-109.95C83.9,-128.26 78.23,-157.81 83,-183 84.63,-191.63 87.62,-200.65 90.85,-208.77"/>
<polygon fill="none" stroke="black" points="87.55,-209.94 94.69,-217.77 93.98,-207.2 87.55,-209.94"/>
</g>
<!-- 13 -->
<g id="node11" class="node">
<title>13</title>
<polygon fill="wheat" stroke="black" points="91.62,-146.5 91.62,-182.5 204.38,-182.5 204.38,-146.5 91.62,-146.5"/>
<text text-anchor="middle" x="148" y="-159.45" font-family="Times,serif" font-size="14.00">ProduceDBMixin</text>
</g>
<!-- 12&#45;&gt;13 -->
<g id="edge12" class="edge">
<title>12&#45;&gt;13</title>
<path fill="none" stroke="black" d="M107.07,-109.69C113.44,-118.06 121.23,-128.3 128.3,-137.6"/>
<polygon fill="none" stroke="black" points="125.29,-139.43 134.13,-145.27 130.86,-135.19 125.29,-139.43"/>
</g>
<!-- 14 -->
<g id="node12" class="node">
<title>14</title>
<polygon fill="yellow" stroke="blue" stroke-width="3" points="489.38,-0.5 489.38,-36.5 576.62,-36.5 576.62,-0.5 489.38,-0.5"/>
<text text-anchor="middle" x="533" y="-13.45" font-family="Times,serif" font-size="14.00">SalmonView</text>
</g>
<!-- 14&#45;&gt;2 -->
<g id="edge15" class="edge">
<title>14&#45;&gt;2</title>
<path fill="none" stroke="black" d="M493.72,-37.97C474.75,-46.89 451.77,-57.69 431.6,-67.18"/>
<polygon fill="none" stroke="black" points="430.27,-63.93 422.71,-71.36 433.25,-70.27 430.27,-63.93"/>
</g>
<!-- 14&#45;&gt;8 -->
<g id="edge16" class="edge">
<title>14&#45;&gt;8</title>
<path fill="none" stroke="black" d="M533,-37.78C533,-45.07 533,-53.64 533,-61.72"/>
<polygon fill="none" stroke="black" points="529.5,-61.5 533,-71.5 536.5,-61.5 529.5,-61.5"/>
</g>
<!-- 14&#45;&gt;9 -->
<g id="edge14" class="edge">
<title>14&#45;&gt;9</title>
<path fill="none" stroke="black" d="M570.2,-37.97C588.07,-46.84 609.7,-57.58 628.72,-67.03"/>
<polygon fill="none" stroke="black" points="627.12,-70.14 637.63,-71.45 630.23,-63.87 627.12,-70.14"/>
</g>
<!-- 15 -->
<g id="node13" class="node">
<title>15</title>
<polygon fill="yellow" stroke="black" points="105.62,-0.5 105.62,-36.5 182.38,-36.5 182.38,-0.5 105.62,-0.5"/>
<text text-anchor="middle" x="144" y="-13.45" font-family="Times,serif" font-size="14.00">FruitsView</text>
</g>
<!-- 15&#45;&gt;12 -->
<g id="edge17" class="edge">
<title>15&#45;&gt;12</title>
<path fill="none" stroke="black" d="M131.9,-36.69C126.06,-44.97 118.94,-55.09 112.45,-64.31"/>
<polygon fill="none" stroke="black" points="109.76,-62.04 106.86,-72.23 115.48,-66.07 109.76,-62.04"/>
</g>
<!-- 11 -->
<g id="node14" class="node">
<title>11</title>
<polygon fill="yellow" stroke="black" points="0,-0.5 0,-36.5 88,-36.5 88,-0.5 0,-0.5"/>
<text text-anchor="middle" x="44" y="-13.45" font-family="Times,serif" font-size="14.00">VeggiesView</text>
</g>
<!-- 11&#45;&gt;12 -->
<g id="edge10" class="edge">
<title>11&#45;&gt;12</title>
<path fill="none" stroke="black" d="M56.1,-36.69C61.94,-44.97 69.06,-55.09 75.55,-64.31"/>
<polygon fill="none" stroke="black" points="72.52,-66.07 81.14,-72.23 78.24,-62.04 72.52,-66.07"/>
</g>
<!-- 16 -->
<g id="node15" class="node">
<title>16</title>
<polygon fill="yellow" stroke="black" points="613.88,-0.5 613.88,-36.5 698.12,-36.5 698.12,-0.5 613.88,-0.5"/>
<text text-anchor="middle" x="656" y="-13.45" font-family="Times,serif" font-size="14.00">CheeseView</text>
</g>
<!-- 16&#45;&gt;8 -->
<g id="edge19" class="edge">
<title>16&#45;&gt;8</title>
<path fill="none" stroke="black" d="M625.91,-36.87C609.98,-46.07 590.2,-57.48 572.99,-67.42"/>
<polygon fill="none" stroke="black" points="571.43,-64.28 564.52,-72.31 574.93,-70.34 571.43,-64.28"/>
</g>
<!-- 16&#45;&gt;9 -->
<g id="edge18" class="edge">
<title>16&#45;&gt;9</title>
<path fill="none" stroke="black" d="M660.84,-36.69C662.92,-44.08 665.42,-52.93 667.77,-61.3"/>
<polygon fill="none" stroke="black" points="664.36,-62.1 670.44,-70.77 671.1,-60.2 664.36,-62.1"/>
</g>
</g>
</svg>
