<?xml version="1.0" encoding="UTF-8" standalone="no"?>
<!DOCTYPE svg PUBLIC "-//W3C//DTD SVG 1.1//EN"
 "http://www.w3.org/Graphics/SVG/1.1/DTD/svg11.dtd">
<!-- Generated by graphviz version 2.26.3 (20100126.1600)
 -->
<!-- Title: classes_No_Name Pages: 1 -->
<svg width="886pt" height="268pt"
 viewBox="0.00 0.00 886.00 268.00" xmlns="http://www.w3.org/2000/svg" xmlns:xlink="http://www.w3.org/1999/xlink">
<g id="graph1" class="graph" transform="scale(1 1) rotate(0) translate(4 264)">
<title>classes_No_Name</title>
<polygon fill="white" stroke="white" points="-4,5 -4,-264 883,-264 883,5 -4,5"/>
<!-- 2 -->
<g id="node1" class="node"><title>2</title>
<polygon fill="aquamarine" stroke="blue" stroke-width="3" points="349.5,-75 349.5,-111 540.5,-111 540.5,-75 349.5,-75"/>
<text text-anchor="middle" x="445" y="-89.4" font-family="Times Roman,serif" font-size="14.00">ConsumptionRateFetcher</text>
</g>
<!-- 3 -->
<g id="node2" class="node"><title>3</title>
<polygon fill="none" stroke="black" points="251,-149 251,-185 335,-185 335,-149 251,-149"/>
<text text-anchor="middle" x="293" y="-163.4" font-family="Times Roman,serif" font-size="14.00">ViewBase</text>
</g>
<!-- 2&#45;&gt;3 -->
<g id="edge2" class="edge"><title>2&#45;&gt;3</title>
<path fill="none" stroke="black" d="M407.817,-111.102C387.13,-121.174 361.198,-133.798 339.215,-144.501"/>
<polygon fill="none" stroke="black" points="337.522,-141.432 330.063,-148.956 340.586,-147.726 337.522,-141.432"/>
</g>
<!-- 4 -->
<g id="node3" class="node"><title>4</title>
<polygon fill="none" stroke="black" points="58,-223 58,-259 180,-259 180,-223 58,-223"/>
<text text-anchor="middle" x="119" y="-237.4" font-family="Times Roman,serif" font-size="14.00">ArgumentMixin</text>
</g>
<!-- 3&#45;&gt;4 -->
<g id="edge4" class="edge"><title>3&#45;&gt;4</title>
<path fill="none" stroke="black" d="M250.879,-184.913C226.8,-195.154 196.404,-208.081 170.863,-218.943"/>
<polygon fill="none" stroke="black" points="169.168,-215.861 161.336,-222.995 171.908,-222.302 169.168,-215.861"/>
</g>
<!-- 5 -->
<g id="node4" class="node"><title>5</title>
<polygon fill="none" stroke="black" points="240,-223 240,-259 346,-259 346,-223 240,-223"/>
<text text-anchor="middle" x="293" y="-237.4" font-family="Times Roman,serif" font-size="14.00">RequestView</text>
</g>
<!-- 3&#45;&gt;5 -->
<g id="edge6" class="edge"><title>3&#45;&gt;5</title>
<path fill="none" stroke="black" d="M293,-185.292C293,-193.536 293,-203.462 293,-212.638"/>
<polygon fill="none" stroke="black" points="289.5,-212.918 293,-222.918 296.5,-212.918 289.5,-212.918"/>
</g>
<!-- 6 -->
<g id="node5" class="node"><title>6</title>
<polygon fill="yellow" stroke="black" points="405.5,-1 405.5,-37 484.5,-37 484.5,-1 405.5,-1"/>
<text text-anchor="middle" x="445" y="-15.4" font-family="Times Roman,serif" font-size="14.00">TofuView</text>
</g>
<!-- 6&#45;&gt;2 -->
<g id="edge10" class="edge"><title>6&#45;&gt;2</title>
<path fill="none" stroke="black" d="M445,-37.2921C445,-45.5365 445,-55.4624 445,-64.6378"/>
<polygon fill="none" stroke="black" points="441.5,-64.9182 445,-74.9183 448.5,-64.9183 441.5,-64.9182"/>
</g>
<!-- 7 -->
<g id="node6" class="node"><title>7</title>
<polygon fill="aquamarine" stroke="black" points="194,-75 194,-111 332,-111 332,-75 194,-75"/>
<text text-anchor="middle" x="263" y="-89.4" font-family="Times Roman,serif" font-size="14.00">LegumeViewBase</text>
</g>
<!-- 6&#45;&gt;7 -->
<g id="edge8" class="edge"><title>6&#45;&gt;7</title>
<path fill="none" stroke="black" d="M405.059,-35.2396C379.112,-45.7895 344.977,-59.6687 316.671,-71.1778"/>
<polygon fill="none" stroke="black" points="315.26,-67.973 307.315,-74.9818 317.897,-74.4575 315.26,-67.973"/>
</g>
<!-- 8 -->
<g id="node7" class="node"><title>8</title>
<polygon fill="aquamarine" stroke="black" points="557.5,-75 557.5,-111 690.5,-111 690.5,-75 557.5,-75"/>
<text text-anchor="middle" x="624" y="-89.4" font-family="Times Roman,serif" font-size="14.00">ProteinViewBase</text>
</g>
<!-- 6&#45;&gt;8 -->
<g id="edge12" class="edge"><title>6&#45;&gt;8</title>
<path fill="none" stroke="black" d="M484.726,-35.423C510.063,-45.8975 543.203,-59.5981 570.8,-71.0068"/>
<polygon fill="none" stroke="black" points="569.73,-74.3515 580.308,-74.9375 572.404,-67.8825 569.73,-74.3515"/>
</g>
<!-- 7&#45;&gt;3 -->
<g id="edge14" class="edge"><title>7&#45;&gt;3</title>
<path fill="none" stroke="black" d="M270.416,-111.292C273.867,-119.805 278.045,-130.112 281.865,-139.533"/>
<polygon fill="none" stroke="black" points="278.669,-140.966 285.67,-148.918 285.156,-138.336 278.669,-140.966"/>
</g>
<!-- 8&#45;&gt;3 -->
<g id="edge16" class="edge"><title>8&#45;&gt;3</title>
<path fill="none" stroke="black" d="M557.375,-110.013C554.547,-110.692 551.747,-111.357 549,-112 478.664,-128.459 397.009,-145.677 345.188,-156.369"/>
<polygon fill="none" stroke="black" points="344.323,-152.974 335.234,-158.419 345.735,-159.83 344.323,-152.974"/>
</g>
<!-- 9 -->
<g id="node8" class="node"><title>9</title>
<polygon fill="aquamarine" stroke="blue" stroke-width="3" points="708,-75 708,-111 876,-111 876,-75 708,-75"/>
<text text-anchor="middle" x="792" y="-89.4" font-family="Times Roman,serif" font-size="14.00">ProteinMetadataMixin</text>
</g>
<!-- 10 -->
<g id="node9" class="node"><title>10</title>
<polygon fill="wheat" stroke="black" points="706,-149 706,-185 878,-185 878,-149 706,-149"/>
<text text-anchor="middle" x="792" y="-163.4" font-family="Times Roman,serif" font-size="14.00">FoodMetadataDBMixin</text>
</g>
<!-- 9&#45;&gt;10 -->
<g id="edge18" class="edge"><title>9&#45;&gt;10</title>
<path fill="none" stroke="black" d="M792,-111.292C792,-119.536 792,-129.462 792,-138.638"/>
<polygon fill="none" stroke="black" points="788.5,-138.918 792,-148.918 795.5,-138.918 788.5,-138.918"/>
</g>
<!-- 12 -->
<g id="node10" class="node"><title>12</title>
<polygon fill="aquamarine" stroke="black" points="37.5,-75 37.5,-111 176.5,-111 176.5,-75 37.5,-75"/>
<text text-anchor="middle" x="107" y="-89.4" font-family="Times Roman,serif" font-size="14.00">ProduceViewBase</text>
</g>
<!-- 12&#45;&gt;3 -->
<g id="edge22" class="edge"><title>12&#45;&gt;3</title>
<path fill="none" stroke="black" d="M152.501,-111.102C179.342,-121.781 213.4,-135.331 241.26,-146.415"/>
<polygon fill="none" stroke="black" points="240.249,-149.78 250.835,-150.225 242.837,-143.276 240.249,-149.78"/>
</g>
<!-- 12&#45;&gt;4 -->
<g id="edge26" class="edge"><title>12&#45;&gt;4</title>
<path fill="none" stroke="black" d="M101.452,-111.313C96.5284,-130.169 90.8499,-160.336 96,-186 97.8642,-195.29 101.336,-204.969 105.028,-213.571"/>
<polygon fill="none" stroke="black" points="101.88,-215.103 109.215,-222.747 108.248,-212.196 101.88,-215.103"/>
</g>
<!-- 13 -->
<g id="node11" class="node"><title>13</title>
<polygon fill="wheat" stroke="black" points="104.5,-149 104.5,-185 233.5,-185 233.5,-149 104.5,-149"/>
<text text-anchor="middle" x="169" y="-163.4" font-family="Times Roman,serif" font-size="14.00">ProduceDBMixin</text>
</g>
<!-- 12&#45;&gt;13 -->
<g id="edge24" class="edge"><title>12&#45;&gt;13</title>
<path fill="none" stroke="black" d="M122.326,-111.292C129.834,-120.253 139.007,-131.201 147.227,-141.013"/>
<polygon fill="none" stroke="black" points="144.745,-143.501 153.85,-148.918 150.111,-139.005 144.745,-143.501"/>
</g>
<!-- 14 -->
<g id="node12" class="node"><title>14</title>
<polygon fill="yellow" stroke="blue" stroke-width="3" points="573,-1 573,-37 675,-37 675,-1 573,-1"/>
<text text-anchor="middle" x="624" y="-15.4" font-family="Times Roman,serif" font-size="14.00">SalmonView</text>
</g>
<!-- 14&#45;&gt;2 -->
<g id="edge30" class="edge"><title>14&#45;&gt;2</title>
<path fill="none" stroke="black" d="M580.212,-37.1024C555.415,-47.3536 524.219,-60.2502 498.042,-71.072"/>
<polygon fill="none" stroke="black" points="496.55,-67.9013 488.646,-74.9564 499.225,-74.3703 496.55,-67.9013"/>
</g>
<!-- 14&#45;&gt;8 -->
<g id="edge32" class="edge"><title>14&#45;&gt;8</title>
<path fill="none" stroke="black" d="M624,-37.2921C624,-45.5365 624,-55.4624 624,-64.6378"/>
<polygon fill="none" stroke="black" points="620.5,-64.9182 624,-74.9183 627.5,-64.9183 620.5,-64.9182"/>
</g>
<!-- 14&#45;&gt;9 -->
<g id="edge28" class="edge"><title>14&#45;&gt;9</title>
<path fill="none" stroke="black" d="M665.097,-37.1024C688.166,-47.2636 717.136,-60.0241 741.57,-70.7867"/>
<polygon fill="none" stroke="black" points="740.474,-74.1283 751.036,-74.9564 743.295,-67.7222 740.474,-74.1283"/>
</g>
<!-- 15 -->
<g id="node13" class="node"><title>15</title>
<polygon fill="yellow" stroke="black" points="119.5,-1 119.5,-37 208.5,-37 208.5,-1 119.5,-1"/>
<text text-anchor="middle" x="164" y="-15.4" font-family="Times Roman,serif" font-size="14.00">FruitsView</text>
</g>
<!-- 15&#45;&gt;12 -->
<g id="edge34" class="edge"><title>15&#45;&gt;12</title>
<path fill="none" stroke="black" d="M149.91,-37.2921C143.077,-46.1637 134.743,-56.9826 127.244,-66.718"/>
<polygon fill="none" stroke="black" points="124.257,-64.8602 120.928,-74.9183 129.803,-69.1318 124.257,-64.8602"/>
</g>
<!-- 11 -->
<g id="node14" class="node"><title>11</title>
<polygon fill="yellow" stroke="black" points="-0.5,-1 -0.5,-37 102.5,-37 102.5,-1 -0.5,-1"/>
<text text-anchor="middle" x="51" y="-15.4" font-family="Times Roman,serif" font-size="14.00">VeggiesView</text>
</g>
<!-- 11&#45;&gt;12 -->
<g id="edge20" class="edge"><title>11&#45;&gt;12</title>
<path fill="none" stroke="black" d="M64.8427,-37.2921C71.5563,-46.1637 79.7436,-56.9826 87.1109,-66.718"/>
<polygon fill="none" stroke="black" points="84.4911,-69.0563 93.3165,-74.9183 90.073,-64.8321 84.4911,-69.0563"/>
</g>
<!-- 16 -->
<g id="node15" class="node"><title>16</title>
<polygon fill="yellow" stroke="black" points="716.5,-1 716.5,-37 817.5,-37 817.5,-1 716.5,-1"/>
<text text-anchor="middle" x="767" y="-15.4" font-family="Times Roman,serif" font-size="14.00">CheeseView</text>
</g>
<!-- 16&#45;&gt;8 -->
<g id="edge38" class="edge"><title>16&#45;&gt;8</title>
<path fill="none" stroke="black" d="M732.018,-37.1024C712.802,-47.0467 688.774,-59.4804 668.263,-70.0947"/>
<polygon fill="none" stroke="black" points="666.389,-67.1235 659.116,-74.828 669.606,-73.3405 666.389,-67.1235"/>
</g>
<!-- 16&#45;&gt;9 -->
<g id="edge36" class="edge"><title>16&#45;&gt;9</title>
<path fill="none" stroke="black" d="M773.18,-37.2921C776.026,-45.7157 779.464,-55.8948 782.62,-65.2351"/>
<polygon fill="none" stroke="black" points="779.375,-66.5646 785.891,-74.9183 786.006,-64.3241 779.375,-66.5646"/>
</g>
</g>
</svg>
