<?xml version="1.0" encoding="UTF-8" standalone="no"?>
<!DOCTYPE svg PUBLIC "-//W3C//DTD SVG 1.1//EN"
 "http://www.w3.org/Graphics/SVG/1.1/DTD/svg11.dtd">
<!-- Generated by graphviz version 2.26.3 (20100126.1600)
 -->
<!-- Title: classes_No_Name Pages: 1 -->
<svg width="925pt" height="268pt"
 viewBox="0.00 0.00 925.00 268.00" xmlns="http://www.w3.org/2000/svg" xmlns:xlink="http://www.w3.org/1999/xlink">
<g id="graph1" class="graph" transform="scale(1 1) rotate(0) translate(4 264)">
<title>classes_No_Name</title>
<polygon fill="white" stroke="white" points="-4,5 -4,-264 922,-264 922,5 -4,5"/>
<!-- 2 -->
<g id="node1" class="node"><title>2</title>
<polygon fill="none" stroke="black" points="353,-75 353,-111 485,-111 485,-75 353,-75"/>
<text text-anchor="middle" x="419" y="-89.4" font-family="Times Roman,serif" font-size="14.00">ClickRateFetcher</text>
</g>
<!-- 3 -->
<g id="node2" class="node"><title>3</title>
<polygon fill="none" stroke="black" points="242,-149 242,-185 346,-185 346,-149 242,-149"/>
<text text-anchor="middle" x="294" y="-163.4" font-family="Times Roman,serif" font-size="14.00">BaseHandler</text>
</g>
<!-- 2&#45;&gt;3 -->
<g id="edge2" class="edge"><title>2&#45;&gt;3</title>
<path fill="none" stroke="black" d="M388.422,-111.102C371.926,-120.868 351.376,-133.033 333.664,-143.519"/>
<polygon fill="none" stroke="black" points="331.518,-140.722 324.696,-148.828 335.084,-146.745 331.518,-140.722"/>
</g>
<!-- 4 -->
<g id="node3" class="node"><title>4</title>
<polygon fill="none" stroke="black" points="76,-223 76,-259 198,-259 198,-223 76,-223"/>
<text text-anchor="middle" x="137" y="-237.4" font-family="Times Roman,serif" font-size="14.00">ArgumentMixin</text>
</g>
<!-- 3&#45;&gt;4 -->
<g id="edge4" class="edge"><title>3&#45;&gt;4</title>
<path fill="none" stroke="black" d="M255.593,-185.102C234.131,-195.219 207.202,-207.911 184.432,-218.644"/>
<polygon fill="none" stroke="black" points="182.835,-215.527 175.282,-222.956 185.82,-221.859 182.835,-215.527"/>
</g>
<!-- 5 -->
<g id="node4" class="node"><title>5</title>
<polygon fill="none" stroke="black" points="231,-223 231,-259 357,-259 357,-223 231,-223"/>
<text text-anchor="middle" x="294" y="-237.4" font-family="Times Roman,serif" font-size="14.00">RequestHandler</text>
</g>
<!-- 3&#45;&gt;5 -->
<g id="edge6" class="edge"><title>3&#45;&gt;5</title>
<path fill="none" stroke="black" d="M294,-185.292C294,-193.536 294,-203.462 294,-212.638"/>
<polygon fill="none" stroke="black" points="290.5,-212.918 294,-222.918 297.5,-212.918 290.5,-212.918"/>
</g>
<!-- 6 -->
<g id="node5" class="node"><title>6</title>
<polygon fill="none" stroke="black" points="370,-1 370,-37 468,-37 468,-1 370,-1"/>
<text text-anchor="middle" x="419" y="-15.4" font-family="Times Roman,serif" font-size="14.00">HotContent</text>
</g>
<!-- 6&#45;&gt;2 -->
<g id="edge10" class="edge"><title>6&#45;&gt;2</title>
<path fill="none" stroke="black" d="M419,-37.2921C419,-45.5365 419,-55.4624 419,-64.6378"/>
<polygon fill="none" stroke="black" points="415.5,-64.9182 419,-74.9183 422.5,-64.9183 415.5,-64.9182"/>
</g>
<!-- 7 -->
<g id="node6" class="node"><title>7</title>
<polygon fill="none" stroke="black" points="226.5,-75 226.5,-111 335.5,-111 335.5,-75 226.5,-75"/>
<text text-anchor="middle" x="281" y="-89.4" font-family="Times Roman,serif" font-size="14.00">BaseStoryApi</text>
</g>
<!-- 6&#45;&gt;7 -->
<g id="edge8" class="edge"><title>6&#45;&gt;7</title>
<path fill="none" stroke="black" d="M385.241,-37.1024C366.697,-47.0467 343.509,-59.4804 323.715,-70.0947"/>
<polygon fill="none" stroke="black" points="322.047,-67.0176 314.888,-74.828 325.355,-73.1867 322.047,-67.0176"/>
</g>
<!-- 8 -->
<g id="node7" class="node"><title>8</title>
<polygon fill="none" stroke="black" points="502.5,-75 502.5,-111 725.5,-111 725.5,-75 502.5,-75"/>
<text text-anchor="middle" x="614" y="-89.4" font-family="Times Roman,serif" font-size="14.00">AudienceAnalysisBaseHandler</text>
</g>
<!-- 6&#45;&gt;8 -->
<g id="edge12" class="edge"><title>6&#45;&gt;8</title>
<path fill="none" stroke="black" d="M466.702,-37.1024C493.952,-47.4435 528.297,-60.4767 556.966,-71.3563"/>
<polygon fill="none" stroke="black" points="555.861,-74.6806 566.453,-74.9564 558.345,-68.136 555.861,-74.6806"/>
</g>
<!-- 7&#45;&gt;3 -->
<g id="edge14" class="edge"><title>7&#45;&gt;3</title>
<path fill="none" stroke="black" d="M284.213,-111.292C285.678,-119.626 287.444,-129.678 289.07,-138.937"/>
<polygon fill="none" stroke="black" points="285.646,-139.675 290.823,-148.918 292.54,-138.463 285.646,-139.675"/>
</g>
<!-- 8&#45;&gt;3 -->
<g id="edge16" class="edge"><title>8&#45;&gt;3</title>
<path fill="none" stroke="black" d="M536.128,-111.008C480.801,-123.802 407.499,-140.753 356.096,-152.64"/>
<polygon fill="none" stroke="black" points="355.074,-149.284 346.119,-154.947 356.651,-156.104 355.074,-149.284"/>
</g>
<!-- 9 -->
<g id="node8" class="node"><title>9</title>
<polygon fill="none" stroke="black" points="742.5,-75 742.5,-111 917.5,-111 917.5,-75 742.5,-75"/>
<text text-anchor="middle" x="830" y="-89.4" font-family="Times Roman,serif" font-size="14.00">ContentMetadataMixin</text>
</g>
<!-- 10 -->
<g id="node9" class="node"><title>10</title>
<polygon fill="none" stroke="black" points="768,-149 768,-185 892,-185 892,-149 768,-149"/>
<text text-anchor="middle" x="830" y="-163.4" font-family="Times Roman,serif" font-size="14.00">ClickatronProxy</text>
</g>
<!-- 9&#45;&gt;10 -->
<g id="edge18" class="edge"><title>9&#45;&gt;10</title>
<path fill="none" stroke="black" d="M830,-111.292C830,-119.536 830,-129.462 830,-138.638"/>
<polygon fill="none" stroke="black" points="826.5,-138.918 830,-148.918 833.5,-138.918 826.5,-138.918"/>
</g>
<!-- 11 -->
<g id="node10" class="node"><title>11</title>
<polygon fill="none" stroke="black" points="128,-1 128,-37 282,-37 282,-1 128,-1"/>
<text text-anchor="middle" x="205" y="-15.4" font-family="Times Roman,serif" font-size="14.00">TopDomainsHandler</text>
</g>
<!-- 12 -->
<g id="node11" class="node"><title>12</title>
<polygon fill="none" stroke="black" points="58.5,-75 58.5,-111 209.5,-111 209.5,-75 58.5,-75"/>
<text text-anchor="middle" x="134" y="-89.4" font-family="Times Roman,serif" font-size="14.00">InsightHandlerBase</text>
</g>
<!-- 11&#45;&gt;12 -->
<g id="edge20" class="edge"><title>11&#45;&gt;12</title>
<path fill="none" stroke="black" d="M187.449,-37.2921C178.68,-46.4326 167.926,-57.6401 158.37,-67.6"/>
<polygon fill="none" stroke="black" points="155.746,-65.2793 151.349,-74.9183 160.798,-70.1256 155.746,-65.2793"/>
</g>
<!-- 12&#45;&gt;3 -->
<g id="edge22" class="edge"><title>12&#45;&gt;3</title>
<path fill="none" stroke="black" d="M173.14,-111.102C195.013,-121.219 222.457,-133.911 245.662,-144.644"/>
<polygon fill="none" stroke="black" points="244.441,-147.935 254.987,-148.956 247.38,-141.582 244.441,-147.935"/>
</g>
<!-- 12&#45;&gt;4 -->
<g id="edge26" class="edge"><title>12&#45;&gt;4</title>
<path fill="none" stroke="black" d="M134.368,-111.148C134.881,-136.446 135.816,-182.566 136.422,-212.483"/>
<polygon fill="none" stroke="black" points="132.927,-212.777 136.629,-222.704 139.926,-212.635 132.927,-212.777"/>
</g>
<!-- 13 -->
<g id="node12" class="node"><title>13</title>
<polygon fill="none" stroke="black" points="149.5,-149 149.5,-185 224.5,-185 224.5,-149 149.5,-149"/>
<text text-anchor="middle" x="187" y="-163.4" font-family="Times Roman,serif" font-size="14.00">ApiMixin</text>
</g>
<!-- 12&#45;&gt;13 -->
<g id="edge24" class="edge"><title>12&#45;&gt;13</title>
<path fill="none" stroke="black" d="M147.101,-111.292C153.455,-120.164 161.204,-130.983 168.176,-140.718"/>
<polygon fill="none" stroke="black" points="165.381,-142.826 174.05,-148.918 171.072,-138.75 165.381,-142.826"/>
</g>
<!-- 14 -->
<g id="node13" class="node"><title>14</title>
<polygon fill="none" stroke="black" points="542,-1 542,-37 686,-37 686,-1 542,-1"/>
<text text-anchor="middle" x="614" y="-15.4" font-family="Times Roman,serif" font-size="14.00">ListPinnedContent</text>
</g>
<!-- 14&#45;&gt;2 -->
<g id="edge30" class="edge"><title>14&#45;&gt;2</title>
<path fill="none" stroke="black" d="M566.298,-37.1024C539.048,-47.4435 504.703,-60.4767 476.034,-71.3563"/>
<polygon fill="none" stroke="black" points="474.655,-68.136 466.547,-74.9564 477.139,-74.6806 474.655,-68.136"/>
</g>
<!-- 14&#45;&gt;8 -->
<g id="edge32" class="edge"><title>14&#45;&gt;8</title>
<path fill="none" stroke="black" d="M614,-37.2921C614,-45.5365 614,-55.4624 614,-64.6378"/>
<polygon fill="none" stroke="black" points="610.5,-64.9182 614,-74.9183 617.5,-64.9183 610.5,-64.9182"/>
</g>
<!-- 14&#45;&gt;9 -->
<g id="edge28" class="edge"><title>14&#45;&gt;9</title>
<path fill="none" stroke="black" d="M666.563,-37.0078C697.006,-47.4372 735.511,-60.6287 767.499,-71.5876"/>
<polygon fill="none" stroke="black" points="766.606,-74.9814 777.201,-74.9114 768.875,-68.3593 766.606,-74.9814"/>
</g>
<!-- 15 -->
<g id="node14" class="node"><title>15</title>
<polygon fill="none" stroke="black" points="-0.5,-1 -0.5,-37 110.5,-37 110.5,-1 -0.5,-1"/>
<text text-anchor="middle" x="55" y="-15.4" font-family="Times Roman,serif" font-size="14.00">TopicsHandler</text>
</g>
<!-- 15&#45;&gt;12 -->
<g id="edge34" class="edge"><title>15&#45;&gt;12</title>
<path fill="none" stroke="black" d="M74.5281,-37.2921C84.3818,-46.5222 96.4857,-57.8601 107.196,-67.8926"/>
<polygon fill="none" stroke="black" points="105.006,-70.6363 114.697,-74.9183 109.791,-65.5275 105.006,-70.6363"/>
</g>
<!-- 16 -->
<g id="node15" class="node"><title>16</title>
<polygon fill="none" stroke="black" points="737,-1 737,-37 857,-37 857,-1 737,-1"/>
<text text-anchor="middle" x="797" y="-15.4" font-family="Times Roman,serif" font-size="14.00">RecentContent</text>
</g>
<!-- 16&#45;&gt;8 -->
<g id="edge38" class="edge"><title>16&#45;&gt;8</title>
<path fill="none" stroke="black" d="M752.233,-37.1024C726.882,-47.3536 694.989,-60.2502 668.227,-71.072"/>
<polygon fill="none" stroke="black" points="666.58,-67.9627 658.621,-74.9564 669.204,-74.4522 666.58,-67.9627"/>
</g>
<!-- 16&#45;&gt;9 -->
<g id="edge36" class="edge"><title>16&#45;&gt;9</title>
<path fill="none" stroke="black" d="M805.157,-37.2921C808.954,-45.8053 813.55,-56.1115 817.751,-65.5329"/>
<polygon fill="none" stroke="black" points="814.667,-67.2108 821.937,-74.9183 821.06,-64.3597 814.667,-67.2108"/>
</g>
</g>
</svg>
