<?xml version="1.0" encoding="UTF-8" standalone="no"?>
<!DOCTYPE svg PUBLIC "-//W3C//DTD SVG 1.1//EN"
 "http://www.w3.org/Graphics/SVG/1.1/DTD/svg11.dtd">
<!-- Generated by graphviz version 2.34.0 (20131025.1804)
 -->
<!-- Title: classes_No_Name Pages: 1 -->
<svg width="809pt" height="268pt"
 viewBox="0.00 0.00 809.00 268.00" xmlns="http://www.w3.org/2000/svg" xmlns:xlink="http://www.w3.org/1999/xlink">
<g id="graph0" class="graph" transform="scale(1 1) rotate(0) translate(4 264)">
<title>classes_No_Name</title>
<polygon fill="white" stroke="white" points="-4,4 -4,-264 805,-264 805,4 -4,4"/>
<!-- 2 -->
<g id="node1" class="node"><title>2</title>
<polygon fill="none" stroke="black" points="314.017,-75 314.017,-111 427.983,-111 427.983,-75 314.017,-75"/>
<text text-anchor="middle" x="371" y="-87.4" font-family="Times,serif" font-size="14.00">ClickRateFetcher</text>
</g>
<!-- 3 -->
<g id="node2" class="node"><title>3</title>
<polygon fill="none" stroke="black" points="221.848,-149 221.848,-185 310.152,-185 310.152,-149 221.848,-149"/>
<text text-anchor="middle" x="266" y="-161.4" font-family="Times,serif" font-size="14.00">BaseHandler</text>
</g>
<!-- 2&#45;&gt;3 -->
<g id="edge1" class="edge"><title>2&#45;&gt;3</title>
<path fill="none" stroke="black" d="M346.116,-111.063C332.226,-120.588 314.73,-132.585 299.634,-142.937"/>
<polygon fill="none" stroke="black" points="297.337,-140.268 291.069,-148.81 301.295,-146.041 297.337,-140.268"/>
</g>
<!-- 4 -->
<g id="node3" class="node"><title>4</title>
<polygon fill="none" stroke="black" points="69.6265,-223 69.6265,-259 176.374,-259 176.374,-223 69.6265,-223"/>
<text text-anchor="middle" x="123" y="-235.4" font-family="Times,serif" font-size="14.00">ArgumentMixin</text>
</g>
<!-- 3&#45;&gt;4 -->
<g id="edge2" class="edge"><title>3&#45;&gt;4</title>
<path fill="none" stroke="black" d="M232.111,-185.063C212.398,-194.988 187.353,-207.599 166.231,-218.234"/>
<polygon fill="none" stroke="black" points="164.499,-215.187 157.141,-222.81 167.647,-221.439 164.499,-215.187"/>
</g>
<!-- 5 -->
<g id="node4" class="node"><title>5</title>
<polygon fill="none" stroke="black" points="212.903,-223 212.903,-259 319.097,-259 319.097,-223 212.903,-223"/>
<text text-anchor="middle" x="266" y="-235.4" font-family="Times,serif" font-size="14.00">RequestHandler</text>
</g>
<!-- 3&#45;&gt;5 -->
<g id="edge3" class="edge"><title>3&#45;&gt;5</title>
<path fill="none" stroke="black" d="M266,-185.063C266,-193.193 266,-203.124 266,-212.295"/>
<polygon fill="none" stroke="black" points="262.5,-212.559 266,-222.559 269.5,-212.559 262.5,-212.559"/>
</g>
<!-- 6 -->
<g id="node5" class="node"><title>6</title>
<polygon fill="none" stroke="black" points="330.334,-1 330.334,-37 411.666,-37 411.666,-1 330.334,-1"/>
<text text-anchor="middle" x="371" y="-13.4" font-family="Times,serif" font-size="14.00">HotContent</text>
</g>
<!-- 6&#45;&gt;2 -->
<g id="edge5" class="edge"><title>6&#45;&gt;2</title>
<path fill="none" stroke="black" d="M371,-37.063C371,-45.1928 371,-55.1239 371,-64.2953"/>
<polygon fill="none" stroke="black" points="367.5,-64.5593 371,-74.5593 374.5,-64.5594 367.5,-64.5593"/>
</g>
<!-- 7 -->
<g id="node6" class="node"><title>7</title>
<polygon fill="none" stroke="black" points="201.724,-75 201.724,-111 296.276,-111 296.276,-75 201.724,-75"/>
<text text-anchor="middle" x="249" y="-87.4" font-family="Times,serif" font-size="14.00">BaseStoryApi</text>
</g>
<!-- 6&#45;&gt;7 -->
<g id="edge4" class="edge"><title>6&#45;&gt;7</title>
<path fill="none" stroke="black" d="M342.088,-37.063C325.647,-46.7659 304.858,-59.0345 287.099,-69.5152"/>
<polygon fill="none" stroke="black" points="284.961,-66.7132 278.128,-74.81 288.519,-72.7416 284.961,-66.7132"/>
</g>
<!-- 8 -->
<g id="node7" class="node"><title>8</title>
<polygon fill="none" stroke="black" points="445.527,-75 445.527,-111 636.473,-111 636.473,-75 445.527,-75"/>
<text text-anchor="middle" x="541" y="-87.4" font-family="Times,serif" font-size="14.00">AudienceAnalysisBaseHandler</text>
</g>
<!-- 6&#45;&gt;8 -->
<g id="edge6" class="edge"><title>6&#45;&gt;8</title>
<path fill="none" stroke="black" d="M411.288,-37.063C435.23,-47.2033 465.789,-60.146 491.231,-70.9215"/>
<polygon fill="none" stroke="black" points="490.134,-74.2577 500.707,-74.9349 492.864,-67.812 490.134,-74.2577"/>
</g>
<!-- 7&#45;&gt;3 -->
<g id="edge7" class="edge"><title>7&#45;&gt;3</title>
<path fill="none" stroke="black" d="M253.029,-111.063C254.969,-119.281 257.344,-129.34 259.529,-138.594"/>
<polygon fill="none" stroke="black" points="256.178,-139.631 261.882,-148.559 262.99,-138.023 256.178,-139.631"/>
</g>
<!-- 8&#45;&gt;3 -->
<g id="edge8" class="edge"><title>8&#45;&gt;3</title>
<path fill="none" stroke="black" d="M475.829,-111.063C428.429,-123.473 364.998,-140.08 320.328,-151.776"/>
<polygon fill="none" stroke="black" points="319.317,-148.423 310.53,-154.341 321.09,-155.194 319.317,-148.423"/>
</g>
<!-- 9 -->
<g id="node8" class="node"><title>9</title>
<polygon fill="none" stroke="black" points="654.679,-75 654.679,-111 801.321,-111 801.321,-75 654.679,-75"/>
<text text-anchor="middle" x="728" y="-87.4" font-family="Times,serif" font-size="14.00">ContentMetadataMixin</text>
</g>
<!-- 10 -->
<g id="node9" class="node"><title>10</title>
<polygon fill="none" stroke="black" points="673.728,-149 673.728,-185 782.272,-185 782.272,-149 673.728,-149"/>
<text text-anchor="middle" x="728" y="-161.4" font-family="Times,serif" font-size="14.00">ClickatronProxy</text>
</g>
<!-- 9&#45;&gt;10 -->
<g id="edge9" class="edge"><title>9&#45;&gt;10</title>
<path fill="none" stroke="black" d="M728,-111.063C728,-119.193 728,-129.124 728,-138.295"/>
<polygon fill="none" stroke="black" points="724.5,-138.559 728,-148.559 731.5,-138.559 724.5,-138.559"/>
</g>
<!-- 11 -->
<g id="node10" class="node"><title>11</title>
<polygon fill="none" stroke="black" points="116.392,-1 116.392,-37 249.608,-37 249.608,-1 116.392,-1"/>
<text text-anchor="middle" x="183" y="-13.4" font-family="Times,serif" font-size="14.00">TopDomainsHandler</text>
</g>
<!-- 12 -->
<g id="node11" class="node"><title>12</title>
<polygon fill="none" stroke="black" points="56.4033,-75 56.4033,-111 183.597,-111 183.597,-75 56.4033,-75"/>
<text text-anchor="middle" x="120" y="-87.4" font-family="Times,serif" font-size="14.00">InsightHandlerBase</text>
</g>
<!-- 11&#45;&gt;12 -->
<g id="edge10" class="edge"><title>11&#45;&gt;12</title>
<path fill="none" stroke="black" d="M168.07,-37.063C160.26,-45.9881 150.551,-57.0841 141.908,-66.9627"/>
<polygon fill="none" stroke="black" points="139.212,-64.7288 135.261,-74.5593 144.48,-69.3383 139.212,-64.7288"/>
</g>
<!-- 12&#45;&gt;3 -->
<g id="edge11" class="edge"><title>12&#45;&gt;3</title>
<path fill="none" stroke="black" d="M154.6,-111.063C174.891,-121.069 200.714,-133.804 222.389,-144.493"/>
<polygon fill="none" stroke="black" points="220.879,-147.651 231.396,-148.935 223.975,-141.373 220.879,-147.651"/>
</g>
<!-- 12&#45;&gt;4 -->
<g id="edge13" class="edge"><title>12&#45;&gt;4</title>
<path fill="none" stroke="black" d="M120.35,-111.034C120.862,-135.955 121.821,-182.626 122.434,-212.463"/>
<polygon fill="none" stroke="black" points="118.938,-212.696 122.643,-222.622 125.937,-212.552 118.938,-212.696"/>
</g>
<!-- 13 -->
<g id="node12" class="node"><title>13</title>
<polygon fill="none" stroke="black" points="132.386,-149 132.386,-185 203.614,-185 203.614,-149 132.386,-149"/>
<text text-anchor="middle" x="168" y="-161.4" font-family="Times,serif" font-size="14.00">ApiMixin</text>
</g>
<!-- 12&#45;&gt;13 -->
<g id="edge12" class="edge"><title>12&#45;&gt;13</title>
<path fill="none" stroke="black" d="M131.375,-111.063C137.149,-119.723 144.285,-130.427 150.72,-140.079"/>
<polygon fill="none" stroke="black" points="147.914,-142.18 156.373,-148.559 153.738,-138.297 147.914,-142.18"/>
</g>
<!-- 14 -->
<g id="node13" class="node"><title>14</title>
<polygon fill="none" stroke="black" points="480.5,-1 480.5,-37 601.5,-37 601.5,-1 480.5,-1"/>
<text text-anchor="middle" x="541" y="-13.4" font-family="Times,serif" font-size="14.00">ListPinnedContent</text>
</g>
<!-- 14&#45;&gt;2 -->
<g id="edge15" class="edge"><title>14&#45;&gt;2</title>
<path fill="none" stroke="black" d="M500.712,-37.063C476.77,-47.2033 446.211,-60.146 420.769,-70.9215"/>
<polygon fill="none" stroke="black" points="419.136,-67.812 411.293,-74.9349 421.866,-74.2577 419.136,-67.812"/>
</g>
<!-- 14&#45;&gt;8 -->
<g id="edge16" class="edge"><title>14&#45;&gt;8</title>
<path fill="none" stroke="black" d="M541,-37.063C541,-45.1928 541,-55.1239 541,-64.2953"/>
<polygon fill="none" stroke="black" points="537.5,-64.5593 541,-74.5593 544.5,-64.5594 537.5,-64.5593"/>
</g>
<!-- 14&#45;&gt;9 -->
<g id="edge14" class="edge"><title>14&#45;&gt;9</title>
<path fill="none" stroke="black" d="M585.316,-37.063C611.885,-47.2927 645.861,-60.3742 673.993,-71.2058"/>
<polygon fill="none" stroke="black" points="673.088,-74.6079 683.678,-74.9349 675.603,-68.0754 673.088,-74.6079"/>
</g>
<!-- 15 -->
<g id="node14" class="node"><title>15</title>
<polygon fill="none" stroke="black" points="-0.10791,-1 -0.10791,-37 98.1079,-37 98.1079,-1 -0.10791,-1"/>
<text text-anchor="middle" x="49" y="-13.4" font-family="Times,serif" font-size="14.00">TopicsHandler</text>
</g>
<!-- 15&#45;&gt;12 -->
<g id="edge17" class="edge"><title>15&#45;&gt;12</title>
<path fill="none" stroke="black" d="M65.826,-37.063C74.7143,-46.0765 85.7859,-57.3041 95.5994,-67.2557"/>
<polygon fill="none" stroke="black" points="93.288,-69.8965 102.802,-74.5593 98.2722,-64.9814 93.288,-69.8965"/>
</g>
<!-- 16 -->
<g id="node15" class="node"><title>16</title>
<polygon fill="none" stroke="black" points="648.4,-1 648.4,-37 747.6,-37 747.6,-1 648.4,-1"/>
<text text-anchor="middle" x="698" y="-13.4" font-family="Times,serif" font-size="14.00">RecentContent</text>
</g>
<!-- 16&#45;&gt;8 -->
<g id="edge19" class="edge"><title>16&#45;&gt;8</title>
<path fill="none" stroke="black" d="M660.793,-37.063C638.876,-47.114 610.956,-59.9181 587.585,-70.6362"/>
<polygon fill="none" stroke="black" points="585.842,-67.5849 578.211,-74.9349 588.76,-73.9477 585.842,-67.5849"/>
</g>
<!-- 16&#45;&gt;9 -->
<g id="edge18" class="edge"><title>16&#45;&gt;9</title>
<path fill="none" stroke="black" d="M705.11,-37.063C708.607,-45.4579 712.906,-55.7734 716.829,-65.19"/>
<polygon fill="none" stroke="black" points="713.656,-66.6747 720.733,-74.5593 720.118,-63.9824 713.656,-66.6747"/>
</g>
</g>
</svg>
