<?xml version="1.0" encoding="UTF-8" standalone="no"?>
<!DOCTYPE svg PUBLIC "-//W3C//DTD SVG 1.1//EN"
 "http://www.w3.org/Graphics/SVG/1.1/DTD/svg11.dtd">
<!-- Generated by graphviz version 2.26.3 (20100126.1600)
 -->
<!-- Title: classes_No_Name Pages: 1 -->
<svg width="743pt" height="268pt"
 viewBox="0.00 0.00 743.00 268.00" xmlns="http://www.w3.org/2000/svg" xmlns:xlink="http://www.w3.org/1999/xlink">
<g id="graph1" class="graph" transform="scale(1 1) rotate(0) translate(4 264)">
<title>classes_No_Name</title>
<polygon fill="white" stroke="white" points="-4,5 -4,-264 740,-264 740,5 -4,5"/>
<!-- 2 -->
<g id="node1" class="node"><title>2</title>
<polygon fill="none" stroke="black" points="33,-1 33,-37 131,-37 131,-1 33,-1"/>
<text text-anchor="middle" x="82" y="-15.4" font-family="Times Roman,serif" font-size="14.00">HotContent</text>
</g>
<!-- 3 -->
<g id="node2" class="node"><title>3</title>
<polygon fill="none" stroke="black" points="-0.5,-75 -0.5,-111 108.5,-111 108.5,-75 -0.5,-75"/>
<text text-anchor="middle" x="54" y="-89.4" font-family="Times Roman,serif" font-size="14.00">BaseStoryApi</text>
</g>
<!-- 2&#45;&gt;3 -->
<g id="edge2" class="edge"><title>2&#45;&gt;3</title>
<path fill="none" stroke="black" d="M75.0786,-37.2921C71.8575,-45.8053 67.9578,-56.1115 64.393,-65.5329"/>
<polygon fill="none" stroke="black" points="61.1072,-64.3268 60.8417,-74.9183 67.6542,-66.8041 61.1072,-64.3268"/>
</g>
<!-- 7 -->
<g id="node6" class="node"><title>7</title>
<polygon fill="none" stroke="black" points="125.5,-75 125.5,-111 348.5,-111 348.5,-75 125.5,-75"/>
<text text-anchor="middle" x="237" y="-89.4" font-family="Times Roman,serif" font-size="14.00">AudienceAnalysisBaseHandler</text>
</g>
<!-- 2&#45;&gt;7 -->
<g id="edge4" class="edge"><title>2&#45;&gt;7</title>
<path fill="none" stroke="black" d="M119.917,-37.1024C141.107,-47.2187 167.693,-59.9113 190.173,-70.6438"/>
<polygon fill="none" stroke="black" points="188.674,-73.8064 199.206,-74.9564 191.69,-67.4894 188.674,-73.8064"/>
</g>
<!-- 4 -->
<g id="node3" class="node"><title>4</title>
<polygon fill="none" stroke="black" points="236,-149 236,-185 340,-185 340,-149 236,-149"/>
<text text-anchor="middle" x="288" y="-163.4" font-family="Times Roman,serif" font-size="14.00">BaseHandler</text>
</g>
<!-- 3&#45;&gt;4 -->
<g id="edge6" class="edge"><title>3&#45;&gt;4</title>
<path fill="none" stroke="black" d="M108.567,-110.256C143.775,-121.39 189.65,-135.898 226.2,-147.456"/>
<polygon fill="none" stroke="black" points="225.171,-150.802 235.761,-150.48 227.282,-144.128 225.171,-150.802"/>
</g>
<!-- 5 -->
<g id="node4" class="node"><title>5</title>
<polygon fill="none" stroke="black" points="471,-223 471,-259 593,-259 593,-223 471,-223"/>
<text text-anchor="middle" x="532" y="-237.4" font-family="Times Roman,serif" font-size="14.00">ArgumentMixin</text>
</g>
<!-- 4&#45;&gt;5 -->
<g id="edge8" class="edge"><title>4&#45;&gt;5</title>
<path fill="none" stroke="black" d="M340.045,-182.784C375.785,-193.623 423.624,-208.132 462.602,-219.953"/>
<polygon fill="none" stroke="black" points="461.722,-223.344 472.308,-222.897 463.754,-216.645 461.722,-223.344"/>
</g>
<!-- 6 -->
<g id="node5" class="node"><title>6</title>
<polygon fill="none" stroke="black" points="225,-223 225,-259 351,-259 351,-223 225,-223"/>
<text text-anchor="middle" x="288" y="-237.4" font-family="Times Roman,serif" font-size="14.00">RequestHandler</text>
</g>
<!-- 4&#45;&gt;6 -->
<g id="edge10" class="edge"><title>4&#45;&gt;6</title>
<path fill="none" stroke="black" d="M288,-185.292C288,-193.536 288,-203.462 288,-212.638"/>
<polygon fill="none" stroke="black" points="284.5,-212.918 288,-222.918 291.5,-212.918 284.5,-212.918"/>
</g>
<!-- 7&#45;&gt;4 -->
<g id="edge12" class="edge"><title>7&#45;&gt;4</title>
<path fill="none" stroke="black" d="M249.607,-111.292C255.659,-120.074 263.027,-130.764 269.683,-140.423"/>
<polygon fill="none" stroke="black" points="266.982,-142.671 275.538,-148.918 272.745,-138.698 266.982,-142.671"/>
</g>
<!-- 8 -->
<g id="node7" class="node"><title>8</title>
<polygon fill="none" stroke="black" points="581,-1 581,-37 735,-37 735,-1 581,-1"/>
<text text-anchor="middle" x="658" y="-15.4" font-family="Times Roman,serif" font-size="14.00">TopDomainsHandler</text>
</g>
<!-- 9 -->
<g id="node8" class="node"><title>9</title>
<polygon fill="none" stroke="black" points="507.5,-75 507.5,-111 658.5,-111 658.5,-75 507.5,-75"/>
<text text-anchor="middle" x="583" y="-89.4" font-family="Times Roman,serif" font-size="14.00">InsightHandlerBase</text>
</g>
<!-- 8&#45;&gt;9 -->
<g id="edge14" class="edge"><title>8&#45;&gt;9</title>
<path fill="none" stroke="black" d="M639.461,-37.2921C630.106,-46.5222 618.615,-57.8601 608.447,-67.8926"/>
<polygon fill="none" stroke="black" points="605.986,-65.4034 601.326,-74.9183 610.903,-70.3862 605.986,-65.4034"/>
</g>
<!-- 9&#45;&gt;4 -->
<g id="edge16" class="edge"><title>9&#45;&gt;4</title>
<path fill="none" stroke="black" d="M511.212,-111.008C461.853,-123.389 396.975,-139.664 349.893,-151.474"/>
<polygon fill="none" stroke="black" points="348.976,-148.096 340.129,-153.924 350.68,-154.885 348.976,-148.096"/>
</g>
<!-- 9&#45;&gt;5 -->
<g id="edge20" class="edge"><title>9&#45;&gt;5</title>
<path fill="none" stroke="black" d="M581.043,-111.319C578.593,-130.439 573.51,-161.055 564,-186 560.32,-195.653 555.058,-205.593 549.862,-214.322"/>
<polygon fill="none" stroke="black" points="546.828,-212.573 544.539,-222.917 552.779,-216.258 546.828,-212.573"/>
</g>
<!-- 10 -->
<g id="node9" class="node"><title>10</title>
<polygon fill="none" stroke="black" points="480.5,-149 480.5,-185 555.5,-185 555.5,-149 480.5,-149"/>
<text text-anchor="middle" x="518" y="-163.4" font-family="Times Roman,serif" font-size="14.00">ApiMixin</text>
</g>
<!-- 9&#45;&gt;10 -->
<g id="edge18" class="edge"><title>9&#45;&gt;10</title>
<path fill="none" stroke="black" d="M566.933,-111.292C558.983,-120.343 549.252,-131.421 540.568,-141.307"/>
<polygon fill="none" stroke="black" points="537.852,-139.095 533.883,-148.918 543.112,-143.715 537.852,-139.095"/>
</g>
<!-- 11 -->
<g id="node10" class="node"><title>11</title>
<polygon fill="none" stroke="black" points="452.5,-1 452.5,-37 563.5,-37 563.5,-1 452.5,-1"/>
<text text-anchor="middle" x="508" y="-15.4" font-family="Times Roman,serif" font-size="14.00">TopicsHandler</text>
</g>
<!-- 11&#45;&gt;9 -->
<g id="edge22" class="edge"><title>11&#45;&gt;9</title>
<path fill="none" stroke="black" d="M526.539,-37.2921C535.894,-46.5222 547.385,-57.8601 557.553,-67.8926"/>
<polygon fill="none" stroke="black" points="555.097,-70.3862 564.674,-74.9183 560.014,-65.4034 555.097,-70.3862"/>
</g>
<!-- 12 -->
<g id="node11" class="node"><title>12</title>
<polygon fill="none" stroke="black" points="246,-1 246,-37 366,-37 366,-1 246,-1"/>
<text text-anchor="middle" x="306" y="-15.4" font-family="Times Roman,serif" font-size="14.00">RecentContent</text>
</g>
<!-- 12&#45;&gt;7 -->
<g id="edge24" class="edge"><title>12&#45;&gt;7</title>
<path fill="none" stroke="black" d="M288.944,-37.2921C280.421,-46.4326 269.971,-57.6401 260.684,-67.6"/>
<polygon fill="none" stroke="black" points="258.12,-65.2175 253.86,-74.9183 263.24,-69.9913 258.12,-65.2175"/>
</g>
<!-- 13 -->
<g id="node12" class="node"><title>13</title>
<polygon fill="none" stroke="black" points="366,-75 366,-111 490,-111 490,-75 366,-75"/>
<text text-anchor="middle" x="428" y="-89.4" font-family="Times Roman,serif" font-size="14.00">ClickatronProxy</text>
</g>
<!-- 12&#45;&gt;13 -->
<g id="edge26" class="edge"><title>12&#45;&gt;13</title>
<path fill="none" stroke="black" d="M335.845,-37.1024C351.944,-46.8675 372.001,-59.0332 389.288,-69.5192"/>
<polygon fill="none" stroke="black" points="387.675,-72.6343 398.041,-74.828 391.306,-66.6493 387.675,-72.6343"/>
</g>
</g>
</svg>
