<?xml version="1.0" encoding="UTF-8" standalone="no"?>
<!DOCTYPE svg PUBLIC "-//W3C//DTD SVG 1.1//EN"
 "http://www.w3.org/Graphics/SVG/1.1/DTD/svg11.dtd">
<!-- Generated by graphviz version 2.34.0 (20131025.1804)
 -->
<!-- Title: classes_No_Name Pages: 1 -->
<svg width="653pt" height="268pt"
 viewBox="0.00 0.00 653.00 268.00" xmlns="http://www.w3.org/2000/svg" xmlns:xlink="http://www.w3.org/1999/xlink">
<g id="graph0" class="graph" transform="scale(1 1) rotate(0) translate(4 264)">
<title>classes_No_Name</title>
<polygon fill="white" stroke="white" points="-4,4 -4,-264 649,-264 649,4 -4,4"/>
<!-- 2 -->
<g id="node1" class="node"><title>2</title>
<polygon fill="none" stroke="black" points="32.3345,-1 32.3345,-37 113.666,-37 113.666,-1 32.3345,-1"/>
<text text-anchor="middle" x="73" y="-13.4" font-family="Times,serif" font-size="14.00">HotContent</text>
</g>
<!-- 3 -->
<g id="node2" class="node"><title>3</title>
<polygon fill="none" stroke="black" points="-0.275879,-75 -0.275879,-111 94.2759,-111 94.2759,-75 -0.275879,-75"/>
<text text-anchor="middle" x="47" y="-87.4" font-family="Times,serif" font-size="14.00">BaseStoryApi</text>
</g>
<!-- 2&#45;&gt;3 -->
<g id="edge1" class="edge"><title>2&#45;&gt;3</title>
<path fill="none" stroke="black" d="M66.8384,-37.063C63.8388,-45.3695 60.1602,-55.5565 56.7889,-64.8923"/>
<polygon fill="none" stroke="black" points="53.4026,-63.965 53.298,-74.5593 59.9865,-66.3426 53.4026,-63.965"/>
</g>
<!-- 7 -->
<g id="node6" class="node"><title>7</title>
<polygon fill="none" stroke="black" points="112.527,-75 112.527,-111 303.473,-111 303.473,-75 112.527,-75"/>
<text text-anchor="middle" x="208" y="-87.4" font-family="Times,serif" font-size="14.00">AudienceAnalysisBaseHandler</text>
</g>
<!-- 2&#45;&gt;7 -->
<g id="edge2" class="edge"><title>2&#45;&gt;7</title>
<path fill="none" stroke="black" d="M104.993,-37.063C123.52,-46.9439 147.035,-59.4856 166.919,-70.0903"/>
<polygon fill="none" stroke="black" points="165.298,-73.1923 175.769,-74.81 168.592,-67.0158 165.298,-73.1923"/>
</g>
<!-- 4 -->
<g id="node3" class="node"><title>4</title>
<polygon fill="none" stroke="black" points="208.848,-149 208.848,-185 297.152,-185 297.152,-149 208.848,-149"/>
<text text-anchor="middle" x="253" y="-161.4" font-family="Times,serif" font-size="14.00">BaseHandler</text>
</g>
<!-- 3&#45;&gt;4 -->
<g id="edge3" class="edge"><title>3&#45;&gt;4</title>
<path fill="none" stroke="black" d="M94.5192,-110.609C125.639,-121.486 166.391,-135.729 198.777,-147.048"/>
<polygon fill="none" stroke="black" points="197.945,-150.465 208.539,-150.46 200.254,-143.857 197.945,-150.465"/>
</g>
<!-- 5 -->
<g id="node4" class="node"><title>5</title>
<polygon fill="none" stroke="black" points="413.626,-223 413.626,-259 520.374,-259 520.374,-223 413.626,-223"/>
<text text-anchor="middle" x="467" y="-235.4" font-family="Times,serif" font-size="14.00">ArgumentMixin</text>
</g>
<!-- 4&#45;&gt;5 -->
<g id="edge4" class="edge"><title>4&#45;&gt;5</title>
<path fill="none" stroke="black" d="M297.341,-182.918C329.01,-193.573 371.986,-208.033 406.759,-219.732"/>
<polygon fill="none" stroke="black" points="405.74,-223.082 416.334,-222.953 407.972,-216.447 405.74,-223.082"/>
</g>
<!-- 6 -->
<g id="node5" class="node"><title>6</title>
<polygon fill="none" stroke="black" points="199.903,-223 199.903,-259 306.097,-259 306.097,-223 199.903,-223"/>
<text text-anchor="middle" x="253" y="-235.4" font-family="Times,serif" font-size="14.00">RequestHandler</text>
</g>
<!-- 4&#45;&gt;6 -->
<g id="edge5" class="edge"><title>4&#45;&gt;6</title>
<path fill="none" stroke="black" d="M253,-185.063C253,-193.193 253,-203.124 253,-212.295"/>
<polygon fill="none" stroke="black" points="249.5,-212.559 253,-222.559 256.5,-212.559 249.5,-212.559"/>
</g>
<!-- 7&#45;&gt;4 -->
<g id="edge6" class="edge"><title>7&#45;&gt;4</title>
<path fill="none" stroke="black" d="M218.664,-111.063C224.077,-119.723 230.767,-130.427 236.8,-140.079"/>
<polygon fill="none" stroke="black" points="233.832,-141.934 242.1,-148.559 239.768,-138.224 233.832,-141.934"/>
</g>
<!-- 8 -->
<g id="node7" class="node"><title>8</title>
<polygon fill="none" stroke="black" points="512.392,-1 512.392,-37 645.608,-37 645.608,-1 512.392,-1"/>
<text text-anchor="middle" x="579" y="-13.4" font-family="Times,serif" font-size="14.00">TopDomainsHandler</text>
</g>
<!-- 9 -->
<g id="node8" class="node"><title>9</title>
<polygon fill="none" stroke="black" points="448.403,-75 448.403,-111 575.597,-111 575.597,-75 448.403,-75"/>
<text text-anchor="middle" x="512" y="-87.4" font-family="Times,serif" font-size="14.00">InsightHandlerBase</text>
</g>
<!-- 8&#45;&gt;9 -->
<g id="edge7" class="edge"><title>8&#45;&gt;9</title>
<path fill="none" stroke="black" d="M563.122,-37.063C554.817,-45.9881 544.491,-57.0841 535.299,-66.9627"/>
<polygon fill="none" stroke="black" points="532.48,-64.8543 528.23,-74.5593 537.604,-69.6229 532.48,-64.8543"/>
</g>
<!-- 9&#45;&gt;4 -->
<g id="edge8" class="edge"><title>9&#45;&gt;4</title>
<path fill="none" stroke="black" d="M450.621,-111.063C406.997,-123.19 348.956,-139.325 307.074,-150.968"/>
<polygon fill="none" stroke="black" points="306.025,-147.627 297.328,-153.677 307.9,-154.371 306.025,-147.627"/>
</g>
<!-- 9&#45;&gt;5 -->
<g id="edge10" class="edge"><title>9&#45;&gt;5</title>
<path fill="none" stroke="black" d="M509.412,-111.259C506.339,-129.978 500.53,-160.587 492,-186 488.895,-195.251 484.678,-205.026 480.592,-213.68"/>
<polygon fill="none" stroke="black" points="477.34,-212.364 476.101,-222.886 483.632,-215.433 477.34,-212.364"/>
</g>
<!-- 10 -->
<g id="node9" class="node"><title>10</title>
<polygon fill="none" stroke="black" points="412.386,-149 412.386,-185 483.614,-185 483.614,-149 412.386,-149"/>
<text text-anchor="middle" x="448" y="-161.4" font-family="Times,serif" font-size="14.00">ApiMixin</text>
</g>
<!-- 9&#45;&gt;10 -->
<g id="edge9" class="edge"><title>9&#45;&gt;10</title>
<path fill="none" stroke="black" d="M496.833,-111.063C488.899,-119.988 479.036,-131.084 470.255,-140.963"/>
<polygon fill="none" stroke="black" points="467.531,-138.76 463.503,-148.559 472.762,-143.41 467.531,-138.76"/>
</g>
<!-- 11 -->
<g id="node10" class="node"><title>11</title>
<polygon fill="none" stroke="black" points="395.892,-1 395.892,-37 494.108,-37 494.108,-1 395.892,-1"/>
<text text-anchor="middle" x="445" y="-13.4" font-family="Times,serif" font-size="14.00">TopicsHandler</text>
</g>
<!-- 11&#45;&gt;9 -->
<g id="edge11" class="edge"><title>11&#45;&gt;9</title>
<path fill="none" stroke="black" d="M460.878,-37.063C469.183,-45.9881 479.509,-57.0841 488.701,-66.9627"/>
<polygon fill="none" stroke="black" points="486.396,-69.6229 495.77,-74.5593 491.52,-64.8543 486.396,-69.6229"/>
</g>
<!-- 12 -->
<g id="node11" class="node"><title>12</title>
<polygon fill="none" stroke="black" points="218.4,-1 218.4,-37 317.6,-37 317.6,-1 218.4,-1"/>
<text text-anchor="middle" x="268" y="-13.4" font-family="Times,serif" font-size="14.00">RecentContent</text>
</g>
<!-- 12&#45;&gt;7 -->
<g id="edge12" class="edge"><title>12&#45;&gt;7</title>
<path fill="none" stroke="black" d="M253.781,-37.063C246.417,-45.8997 237.279,-56.8646 229.109,-66.6689"/>
<polygon fill="none" stroke="black" points="226.247,-64.6364 222.534,-74.5593 231.625,-69.1177 226.247,-64.6364"/>
</g>
<!-- 13 -->
<g id="node12" class="node"><title>13</title>
<polygon fill="none" stroke="black" points="321.728,-75 321.728,-111 430.272,-111 430.272,-75 321.728,-75"/>
<text text-anchor="middle" x="376" y="-87.4" font-family="Times,serif" font-size="14.00">ClickatronProxy</text>
</g>
<!-- 12&#45;&gt;13 -->
<g id="edge13" class="edge"><title>12&#45;&gt;13</title>
<path fill="none" stroke="black" d="M293.594,-37.063C308.015,-46.6769 326.214,-58.8096 341.839,-69.2263"/>
<polygon fill="none" stroke="black" points="339.953,-72.1751 350.215,-74.81 343.836,-66.3507 339.953,-72.1751"/>
</g>
</g>
</svg>
