<?xml version="1.0" encoding="UTF-8" standalone="no"?>
<!DOCTYPE svg PUBLIC "-//W3C//DTD SVG 1.1//EN"
 "http://www.w3.org/Graphics/SVG/1.1/DTD/svg11.dtd">
<!-- Generated by graphviz version 2.26.3 (20100126.1600)
 -->
<!-- Title: classes_No_Name Pages: 1 -->
<svg width="676pt" height="268pt"
 viewBox="0.00 0.00 676.00 268.00" xmlns="http://www.w3.org/2000/svg" xmlns:xlink="http://www.w3.org/1999/xlink">
<g id="graph1" class="graph" transform="scale(1 1) rotate(0) translate(4 264)">
<title>classes_No_Name</title>
<polygon fill="white" stroke="white" points="-4,5 -4,-264 673,-264 673,5 -4,5"/>
<!-- 11 -->
<g id="node1" class="node"><title>11</title>
<polygon fill="yellow" stroke="black" points="119.5,-1 119.5,-37 208.5,-37 208.5,-1 119.5,-1"/>
<text text-anchor="middle" x="164" y="-15.4" font-family="Times Roman,serif" font-size="14.00">FruitsView</text>
</g>
<!-- 9 -->
<g id="node9" class="node"><title>9</title>
<polygon fill="aquamarine" stroke="black" points="33.5,-75 33.5,-111 172.5,-111 172.5,-75 33.5,-75"/>
<text text-anchor="middle" x="103" y="-89.4" font-family="Times Roman,serif" font-size="14.00">ProduceViewBase</text>
</g>
<!-- 11&#45;&gt;9 -->
<g id="edge20" class="edge"><title>11&#45;&gt;9</title>
<path fill="none" stroke="black" d="M148.921,-37.2921C141.534,-46.2534 132.51,-57.2014 124.422,-67.0127"/>
<polygon fill="none" stroke="black" points="121.565,-64.9757 117.905,-74.9183 126.967,-69.4282 121.565,-64.9757"/>
</g>
<!-- 8 -->
<g id="node2" class="node"><title>8</title>
<polygon fill="yellow" stroke="black" points="-0.5,-1 -0.5,-37 102.5,-37 102.5,-1 -0.5,-1"/>
<text text-anchor="middle" x="51" y="-15.4" font-family="Times Roman,serif" font-size="14.00">VeggiesView</text>
</g>
<!-- 8&#45;&gt;9 -->
<g id="edge12" class="edge"><title>8&#45;&gt;9</title>
<path fill="none" stroke="black" d="M63.8539,-37.2921C70.088,-46.1637 77.6905,-56.9826 84.5316,-66.718"/>
<polygon fill="none" stroke="black" points="81.6807,-68.7487 90.2939,-74.9183 87.4081,-64.724 81.6807,-68.7487"/>
</g>
<!-- 2 -->
<g id="node3" class="node"><title>2</title>
<polygon fill="yellow" stroke="black" points="272.5,-1 272.5,-37 351.5,-37 351.5,-1 272.5,-1"/>
<text text-anchor="middle" x="312" y="-15.4" font-family="Times Roman,serif" font-size="14.00">TofuView</text>
</g>
<!-- 3 -->
<g id="node4" class="node"><title>3</title>
<polygon fill="aquamarine" stroke="black" points="190,-75 190,-111 328,-111 328,-75 190,-75"/>
<text text-anchor="middle" x="259" y="-89.4" font-family="Times Roman,serif" font-size="14.00">LegumeViewBase</text>
</g>
<!-- 2&#45;&gt;3 -->
<g id="edge26" class="edge"><title>2&#45;&gt;3</title>
<path fill="none" stroke="black" d="M298.899,-37.2921C292.545,-46.1637 284.796,-56.9826 277.824,-66.718"/>
<polygon fill="none" stroke="black" points="274.928,-64.7504 271.95,-74.9183 280.619,-68.8263 274.928,-64.7504"/>
</g>
<!-- 7 -->
<g id="node8" class="node"><title>7</title>
<polygon fill="aquamarine" stroke="black" points="345.5,-75 345.5,-111 478.5,-111 478.5,-75 345.5,-75"/>
<text text-anchor="middle" x="412" y="-89.4" font-family="Times Roman,serif" font-size="14.00">ProteinViewBase</text>
</g>
<!-- 2&#45;&gt;7 -->
<g id="edge2" class="edge"><title>2&#45;&gt;7</title>
<path fill="none" stroke="black" d="M336.463,-37.1024C349.296,-46.5988 365.196,-58.3653 379.094,-68.6496"/>
<polygon fill="none" stroke="black" points="377.323,-71.693 387.443,-74.828 381.487,-66.0661 377.323,-71.693"/>
</g>
<!-- 4 -->
<g id="node5" class="node"><title>4</title>
<polygon fill="none" stroke="black" points="217,-149 217,-185 301,-185 301,-149 217,-149"/>
<text text-anchor="middle" x="259" y="-163.4" font-family="Times Roman,serif" font-size="14.00">ViewBase</text>
</g>
<!-- 3&#45;&gt;4 -->
<g id="edge4" class="edge"><title>3&#45;&gt;4</title>
<path fill="none" stroke="black" d="M259,-111.292C259,-119.536 259,-129.462 259,-138.638"/>
<polygon fill="none" stroke="black" points="255.5,-138.918 259,-148.918 262.5,-138.918 255.5,-138.918"/>
</g>
<!-- 5 -->
<g id="node6" class="node"><title>5</title>
<polygon fill="none" stroke="black" points="24,-223 24,-259 146,-259 146,-223 24,-223"/>
<text text-anchor="middle" x="85" y="-237.4" font-family="Times Roman,serif" font-size="14.00">ArgumentMixin</text>
</g>
<!-- 4&#45;&gt;5 -->
<g id="edge6" class="edge"><title>4&#45;&gt;5</title>
<path fill="none" stroke="black" d="M216.879,-184.913C192.8,-195.154 162.404,-208.081 136.863,-218.943"/>
<polygon fill="none" stroke="black" points="135.168,-215.861 127.336,-222.995 137.908,-222.302 135.168,-215.861"/>
</g>
<!-- 6 -->
<g id="node7" class="node"><title>6</title>
<polygon fill="none" stroke="black" points="206,-223 206,-259 312,-259 312,-223 206,-223"/>
<text text-anchor="middle" x="259" y="-237.4" font-family="Times Roman,serif" font-size="14.00">RequestView</text>
</g>
<!-- 4&#45;&gt;6 -->
<g id="edge8" class="edge"><title>4&#45;&gt;6</title>
<path fill="none" stroke="black" d="M259,-185.292C259,-193.536 259,-203.462 259,-212.638"/>
<polygon fill="none" stroke="black" points="255.5,-212.918 259,-222.918 262.5,-212.918 255.5,-212.918"/>
</g>
<!-- 7&#45;&gt;4 -->
<g id="edge10" class="edge"><title>7&#45;&gt;4</title>
<path fill="none" stroke="black" d="M374.572,-111.102C353.749,-121.174 327.646,-133.798 305.519,-144.501"/>
<polygon fill="none" stroke="black" points="303.785,-141.451 296.306,-148.956 306.833,-147.753 303.785,-141.451"/>
</g>
<!-- 9&#45;&gt;4 -->
<g id="edge14" class="edge"><title>9&#45;&gt;4</title>
<path fill="none" stroke="black" d="M141.162,-111.102C162.488,-121.219 189.245,-133.911 211.871,-144.644"/>
<polygon fill="none" stroke="black" points="210.427,-147.833 220.962,-148.956 213.427,-141.508 210.427,-147.833"/>
</g>
<!-- 9&#45;&gt;5 -->
<g id="edge18" class="edge"><title>9&#45;&gt;5</title>
<path fill="none" stroke="black" d="M84.8198,-111.097C76.1007,-121.071 66.5747,-134.209 62,-148 54.776,-169.778 62.0167,-195.091 70.2305,-213.805"/>
<polygon fill="none" stroke="black" points="67.1075,-215.388 74.543,-222.936 73.4371,-212.399 67.1075,-215.388"/>
</g>
<!-- 10 -->
<g id="node10" class="node"><title>10</title>
<polygon fill="wheat" stroke="black" points="70.5,-149 70.5,-185 199.5,-185 199.5,-149 70.5,-149"/>
<text text-anchor="middle" x="135" y="-163.4" font-family="Times Roman,serif" font-size="14.00">ProduceDBMixin</text>
</g>
<!-- 9&#45;&gt;10 -->
<g id="edge16" class="edge"><title>9&#45;&gt;10</title>
<path fill="none" stroke="black" d="M110.91,-111.292C114.591,-119.805 119.048,-130.112 123.122,-139.533"/>
<polygon fill="none" stroke="black" points="119.999,-141.129 127.181,-148.918 126.424,-138.35 119.999,-141.129"/>
</g>
<!-- 12 -->
<g id="node11" class="node"><title>12</title>
<polygon fill="yellow" stroke="black" points="423.5,-1 423.5,-37 524.5,-37 524.5,-1 423.5,-1"/>
<text text-anchor="middle" x="474" y="-15.4" font-family="Times Roman,serif" font-size="14.00">CheeseView</text>
</g>
<!-- 12&#45;&gt;7 -->
<g id="edge22" class="edge"><title>12&#45;&gt;7</title>
<path fill="none" stroke="black" d="M458.674,-37.2921C451.166,-46.2534 441.993,-57.2014 433.773,-67.0127"/>
<polygon fill="none" stroke="black" points="430.889,-65.0053 427.15,-74.9183 436.255,-69.5008 430.889,-65.0053"/>
</g>
<!-- 13 -->
<g id="node12" class="node"><title>13</title>
<polygon fill="wheat" stroke="black" points="496,-75 496,-111 668,-111 668,-75 496,-75"/>
<text text-anchor="middle" x="582" y="-89.4" font-family="Times Roman,serif" font-size="14.00">FoodMetadataDBMixin</text>
</g>
<!-- 12&#45;&gt;13 -->
<g id="edge24" class="edge"><title>12&#45;&gt;13</title>
<path fill="none" stroke="black" d="M500.42,-37.1024C514.41,-46.6883 531.776,-58.5875 546.886,-68.9403"/>
<polygon fill="none" stroke="black" points="545.251,-72.0629 555.479,-74.828 549.208,-66.2884 545.251,-72.0629"/>
</g>
</g>
</svg>
