<?xml version="1.0" encoding="UTF-8" standalone="no"?>
<!DOCTYPE svg PUBLIC "-//W3C//DTD SVG 1.1//EN"
 "http://www.w3.org/Graphics/SVG/1.1/DTD/svg11.dtd">
<!-- Generated by graphviz version 10.0.1 (20240210.2158)
 -->
<!-- Title: classes_No_Name Pages: 1 -->
<svg width="586pt" height="264pt"
 viewBox="0.00 0.00 585.62 264.00" xmlns="http://www.w3.org/2000/svg" xmlns:xlink="http://www.w3.org/1999/xlink">
<g id="graph0" class="graph" transform="scale(1 1) rotate(0) translate(4 260)">
<title>classes_No_Name</title>
<polygon fill="white" stroke="none" points="-4,4 -4,-260 581.62,-260 581.62,4 -4,4"/>
<!-- 11 -->
<g id="node1" class="node">
<title>11</title>
<polygon fill="yellow" stroke="black" points="105.62,-0.5 105.62,-36.5 182.38,-36.5 182.38,-0.5 105.62,-0.5"/>
<text text-anchor="middle" x="144" y="-13.45" font-family="Times,serif" font-size="14.00">FruitsView</text>
</g>
<!-- 9 -->
<g id="node9" class="node">
<title>9</title>
<polygon fill="aquamarine" stroke="black" points="33.12,-73.5 33.12,-109.5 148.88,-109.5 148.88,-73.5 33.12,-73.5"/>
<text text-anchor="middle" x="91" y="-86.45" font-family="Times,serif" font-size="14.00">ProduceViewBase</text>
</g>
<!-- 11&#45;&gt;9 -->
<g id="edge10" class="edge">
<title>11&#45;&gt;9</title>
<path fill="none" stroke="black" d="M131.17,-36.69C124.99,-44.97 117.43,-55.09 110.55,-64.31"/>
<polygon fill="none" stroke="black" points="107.79,-62.15 104.62,-72.26 113.4,-66.34 107.79,-62.15"/>
</g>
<!-- 8 -->
<g id="node2" class="node">
<title>8</title>
<polygon fill="yellow" stroke="black" points="0,-0.5 0,-36.5 88,-36.5 88,-0.5 0,-0.5"/>
<text text-anchor="middle" x="44" y="-13.45" font-family="Times,serif" font-size="14.00">VeggiesView</text>
</g>
<!-- 8&#45;&gt;9 -->
<g id="edge6" class="edge">
<title>8&#45;&gt;9</title>
<path fill="none" stroke="black" d="M55.38,-36.69C60.8,-44.88 67.42,-54.88 73.47,-64.02"/>
<polygon fill="none" stroke="black" points="70.45,-65.8 78.89,-72.21 76.29,-61.94 70.45,-65.8"/>
</g>
<!-- 2 -->
<g id="node3" class="node">
<title>2</title>
<polygon fill="yellow" stroke="black" points="237.25,-0.5 237.25,-36.5 308.75,-36.5 308.75,-0.5 237.25,-0.5"/>
<text text-anchor="middle" x="273" y="-13.45" font-family="Times,serif" font-size="14.00">TofuView</text>
</g>
<!-- 3 -->
<g id="node4" class="node">
<title>3</title>
<polygon fill="aquamarine" stroke="black" points="166.75,-73.5 166.75,-109.5 283.25,-109.5 283.25,-73.5 166.75,-73.5"/>
<text text-anchor="middle" x="225" y="-86.45" font-family="Times,serif" font-size="14.00">LegumeViewBase</text>
</g>
<!-- 2&#45;&gt;3 -->
<g id="edge13" class="edge">
<title>2&#45;&gt;3</title>
<path fill="none" stroke="black" d="M261.38,-36.69C255.84,-44.88 249.08,-54.88 242.91,-64.02"/>
<polygon fill="none" stroke="black" points="240.06,-61.97 237.36,-72.22 245.86,-65.89 240.06,-61.97"/>
</g>
<!-- 7 -->
<g id="node8" class="node">
<title>7</title>
<polygon fill="aquamarine" stroke="black" points="301.75,-73.5 301.75,-109.5 412.25,-109.5 412.25,-73.5 301.75,-73.5"/>
<text text-anchor="middle" x="357" y="-86.45" font-family="Times,serif" font-size="14.00">ProteinViewBase</text>
</g>
<!-- 2&#45;&gt;7 -->
<g id="edge1" class="edge">
<title>2&#45;&gt;7</title>
<path fill="none" stroke="black" d="M293.33,-36.69C303.68,-45.43 316.44,-56.22 327.81,-65.83"/>
<polygon fill="none" stroke="black" points="325.51,-68.47 335.41,-72.25 330.03,-63.12 325.51,-68.47"/>
</g>
<!-- 4 -->
<g id="node5" class="node">
<title>4</title>
<polygon fill="none" stroke="black" points="189.25,-146.5 189.25,-182.5 260.75,-182.5 260.75,-146.5 189.25,-146.5"/>
<text text-anchor="middle" x="225" y="-159.45" font-family="Times,serif" font-size="14.00">ViewBase</text>
</g>
<!-- 3&#45;&gt;4 -->
<g id="edge2" class="edge">
<title>3&#45;&gt;4</title>
<path fill="none" stroke="black" d="M225,-109.69C225,-117.27 225,-126.4 225,-134.96"/>
<polygon fill="none" stroke="black" points="221.5,-134.96 225,-144.96 228.5,-134.96 221.5,-134.96"/>
</g>
<!-- 5 -->
<g id="node6" class="node">
<title>5</title>
<polygon fill="none" stroke="black" points="18.38,-219.5 18.38,-255.5 123.62,-255.5 123.62,-219.5 18.38,-219.5"/>
<text text-anchor="middle" x="71" y="-232.45" font-family="Times,serif" font-size="14.00">ArgumentMixin</text>
</g>
<!-- 4&#45;&gt;5 -->
<g id="edge3" class="edge">
<title>4&#45;&gt;5</title>
<path fill="none" stroke="black" d="M188.89,-182.15C168.1,-191.74 141.69,-203.91 119.14,-214.3"/>
<polygon fill="none" stroke="black" points="117.75,-211.09 110.13,-218.46 120.68,-217.45 117.75,-211.09"/>
</g>
<!-- 6 -->
<g id="node7" class="node">
<title>6</title>
<polygon fill="none" stroke="black" points="180.62,-219.5 180.62,-255.5 269.38,-255.5 269.38,-219.5 180.62,-219.5"/>
<text text-anchor="middle" x="225" y="-232.45" font-family="Times,serif" font-size="14.00">RequestView</text>
</g>
<!-- 4&#45;&gt;6 -->
<g id="edge4" class="edge">
<title>4&#45;&gt;6</title>
<path fill="none" stroke="black" d="M225,-182.69C225,-190.27 225,-199.4 225,-207.96"/>
<polygon fill="none" stroke="black" points="221.5,-207.96 225,-217.96 228.5,-207.96 221.5,-207.96"/>
</g>
<!-- 7&#45;&gt;4 -->
<g id="edge5" class="edge">
<title>7&#45;&gt;4</title>
<path fill="none" stroke="black" d="M324.71,-109.87C307.45,-119.15 285.99,-130.7 267.4,-140.69"/>
<polygon fill="none" stroke="black" points="265.9,-137.53 258.75,-145.35 269.21,-143.69 265.9,-137.53"/>
</g>
<!-- 9&#45;&gt;4 -->
<g id="edge7" class="edge">
<title>9&#45;&gt;4</title>
<path fill="none" stroke="black" d="M123.78,-109.87C141.3,-119.15 163.09,-130.7 181.96,-140.69"/>
<polygon fill="none" stroke="black" points="180.28,-143.77 190.76,-145.36 183.56,-137.58 180.28,-143.77"/>
</g>
<!-- 9&#45;&gt;5 -->
<g id="edge9" class="edge">
<title>9&#45;&gt;5</title>
<path fill="none" stroke="black" d="M73.26,-109.54C64.43,-119.28 54.66,-132.26 50,-146 43.01,-166.62 49.23,-190.66 56.67,-208.77"/>
<polygon fill="none" stroke="black" points="53.45,-210.14 60.74,-217.82 59.83,-207.27 53.45,-210.14"/>
</g>
<!-- 10 -->
<g id="node10" class="node">
<title>10</title>
<polygon fill="wheat" stroke="black" points="58.62,-146.5 58.62,-182.5 171.38,-182.5 171.38,-146.5 58.62,-146.5"/>
<text text-anchor="middle" x="115" y="-159.45" font-family="Times,serif" font-size="14.00">ProduceDBMixin</text>
</g>
<!-- 9&#45;&gt;10 -->
<g id="edge8" class="edge">
<title>9&#45;&gt;10</title>
<path fill="none" stroke="black" d="M96.81,-109.69C99.46,-117.54 102.67,-127.03 105.65,-135.84"/>
<polygon fill="none" stroke="black" points="102.24,-136.68 108.76,-145.04 108.87,-134.44 102.24,-136.68"/>
</g>
<!-- 12 -->
<g id="node11" class="node">
<title>12</title>
<polygon fill="yellow" stroke="black" points="370.88,-0.5 370.88,-36.5 455.12,-36.5 455.12,-0.5 370.88,-0.5"/>
<text text-anchor="middle" x="413" y="-13.45" font-family="Times,serif" font-size="14.00">CheeseView</text>
</g>
<!-- 12&#45;&gt;7 -->
<g id="edge11" class="edge">
<title>12&#45;&gt;7</title>
<path fill="none" stroke="black" d="M399.44,-36.69C392.84,-45.06 384.76,-55.3 377.43,-64.6"/>
<polygon fill="none" stroke="black" points="374.81,-62.26 371.37,-72.28 380.31,-66.6 374.81,-62.26"/>
</g>
<!-- 13 -->
<g id="node12" class="node">
<title>13</title>
<polygon fill="wheat" stroke="black" points="430.38,-73.5 430.38,-109.5 577.62,-109.5 577.62,-73.5 430.38,-73.5"/>
<text text-anchor="middle" x="504" y="-86.45" font-family="Times,serif" font-size="14.00">FoodMetadataDBMixin</text>
</g>
<!-- 12&#45;&gt;13 -->
<g id="edge12" class="edge">
<title>12&#45;&gt;13</title>
<path fill="none" stroke="black" d="M435.03,-36.69C446.46,-45.6 460.61,-56.64 473.11,-66.4"/>
<polygon fill="none" stroke="black" points="470.63,-68.9 480.67,-72.29 474.93,-63.38 470.63,-68.9"/>
</g>
</g>
</svg>
