<?xml version="1.0" encoding="UTF-8" standalone="no"?>
<!DOCTYPE svg PUBLIC "-//W3C//DTD SVG 1.1//EN"
 "http://www.w3.org/Graphics/SVG/1.1/DTD/svg11.dtd">
<!-- Generated by graphviz version 2.34.0 (20131025.1804)
 -->
<!-- Title: classes_No_Name Pages: 1 -->
<svg width="628pt" height="342pt"
 viewBox="0.00 0.00 628.00 342.00" xmlns="http://www.w3.org/2000/svg" xmlns:xlink="http://www.w3.org/1999/xlink">
<g id="graph0" class="graph" transform="scale(1 1) rotate(0) translate(4 338)">
<title>classes_No_Name</title>
<polygon fill="white" stroke="white" points="-4,4 -4,-338 624,-338 624,4 -4,4"/>
<!-- 2 -->
<g id="node1" class="node"><title>2</title>
<polygon fill="none" stroke="black" points="243.458,-1 243.458,-37 360.542,-37 360.542,-1 243.458,-1"/>
<text text-anchor="middle" x="302" y="-13.4" font-family="Times,serif" font-size="14.00">Item_w__name__</text>
</g>
<!-- 3 -->
<g id="node2" class="node"><title>3</title>
<polygon fill="none" stroke="black" points="288,-75 288,-111 342,-111 342,-75 288,-75"/>
<text text-anchor="middle" x="314.828" y="-87.4" font-family="Times,serif" font-size="14.00">Item</text>
</g>
<!-- 2&#45;&gt;3 -->
<g id="edge1" class="edge"><title>2&#45;&gt;3</title>
<path fill="none" stroke="black" d="M305.081,-37.063C306.565,-45.2812 308.381,-55.34 310.052,-64.5941"/>
<polygon fill="none" stroke="black" points="306.63,-65.3404 311.851,-74.5593 313.518,-64.0965 306.63,-65.3404"/>
</g>
<!-- 4 -->
<g id="node3" class="node"><title>4</title>
<polygon fill="none" stroke="black" points="11.9551,-149 11.9551,-185 80.0449,-185 80.0449,-149 11.9551,-149"/>
<text text-anchor="middle" x="46" y="-161.4" font-family="Times,serif" font-size="14.00">Resource</text>
</g>
<!-- 3&#45;&gt;4 -->
<g id="edge2" class="edge"><title>3&#45;&gt;4</title>
<path fill="none" stroke="black" d="M287.821,-99.0134C246.734,-106.908 166.322,-123.588 89.864,-147.977"/>
<polygon fill="none" stroke="black" points="88.5125,-144.735 80.0788,-151.148 90.6708,-151.394 88.5125,-144.735"/>
</g>
<!-- 7 -->
<g id="node6" class="node"><title>7</title>
<polygon fill="none" stroke="black" points="98.3931,-149 98.3931,-185 183.607,-185 183.607,-149 98.3931,-149"/>
<text text-anchor="middle" x="141" y="-161.4" font-family="Times,serif" font-size="14.00">CopySource</text>
</g>
<!-- 3&#45;&gt;7 -->
<g id="edge3" class="edge"><title>3&#45;&gt;7</title>
<path fill="none" stroke="black" d="M287.812,-105.25C262.173,-115.859 223.1,-132.028 191.708,-145.017"/>
<polygon fill="none" stroke="black" points="190.137,-141.879 182.236,-148.937 192.814,-148.347 190.137,-141.879"/>
</g>
<!-- 8 -->
<g id="node7" class="node"><title>8</title>
<polygon fill="none" stroke="black" points="202,-149 202,-185 256,-185 256,-149 202,-149"/>
<text text-anchor="middle" x="228.618" y="-161.4" font-family="Times,serif" font-size="14.00">Tabs</text>
</g>
<!-- 3&#45;&gt;8 -->
<g id="edge4" class="edge"><title>3&#45;&gt;8</title>
<path fill="none" stroke="black" d="M294.619,-111.063C283.455,-120.41 269.447,-132.137 257.243,-142.354"/>
<polygon fill="none" stroke="black" points="254.953,-139.707 249.533,-148.81 259.447,-145.074 254.953,-139.707"/>
</g>
<!-- 9 -->
<g id="node8" class="node"><title>9</title>
<polygon fill="none" stroke="black" points="274.208,-149 274.208,-185 355.792,-185 355.792,-149 274.208,-149"/>
<text text-anchor="middle" x="315" y="-161.4" font-family="Times,serif" font-size="14.00">Traversable</text>
</g>
<!-- 3&#45;&gt;9 -->
<g id="edge5" class="edge"><title>3&#45;&gt;9</title>
<path fill="none" stroke="black" d="M315,-111.063C315,-119.193 315,-129.124 315,-138.295"/>
<polygon fill="none" stroke="black" points="311.5,-138.559 315,-148.559 318.5,-138.559 311.5,-138.559"/>
</g>
<!-- 10 -->
<g id="node9" class="node"><title>10</title>
<polygon fill="none" stroke="black" points="373.676,-149 373.676,-185 436.324,-185 436.324,-149 373.676,-149"/>
<text text-anchor="middle" x="405" y="-161.4" font-family="Times,serif" font-size="14.00">Element</text>
</g>
<!-- 3&#45;&gt;10 -->
<g id="edge6" class="edge"><title>3&#45;&gt;10</title>
<path fill="none" stroke="black" d="M336.329,-111.063C348.012,-120.41 362.672,-132.137 375.443,-142.354"/>
<polygon fill="none" stroke="black" points="373.517,-145.296 383.512,-148.81 377.89,-139.83 373.517,-145.296"/>
</g>
<!-- 12 -->
<g id="node11" class="node"><title>12</title>
<polygon fill="none" stroke="black" points="454.783,-149 454.783,-185 511.217,-185 511.217,-149 454.783,-149"/>
<text text-anchor="middle" x="483" y="-161.4" font-family="Times,serif" font-size="14.00">Owned</text>
</g>
<!-- 3&#45;&gt;12 -->
<g id="edge7" class="edge"><title>3&#45;&gt;12</title>
<path fill="none" stroke="black" d="M342.053,-104.79C368.462,-115.428 409.711,-132.324 445,-148 445.096,-148.043 445.192,-148.085 445.288,-148.128"/>
<polygon fill="none" stroke="black" points="443.883,-151.334 454.435,-152.287 446.78,-144.962 443.883,-151.334"/>
</g>
<!-- 13 -->
<g id="node12" class="node"><title>13</title>
<polygon fill="none" stroke="black" points="529.276,-149 529.276,-185 620.724,-185 620.724,-149 529.276,-149"/>
<text text-anchor="middle" x="575" y="-161.4" font-family="Times,serif" font-size="14.00">UndoSupport</text>
</g>
<!-- 3&#45;&gt;13 -->
<g id="edge8" class="edge"><title>3&#45;&gt;13</title>
<path fill="none" stroke="black" d="M342.011,-104.609C349.105,-107.206 356.791,-109.853 364,-112 429.266,-131.435 449.707,-129.163 519.473,-147.996"/>
<polygon fill="none" stroke="black" points="518.607,-151.387 529.177,-150.664 520.463,-144.638 518.607,-151.387"/>
</g>
<!-- 5 -->
<g id="node4" class="node"><title>5</title>
<polygon fill="none" stroke="black" points="-0.869141,-223 -0.869141,-259 92.8691,-259 92.8691,-223 -0.869141,-223"/>
<text text-anchor="middle" x="46" y="-235.4" font-family="Times,serif" font-size="14.00">LockableItem</text>
</g>
<!-- 4&#45;&gt;5 -->
<g id="edge9" class="edge"><title>4&#45;&gt;5</title>
<path fill="none" stroke="black" d="M46,-185.063C46,-193.193 46,-203.124 46,-212.295"/>
<polygon fill="none" stroke="black" points="42.5001,-212.559 46,-222.559 49.5001,-212.559 42.5001,-212.559"/>
</g>
<!-- 6 -->
<g id="node5" class="node"><title>6</title>
<polygon fill="none" stroke="black" points="3.00342,-297 3.00342,-333 88.9966,-333 88.9966,-297 3.00342,-297"/>
<text text-anchor="middle" x="46" y="-309.4" font-family="Times,serif" font-size="14.00">EtagSupport</text>
</g>
<!-- 5&#45;&gt;6 -->
<g id="edge10" class="edge"><title>5&#45;&gt;6</title>
<path fill="none" stroke="black" d="M46,-259.063C46,-267.193 46,-277.124 46,-286.295"/>
<polygon fill="none" stroke="black" points="42.5001,-286.559 46,-296.559 49.5001,-286.559 42.5001,-286.559"/>
</g>
<!-- 11 -->
<g id="node10" class="node"><title>11</title>
<polygon fill="none" stroke="black" points="378,-223 378,-259 432,-259 432,-223 378,-223"/>
<text text-anchor="middle" x="404.662" y="-235.4" font-family="Times,serif" font-size="14.00">Node</text>
</g>
<!-- 10&#45;&gt;11 -->
<g id="edge11" class="edge"><title>10&#45;&gt;11</title>
<path fill="none" stroke="black" d="M405,-185.063C405,-193.193 405,-203.124 405,-212.295"/>
<polygon fill="none" stroke="black" points="401.5,-212.559 405,-222.559 408.5,-212.559 401.5,-212.559"/>
</g>
<!-- 14 -->
<g id="node13" class="node"><title>14</title>
<polygon fill="none" stroke="black" points="378.338,-1 378.338,-37 459.662,-37 459.662,-1 378.338,-1"/>
<text text-anchor="middle" x="419" y="-13.4" font-family="Times,serif" font-size="14.00">SimpleItem</text>
</g>
<!-- 14&#45;&gt;3 -->
<g id="edge12" class="edge"><title>14&#45;&gt;3</title>
<path fill="none" stroke="black" d="M394.353,-37.063C380.595,-46.5878 363.266,-58.5851 348.314,-68.9365"/>
<polygon fill="none" stroke="black" points="346.06,-66.2401 339.83,-74.81 350.044,-71.9955 346.06,-66.2401"/>
</g>
<!-- 15 -->
<g id="node14" class="node"><title>15</title>
<polygon fill="none" stroke="black" points="372.903,-75 372.903,-111 465.097,-111 465.097,-75 372.903,-75"/>
<text text-anchor="middle" x="419" y="-87.4" font-family="Times,serif" font-size="14.00">RoleManager</text>
</g>
<!-- 14&#45;&gt;15 -->
<g id="edge13" class="edge"><title>14&#45;&gt;15</title>
<path fill="none" stroke="black" d="M419,-37.063C419,-45.1928 419,-55.1239 419,-64.2953"/>
<polygon fill="none" stroke="black" points="415.5,-64.5593 419,-74.5593 422.5,-64.5594 415.5,-64.5593"/>
</g>
</g>
</svg>
