<?xml version="1.0" encoding="UTF-8" standalone="no"?>
<!DOCTYPE svg PUBLIC "-//W3C//DTD SVG 1.1//EN"
 "http://www.w3.org/Graphics/SVG/1.1/DTD/svg11.dtd">
<!-- Generated by graphviz version 2.26.3 (20100126.1600)
 -->
<!-- Title: classes_No_Name Pages: 1 -->
<svg width="701pt" height="342pt"
 viewBox="0.00 0.00 701.00 342.00" xmlns="http://www.w3.org/2000/svg" xmlns:xlink="http://www.w3.org/1999/xlink">
<g id="graph1" class="graph" transform="scale(1 1) rotate(0) translate(4 338)">
<title>classes_No_Name</title>
<polygon fill="white" stroke="white" points="-4,5 -4,-338 698,-338 698,5 -4,5"/>
<!-- 2 -->
<g id="node1" class="node"><title>2</title>
<polygon fill="none" stroke="black" points="260.5,-1 260.5,-37 397.5,-37 397.5,-1 260.5,-1"/>
<text text-anchor="middle" x="329" y="-15.4" font-family="Times Roman,serif" font-size="14.00">Item_w__name__</text>
</g>
<!-- 3 -->
<g id="node2" class="node"><title>3</title>
<polygon fill="none" stroke="black" points="319,-75 319,-111 373,-111 373,-75 319,-75"/>
<text text-anchor="middle" x="346" y="-89.4" font-family="Times Roman,serif" font-size="14.00">Item</text>
</g>
<!-- 2&#45;&gt;3 -->
<g id="edge2" class="edge"><title>2&#45;&gt;3</title>
<path fill="none" stroke="black" d="M333.202,-37.2921C335.117,-45.6261 337.426,-55.6784 339.553,-64.9367"/>
<polygon fill="none" stroke="black" points="336.196,-65.9558 341.846,-74.9183 343.018,-64.3885 336.196,-65.9558"/>
</g>
<!-- 4 -->
<g id="node3" class="node"><title>4</title>
<polygon fill="none" stroke="black" points="14.5,-149 14.5,-185 93.5,-185 93.5,-149 14.5,-149"/>
<text text-anchor="middle" x="54" y="-163.4" font-family="Times Roman,serif" font-size="14.00">Resource</text>
</g>
<!-- 3&#45;&gt;4 -->
<g id="edge4" class="edge"><title>3&#45;&gt;4</title>
<path fill="none" stroke="black" d="M318.924,-97.6801C275.202,-105.541 186.304,-122.778 103.22,-147.828"/>
<polygon fill="none" stroke="black" points="102.181,-144.486 93.643,-150.759 104.229,-151.179 102.181,-144.486"/>
</g>
<!-- 7 -->
<g id="node6" class="node"><title>7</title>
<polygon fill="none" stroke="black" points="111,-149 111,-185 209,-185 209,-149 111,-149"/>
<text text-anchor="middle" x="160" y="-163.4" font-family="Times Roman,serif" font-size="14.00">CopySource</text>
</g>
<!-- 3&#45;&gt;7 -->
<g id="edge6" class="edge"><title>3&#45;&gt;7</title>
<path fill="none" stroke="black" d="M318.954,-103.76C291.786,-114.569 249.145,-131.534 214.866,-145.172"/>
<polygon fill="none" stroke="black" points="213.436,-141.974 205.438,-148.922 216.024,-148.478 213.436,-141.974"/>
</g>
<!-- 8 -->
<g id="node7" class="node"><title>8</title>
<polygon fill="none" stroke="black" points="227,-149 227,-185 281,-185 281,-149 227,-149"/>
<text text-anchor="middle" x="254" y="-163.4" font-family="Times Roman,serif" font-size="14.00">Tabs</text>
</g>
<!-- 3&#45;&gt;8 -->
<g id="edge8" class="edge"><title>3&#45;&gt;8</title>
<path fill="none" stroke="black" d="M323.258,-111.292C311.56,-120.701 297.139,-132.301 284.49,-142.475"/>
<polygon fill="none" stroke="black" points="282.078,-139.923 276.48,-148.918 286.466,-145.378 282.078,-139.923"/>
</g>
<!-- 9 -->
<g id="node8" class="node"><title>9</title>
<polygon fill="none" stroke="black" points="298.5,-149 298.5,-185 393.5,-185 393.5,-149 298.5,-149"/>
<text text-anchor="middle" x="346" y="-163.4" font-family="Times Roman,serif" font-size="14.00">Traversable</text>
</g>
<!-- 3&#45;&gt;9 -->
<g id="edge10" class="edge"><title>3&#45;&gt;9</title>
<path fill="none" stroke="black" d="M346,-111.292C346,-119.536 346,-129.462 346,-138.638"/>
<polygon fill="none" stroke="black" points="342.5,-138.918 346,-148.918 349.5,-138.918 342.5,-138.918"/>
</g>
<!-- 10 -->
<g id="node9" class="node"><title>10</title>
<polygon fill="none" stroke="black" points="411,-149 411,-185 485,-185 485,-149 411,-149"/>
<text text-anchor="middle" x="448" y="-163.4" font-family="Times Roman,serif" font-size="14.00">Element</text>
</g>
<!-- 3&#45;&gt;10 -->
<g id="edge12" class="edge"><title>3&#45;&gt;10</title>
<path fill="none" stroke="black" d="M370.952,-111.102C384.165,-120.688 400.567,-132.588 414.837,-142.94"/>
<polygon fill="none" stroke="black" points="412.803,-145.789 422.952,-148.828 416.913,-140.123 412.803,-145.789"/>
</g>
<!-- 12 -->
<g id="node11" class="node"><title>12</title>
<polygon fill="none" stroke="black" points="503,-149 503,-185 569,-185 569,-149 503,-149"/>
<text text-anchor="middle" x="536" y="-163.4" font-family="Times Roman,serif" font-size="14.00">Owned</text>
</g>
<!-- 3&#45;&gt;12 -->
<g id="edge14" class="edge"><title>3&#45;&gt;12</title>
<path fill="none" stroke="black" d="M373.224,-102.481C401.215,-112.367 446.223,-128.645 493.202,-147.784"/>
<polygon fill="none" stroke="black" points="492.04,-151.09 502.62,-151.649 494.698,-144.614 492.04,-151.09"/>
</g>
<!-- 13 -->
<g id="node12" class="node"><title>13</title>
<polygon fill="none" stroke="black" points="586.5,-149 586.5,-185 693.5,-185 693.5,-149 586.5,-149"/>
<text text-anchor="middle" x="640" y="-163.4" font-family="Times Roman,serif" font-size="14.00">UndoSupport</text>
</g>
<!-- 3&#45;&gt;13 -->
<g id="edge16" class="edge"><title>3&#45;&gt;13</title>
<path fill="none" stroke="black" d="M373.238,-103.411C381.732,-106.433 391.185,-109.571 400,-112 474.772,-132.608 497.965,-128.525 576.467,-147.737"/>
<polygon fill="none" stroke="black" points="575.772,-151.171 586.322,-150.199 577.468,-144.38 575.772,-151.171"/>
</g>
<!-- 5 -->
<g id="node4" class="node"><title>5</title>
<polygon fill="none" stroke="black" points="0,-223 0,-259 108,-259 108,-223 0,-223"/>
<text text-anchor="middle" x="54" y="-237.4" font-family="Times Roman,serif" font-size="14.00">LockableItem</text>
</g>
<!-- 4&#45;&gt;5 -->
<g id="edge18" class="edge"><title>4&#45;&gt;5</title>
<path fill="none" stroke="black" d="M54,-185.292C54,-193.536 54,-203.462 54,-212.638"/>
<polygon fill="none" stroke="black" points="50.5001,-212.918 54,-222.918 57.5001,-212.918 50.5001,-212.918"/>
</g>
<!-- 6 -->
<g id="node5" class="node"><title>6</title>
<polygon fill="none" stroke="black" points="2.5,-297 2.5,-333 105.5,-333 105.5,-297 2.5,-297"/>
<text text-anchor="middle" x="54" y="-311.4" font-family="Times Roman,serif" font-size="14.00">EtagSupport</text>
</g>
<!-- 5&#45;&gt;6 -->
<g id="edge20" class="edge"><title>5&#45;&gt;6</title>
<path fill="none" stroke="black" d="M54,-259.292C54,-267.536 54,-277.462 54,-286.638"/>
<polygon fill="none" stroke="black" points="50.5001,-286.918 54,-296.918 57.5001,-286.918 50.5001,-286.918"/>
</g>
<!-- 11 -->
<g id="node10" class="node"><title>11</title>
<polygon fill="none" stroke="black" points="421,-223 421,-259 475,-259 475,-223 421,-223"/>
<text text-anchor="middle" x="448" y="-237.4" font-family="Times Roman,serif" font-size="14.00">Node</text>
</g>
<!-- 10&#45;&gt;11 -->
<g id="edge22" class="edge"><title>10&#45;&gt;11</title>
<path fill="none" stroke="black" d="M448,-185.292C448,-193.536 448,-203.462 448,-212.638"/>
<polygon fill="none" stroke="black" points="444.5,-212.918 448,-222.918 451.5,-212.918 444.5,-212.918"/>
</g>
<!-- 14 -->
<g id="node13" class="node"><title>14</title>
<polygon fill="none" stroke="black" points="415,-1 415,-37 509,-37 509,-1 415,-1"/>
<text text-anchor="middle" x="462" y="-15.4" font-family="Times Roman,serif" font-size="14.00">SimpleItem</text>
</g>
<!-- 14&#45;&gt;3 -->
<g id="edge24" class="edge"><title>14&#45;&gt;3</title>
<path fill="none" stroke="black" d="M433.623,-37.1024C418.117,-46.9946 398.748,-59.3501 382.168,-69.9275"/>
<polygon fill="none" stroke="black" points="379.833,-67.2651 373.285,-75.594 383.598,-73.1666 379.833,-67.2651"/>
</g>
<!-- 15 -->
<g id="node14" class="node"><title>15</title>
<polygon fill="none" stroke="black" points="409,-75 409,-111 515,-111 515,-75 409,-75"/>
<text text-anchor="middle" x="462" y="-89.4" font-family="Times Roman,serif" font-size="14.00">RoleManager</text>
</g>
<!-- 14&#45;&gt;15 -->
<g id="edge26" class="edge"><title>14&#45;&gt;15</title>
<path fill="none" stroke="black" d="M462,-37.2921C462,-45.5365 462,-55.4624 462,-64.6378"/>
<polygon fill="none" stroke="black" points="458.5,-64.9182 462,-74.9183 465.5,-64.9183 458.5,-64.9182"/>
</g>
</g>
</svg>
