<?xml version="1.0" encoding="UTF-8" standalone="no"?>
<!DOCTYPE svg PUBLIC "-//W3C//DTD SVG 1.1//EN"
 "http://www.w3.org/Graphics/SVG/1.1/DTD/svg11.dtd">
<!-- Generated by graphviz version 10.0.1 (20240210.2158)
 -->
<!-- Title: classes_No_Name Pages: 1 -->
<svg width="635pt" height="483pt"
 viewBox="0.00 0.00 634.75 483.00" xmlns="http://www.w3.org/2000/svg" xmlns:xlink="http://www.w3.org/1999/xlink">
<g id="graph0" class="graph" transform="scale(1 1) rotate(0) translate(4 479)">
<title>classes_No_Name</title>
<polygon fill="white" stroke="none" points="-4,4 -4,-479 630.75,-479 630.75,4 -4,4"/>
<!-- 2 -->
<g id="node1" class="node">
<title>2</title>
<polygon fill="none" stroke="black" points="159.38,-0.5 159.38,-36.5 213.38,-36.5 213.38,-0.5 159.38,-0.5"/>
<text text-anchor="middle" x="186.38" y="-13.45" font-family="Times,serif" font-size="14.00">Pdata</text>
</g>
<!-- 3 -->
<g id="node2" class="node">
<title>3</title>
<polygon fill="none" stroke="black" points="231.38,-0.5 231.38,-36.5 285.38,-36.5 285.38,-0.5 231.38,-0.5"/>
<text text-anchor="middle" x="258.12" y="-13.45" font-family="Times,serif" font-size="14.00">Image</text>
</g>
<!-- 4 -->
<g id="node3" class="node">
<title>4</title>
<polygon fill="none" stroke="black" points="231.38,-73.5 231.38,-109.5 285.38,-109.5 285.38,-73.5 231.38,-73.5"/>
<text text-anchor="middle" x="258.38" y="-86.45" font-family="Times,serif" font-size="14.00">File</text>
</g>
<!-- 3&#45;&gt;4 -->
<g id="edge1" class="edge">
<title>3&#45;&gt;4</title>
<path fill="none" stroke="black" d="M258.38,-36.69C258.38,-44.27 258.38,-53.4 258.38,-61.96"/>
<polygon fill="none" stroke="black" points="254.88,-61.96 258.38,-71.96 261.88,-61.96 254.88,-61.96"/>
</g>
<!-- 5 -->
<g id="node4" class="node">
<title>5</title>
<polygon fill="none" stroke="black" points="20.75,-146.5 20.75,-182.5 132,-182.5 132,-146.5 20.75,-146.5"/>
<text text-anchor="middle" x="76.38" y="-159.45" font-family="Times,serif" font-size="14.00">PropertyManager</text>
</g>
<!-- 4&#45;&gt;5 -->
<g id="edge2" class="edge">
<title>4&#45;&gt;5</title>
<path fill="none" stroke="black" d="M231.13,-103.13C204.91,-113.36 164.5,-129.12 131.55,-141.97"/>
<polygon fill="none" stroke="black" points="130.6,-138.59 122.56,-145.48 133.14,-145.11 130.6,-138.59"/>
</g>
<!-- 9 -->
<g id="node8" class="node">
<title>9</title>
<polygon fill="none" stroke="black" points="153.25,-146.5 153.25,-182.5 243.5,-182.5 243.5,-146.5 153.25,-146.5"/>
<text text-anchor="middle" x="198.38" y="-159.45" font-family="Times,serif" font-size="14.00">RoleManager</text>
</g>
<!-- 4&#45;&gt;9 -->
<g id="edge3" class="edge">
<title>4&#45;&gt;9</title>
<path fill="none" stroke="black" d="M243.85,-109.69C236.7,-118.15 227.94,-128.52 220.02,-137.89"/>
<polygon fill="none" stroke="black" points="217.52,-135.42 213.74,-145.32 222.87,-139.94 217.52,-135.42"/>
</g>
<!-- 10 -->
<g id="node9" class="node">
<title>10</title>
<polygon fill="none" stroke="black" points="261.88,-146.5 261.88,-182.5 376.88,-182.5 376.88,-146.5 261.88,-146.5"/>
<text text-anchor="middle" x="319.38" y="-159.45" font-family="Times,serif" font-size="14.00">Item_w__name__</text>
</g>
<!-- 4&#45;&gt;10 -->
<g id="edge4" class="edge">
<title>4&#45;&gt;10</title>
<path fill="none" stroke="black" d="M273.14,-109.69C280.41,-118.15 289.32,-128.52 297.37,-137.89"/>
<polygon fill="none" stroke="black" points="294.59,-140.02 303.76,-145.32 299.9,-135.46 294.59,-140.02"/>
</g>
<!-- 20 -->
<g id="node19" class="node">
<title>20</title>
<polygon fill="none" stroke="black" points="395.25,-146.5 395.25,-182.5 467.5,-182.5 467.5,-146.5 395.25,-146.5"/>
<text text-anchor="middle" x="431.38" y="-159.45" font-family="Times,serif" font-size="14.00">Cacheable</text>
</g>
<!-- 4&#45;&gt;20 -->
<g id="edge5" class="edge">
<title>4&#45;&gt;20</title>
<path fill="none" stroke="black" d="M285.79,-103.75C312.32,-114.64 353.07,-131.36 384.71,-144.35"/>
<polygon fill="none" stroke="black" points="383.08,-147.46 393.66,-148.02 385.74,-140.99 383.08,-147.46"/>
</g>
<!-- 6 -->
<g id="node5" class="node">
<title>6</title>
<polygon fill="none" stroke="black" points="0,-219.5 0,-255.5 142.75,-255.5 142.75,-219.5 0,-219.5"/>
<text text-anchor="middle" x="71.38" y="-232.45" font-family="Times,serif" font-size="14.00">ElementWithAttributes</text>
</g>
<!-- 5&#45;&gt;6 -->
<g id="edge6" class="edge">
<title>5&#45;&gt;6</title>
<path fill="none" stroke="black" d="M75.16,-182.69C74.62,-190.36 73.97,-199.61 73.36,-208.26"/>
<polygon fill="none" stroke="black" points="69.89,-207.74 72.68,-217.96 76.87,-208.23 69.89,-207.74"/>
</g>
<!-- 7 -->
<g id="node6" class="node">
<title>7</title>
<polygon fill="none" stroke="black" points="30.5,-292.5 30.5,-328.5 92.25,-328.5 92.25,-292.5 30.5,-292.5"/>
<text text-anchor="middle" x="61.38" y="-305.45" font-family="Times,serif" font-size="14.00">Element</text>
</g>
<!-- 6&#45;&gt;7 -->
<g id="edge7" class="edge">
<title>6&#45;&gt;7</title>
<path fill="none" stroke="black" d="M68.95,-255.69C67.87,-263.36 66.57,-272.61 65.35,-281.26"/>
<polygon fill="none" stroke="black" points="61.91,-280.58 63.98,-290.97 68.85,-281.56 61.91,-280.58"/>
</g>
<!-- 8 -->
<g id="node7" class="node">
<title>8</title>
<polygon fill="none" stroke="black" points="30.38,-365.5 30.38,-401.5 84.38,-401.5 84.38,-365.5 30.38,-365.5"/>
<text text-anchor="middle" x="57" y="-378.45" font-family="Times,serif" font-size="14.00">Node</text>
</g>
<!-- 7&#45;&gt;8 -->
<g id="edge8" class="edge">
<title>7&#45;&gt;8</title>
<path fill="none" stroke="black" d="M60.41,-328.69C59.97,-336.36 59.45,-345.61 58.97,-354.26"/>
<polygon fill="none" stroke="black" points="55.49,-353.78 58.42,-363.96 62.48,-354.17 55.49,-353.78"/>
</g>
<!-- 11 -->
<g id="node10" class="node">
<title>11</title>
<polygon fill="none" stroke="black" points="293.38,-219.5 293.38,-255.5 347.38,-255.5 347.38,-219.5 293.38,-219.5"/>
<text text-anchor="middle" x="320.12" y="-232.45" font-family="Times,serif" font-size="14.00">Item</text>
</g>
<!-- 10&#45;&gt;11 -->
<g id="edge9" class="edge">
<title>10&#45;&gt;11</title>
<path fill="none" stroke="black" d="M319.62,-182.69C319.72,-190.27 319.85,-199.4 319.97,-207.96"/>
<polygon fill="none" stroke="black" points="316.47,-208.01 320.11,-217.96 323.47,-207.91 316.47,-208.01"/>
</g>
<!-- 11&#45;&gt;7 -->
<g id="edge14" class="edge">
<title>11&#45;&gt;7</title>
<path fill="none" stroke="black" d="M292.97,-243.61C253.04,-251.39 176.48,-267.57 103.37,-291.62"/>
<polygon fill="none" stroke="black" points="102.42,-288.25 94.05,-294.74 104.65,-294.88 102.42,-288.25"/>
</g>
<!-- 12 -->
<g id="node11" class="node">
<title>12</title>
<polygon fill="none" stroke="black" points="110.25,-292.5 110.25,-328.5 176.5,-328.5 176.5,-292.5 110.25,-292.5"/>
<text text-anchor="middle" x="143.38" y="-305.45" font-family="Times,serif" font-size="14.00">Resource</text>
</g>
<!-- 11&#45;&gt;12 -->
<g id="edge10" class="edge">
<title>11&#45;&gt;12</title>
<path fill="none" stroke="black" d="M292.89,-249.41C267.86,-259.36 229.6,-274.61 187.25,-291.66"/>
<polygon fill="none" stroke="black" points="186.07,-288.36 178.1,-295.35 188.69,-294.85 186.07,-288.36"/>
</g>
<!-- 15 -->
<g id="node14" class="node">
<title>15</title>
<polygon fill="none" stroke="black" points="195,-292.5 195,-328.5 277.75,-328.5 277.75,-292.5 195,-292.5"/>
<text text-anchor="middle" x="236.38" y="-305.45" font-family="Times,serif" font-size="14.00">CopySource</text>
</g>
<!-- 11&#45;&gt;15 -->
<g id="edge11" class="edge">
<title>11&#45;&gt;15</title>
<path fill="none" stroke="black" d="M300.04,-255.69C289.7,-264.43 276.94,-275.22 265.56,-284.83"/>
<polygon fill="none" stroke="black" points="263.35,-282.12 257.97,-291.25 267.87,-287.47 263.35,-282.12"/>
</g>
<!-- 16 -->
<g id="node15" class="node">
<title>16</title>
<polygon fill="none" stroke="black" points="295.38,-292.5 295.38,-328.5 349.38,-328.5 349.38,-292.5 295.38,-292.5"/>
<text text-anchor="middle" x="322" y="-305.45" font-family="Times,serif" font-size="14.00">Tabs</text>
</g>
<!-- 11&#45;&gt;16 -->
<g id="edge12" class="edge">
<title>11&#45;&gt;16</title>
<path fill="none" stroke="black" d="M320.86,-255.69C321.08,-263.36 321.34,-272.61 321.58,-281.26"/>
<polygon fill="none" stroke="black" points="318.07,-281.06 321.85,-290.96 325.07,-280.86 318.07,-281.06"/>
</g>
<!-- 17 -->
<g id="node16" class="node">
<title>17</title>
<polygon fill="none" stroke="black" points="367.5,-292.5 367.5,-328.5 447.25,-328.5 447.25,-292.5 367.5,-292.5"/>
<text text-anchor="middle" x="407.38" y="-305.45" font-family="Times,serif" font-size="14.00">Traversable</text>
</g>
<!-- 11&#45;&gt;17 -->
<g id="edge13" class="edge">
<title>11&#45;&gt;17</title>
<path fill="none" stroke="black" d="M341.44,-255.69C352.26,-264.52 365.63,-275.43 377.49,-285.11"/>
<polygon fill="none" stroke="black" points="375.07,-287.66 385.03,-291.27 379.5,-282.23 375.07,-287.66"/>
</g>
<!-- 18 -->
<g id="node17" class="node">
<title>18</title>
<polygon fill="none" stroke="black" points="464.88,-292.5 464.88,-328.5 519.88,-328.5 519.88,-292.5 464.88,-292.5"/>
<text text-anchor="middle" x="492.38" y="-305.45" font-family="Times,serif" font-size="14.00">Owned</text>
</g>
<!-- 11&#45;&gt;18 -->
<g id="edge15" class="edge">
<title>11&#45;&gt;18</title>
<path fill="none" stroke="black" d="M347.72,-248.54C373.26,-258.08 412.62,-273.16 454.23,-291.2"/>
<polygon fill="none" stroke="black" points="452.62,-294.31 463.18,-295.11 455.42,-287.9 452.62,-294.31"/>
</g>
<!-- 19 -->
<g id="node18" class="node">
<title>19</title>
<polygon fill="none" stroke="black" points="538,-292.5 538,-328.5 626.75,-328.5 626.75,-292.5 538,-292.5"/>
<text text-anchor="middle" x="582.38" y="-305.45" font-family="Times,serif" font-size="14.00">UndoSupport</text>
</g>
<!-- 11&#45;&gt;19 -->
<g id="edge16" class="edge">
<title>11&#45;&gt;19</title>
<path fill="none" stroke="black" d="M347.59,-244.84C385.68,-253.84 457.24,-271.25 526.91,-291.37"/>
<polygon fill="none" stroke="black" points="525.59,-294.63 536.17,-294.06 527.55,-287.91 525.59,-294.63"/>
</g>
<!-- 13 -->
<g id="node12" class="node">
<title>13</title>
<polygon fill="none" stroke="black" points="102.5,-365.5 102.5,-401.5 194.25,-401.5 194.25,-365.5 102.5,-365.5"/>
<text text-anchor="middle" x="148.38" y="-378.45" font-family="Times,serif" font-size="14.00">LockableItem</text>
</g>
<!-- 12&#45;&gt;13 -->
<g id="edge17" class="edge">
<title>12&#45;&gt;13</title>
<path fill="none" stroke="black" d="M144.59,-328.69C145.13,-336.36 145.78,-345.61 146.39,-354.26"/>
<polygon fill="none" stroke="black" points="142.88,-354.23 147.07,-363.96 149.86,-353.74 142.88,-354.23"/>
</g>
<!-- 14 -->
<g id="node13" class="node">
<title>14</title>
<polygon fill="none" stroke="black" points="106.62,-438.5 106.62,-474.5 190.12,-474.5 190.12,-438.5 106.62,-438.5"/>
<text text-anchor="middle" x="148.38" y="-451.45" font-family="Times,serif" font-size="14.00">EtagSupport</text>
</g>
<!-- 13&#45;&gt;14 -->
<g id="edge18" class="edge">
<title>13&#45;&gt;14</title>
<path fill="none" stroke="black" d="M148.38,-401.69C148.38,-409.27 148.38,-418.4 148.38,-426.96"/>
<polygon fill="none" stroke="black" points="144.88,-426.96 148.38,-436.96 151.88,-426.96 144.88,-426.96"/>
</g>
</g>
</svg>
