<?xml version="1.0" encoding="UTF-8" standalone="no"?>
<!DOCTYPE svg PUBLIC "-//W3C//DTD SVG 1.1//EN"
 "http://www.w3.org/Graphics/SVG/1.1/DTD/svg11.dtd">
<!-- Generated by graphviz version 2.34.0 (20131025.1804)
 -->
<!-- Title: classes_No_Name Pages: 1 -->
<svg width="656pt" height="490pt"
 viewBox="0.00 0.00 656.00 490.00" xmlns="http://www.w3.org/2000/svg" xmlns:xlink="http://www.w3.org/1999/xlink">
<g id="graph0" class="graph" transform="scale(1 1) rotate(0) translate(4 486)">
<title>classes_No_Name</title>
<polygon fill="white" stroke="white" points="-4,4 -4,-486 652,-486 652,4 -4,4"/>
<!-- 2 -->
<g id="node1" class="node"><title>2</title>
<polygon fill="none" stroke="black" points="164,-1 164,-37 218,-37 218,-1 164,-1"/>
<text text-anchor="middle" x="190.552" y="-13.4" font-family="Times,serif" font-size="14.00">Pdata</text>
</g>
<!-- 3 -->
<g id="node2" class="node"><title>3</title>
<polygon fill="none" stroke="black" points="236,-1 236,-37 290,-37 290,-1 236,-1"/>
<text text-anchor="middle" x="262.99" y="-13.4" font-family="Times,serif" font-size="14.00">Image</text>
</g>
<!-- 4 -->
<g id="node3" class="node"><title>4</title>
<polygon fill="none" stroke="black" points="236,-75 236,-111 290,-111 290,-75 236,-75"/>
<text text-anchor="middle" x="262.89" y="-87.4" font-family="Times,serif" font-size="14.00">File</text>
</g>
<!-- 3&#45;&gt;4 -->
<g id="edge1" class="edge"><title>3&#45;&gt;4</title>
<path fill="none" stroke="black" d="M263,-37.063C263,-45.1928 263,-55.1239 263,-64.2953"/>
<polygon fill="none" stroke="black" points="259.5,-64.5593 263,-74.5593 266.5,-64.5594 259.5,-64.5593"/>
</g>
<!-- 5 -->
<g id="node4" class="node"><title>5</title>
<polygon fill="none" stroke="black" points="21.0171,-149 21.0171,-185 134.983,-185 134.983,-149 21.0171,-149"/>
<text text-anchor="middle" x="78" y="-161.4" font-family="Times,serif" font-size="14.00">PropertyManager</text>
</g>
<!-- 4&#45;&gt;5 -->
<g id="edge2" class="edge"><title>4&#45;&gt;5</title>
<path fill="none" stroke="black" d="M235.703,-104.624C208.325,-115.279 165.442,-131.969 131.301,-145.256"/>
<polygon fill="none" stroke="black" points="129.973,-142.017 121.923,-148.906 132.512,-148.54 129.973,-142.017"/>
</g>
<!-- 9 -->
<g id="node8" class="node"><title>9</title>
<polygon fill="none" stroke="black" points="155.903,-149 155.903,-185 248.097,-185 248.097,-149 155.903,-149"/>
<text text-anchor="middle" x="202" y="-161.4" font-family="Times,serif" font-size="14.00">RoleManager</text>
</g>
<!-- 4&#45;&gt;9 -->
<g id="edge3" class="edge"><title>4&#45;&gt;9</title>
<path fill="none" stroke="black" d="M248.544,-111.063C241.057,-119.9 231.767,-130.865 223.461,-140.669"/>
<polygon fill="none" stroke="black" points="220.57,-138.667 216.776,-148.559 225.911,-143.192 220.57,-138.667"/>
</g>
<!-- 10 -->
<g id="node9" class="node"><title>10</title>
<polygon fill="none" stroke="black" points="266.458,-149 266.458,-185 383.542,-185 383.542,-149 266.458,-149"/>
<text text-anchor="middle" x="325" y="-161.4" font-family="Times,serif" font-size="14.00">Item_w__name__</text>
</g>
<!-- 4&#45;&gt;10 -->
<g id="edge4" class="edge"><title>4&#45;&gt;10</title>
<path fill="none" stroke="black" d="M277.693,-111.063C285.379,-119.988 294.934,-131.084 303.44,-140.963"/>
<polygon fill="none" stroke="black" points="300.804,-143.265 309.982,-148.559 306.109,-138.698 300.804,-143.265"/>
</g>
<!-- 20 -->
<g id="node19" class="node"><title>20</title>
<polygon fill="none" stroke="black" points="401.852,-149 401.852,-185 476.148,-185 476.148,-149 401.852,-149"/>
<text text-anchor="middle" x="439" y="-161.4" font-family="Times,serif" font-size="14.00">Cacheable</text>
</g>
<!-- 4&#45;&gt;20 -->
<g id="edge5" class="edge"><title>4&#45;&gt;20</title>
<path fill="none" stroke="black" d="M290.114,-105.092C317.32,-116.222 359.755,-133.582 392.372,-146.925"/>
<polygon fill="none" stroke="black" points="391.14,-150.202 401.72,-150.749 393.79,-143.723 391.14,-150.202"/>
</g>
<!-- 6 -->
<g id="node5" class="node"><title>6</title>
<polygon fill="none" stroke="black" points="-0.0405273,-223 -0.0405273,-259 146.041,-259 146.041,-223 -0.0405273,-223"/>
<text text-anchor="middle" x="73" y="-235.4" font-family="Times,serif" font-size="14.00">ElementWithAttributes</text>
</g>
<!-- 5&#45;&gt;6 -->
<g id="edge6" class="edge"><title>5&#45;&gt;6</title>
<path fill="none" stroke="black" d="M76.8151,-185.063C76.2505,-193.193 75.5608,-203.124 74.9239,-212.295"/>
<polygon fill="none" stroke="black" points="71.4124,-212.341 74.2112,-222.559 78.3956,-212.826 71.4124,-212.341"/>
</g>
<!-- 7 -->
<g id="node6" class="node"><title>7</title>
<polygon fill="none" stroke="black" points="40.6758,-297 40.6758,-333 103.324,-333 103.324,-297 40.6758,-297"/>
<text text-anchor="middle" x="72" y="-309.4" font-family="Times,serif" font-size="14.00">Element</text>
</g>
<!-- 6&#45;&gt;7 -->
<g id="edge7" class="edge"><title>6&#45;&gt;7</title>
<path fill="none" stroke="black" d="M72.763,-259.063C72.6501,-267.193 72.5122,-277.124 72.3848,-286.295"/>
<polygon fill="none" stroke="black" points="68.8815,-286.512 72.2422,-296.559 75.8809,-286.609 68.8815,-286.512"/>
</g>
<!-- 8 -->
<g id="node7" class="node"><title>8</title>
<polygon fill="none" stroke="black" points="41,-371 41,-407 95,-407 95,-371 41,-371"/>
<text text-anchor="middle" x="67.6621" y="-383.4" font-family="Times,serif" font-size="14.00">Node</text>
</g>
<!-- 7&#45;&gt;8 -->
<g id="edge8" class="edge"><title>7&#45;&gt;8</title>
<path fill="none" stroke="black" d="M71.0521,-333.063C70.6004,-341.193 70.0487,-351.124 69.5392,-360.295"/>
<polygon fill="none" stroke="black" points="66.0291,-360.381 68.9689,-370.559 73.0183,-360.769 66.0291,-360.381"/>
</g>
<!-- 11 -->
<g id="node10" class="node"><title>11</title>
<polygon fill="none" stroke="black" points="309,-223 309,-259 363,-259 363,-223 309,-223"/>
<text text-anchor="middle" x="335.828" y="-235.4" font-family="Times,serif" font-size="14.00">Item</text>
</g>
<!-- 10&#45;&gt;11 -->
<g id="edge9" class="edge"><title>10&#45;&gt;11</title>
<path fill="none" stroke="black" d="M327.607,-185.063C328.862,-193.281 330.399,-203.34 331.813,-212.594"/>
<polygon fill="none" stroke="black" points="328.365,-213.203 333.335,-222.559 335.285,-212.145 328.365,-213.203"/>
</g>
<!-- 11&#45;&gt;7 -->
<g id="edge14" class="edge"><title>11&#45;&gt;7</title>
<path fill="none" stroke="black" d="M308.99,-246.822C268.174,-254.467 188.351,-270.819 113.266,-295.851"/>
<polygon fill="none" stroke="black" points="112.006,-292.582 103.661,-299.11 114.256,-299.211 112.006,-292.582"/>
</g>
<!-- 12 -->
<g id="node11" class="node"><title>12</title>
<polygon fill="none" stroke="black" points="120.955,-297 120.955,-333 189.045,-333 189.045,-297 120.955,-297"/>
<text text-anchor="middle" x="155" y="-309.4" font-family="Times,serif" font-size="14.00">Resource</text>
</g>
<!-- 11&#45;&gt;12 -->
<g id="edge10" class="edge"><title>11&#45;&gt;12</title>
<path fill="none" stroke="black" d="M308.954,-252.368C282.928,-262.391 242.254,-278.18 198.595,-295.797"/>
<polygon fill="none" stroke="black" points="197.195,-292.588 189.238,-299.583 199.82,-299.077 197.195,-292.588"/>
</g>
<!-- 15 -->
<g id="node14" class="node"><title>15</title>
<polygon fill="none" stroke="black" points="207.393,-297 207.393,-333 292.607,-333 292.607,-297 207.393,-297"/>
<text text-anchor="middle" x="250" y="-309.4" font-family="Times,serif" font-size="14.00">CopySource</text>
</g>
<!-- 11&#45;&gt;15 -->
<g id="edge11" class="edge"><title>11&#45;&gt;15</title>
<path fill="none" stroke="black" d="M315.619,-259.063C304.455,-268.41 290.447,-280.137 278.243,-290.354"/>
<polygon fill="none" stroke="black" points="275.953,-287.707 270.533,-296.81 280.447,-293.074 275.953,-287.707"/>
</g>
<!-- 16 -->
<g id="node15" class="node"><title>16</title>
<polygon fill="none" stroke="black" points="311,-297 311,-333 365,-333 365,-297 311,-297"/>
<text text-anchor="middle" x="337.618" y="-309.4" font-family="Times,serif" font-size="14.00">Tabs</text>
</g>
<!-- 11&#45;&gt;16 -->
<g id="edge12" class="edge"><title>11&#45;&gt;16</title>
<path fill="none" stroke="black" d="M336.474,-259.063C336.7,-267.193 336.976,-277.124 337.23,-286.295"/>
<polygon fill="none" stroke="black" points="333.739,-286.66 337.516,-296.559 340.736,-286.466 333.739,-286.66"/>
</g>
<!-- 17 -->
<g id="node16" class="node"><title>17</title>
<polygon fill="none" stroke="black" points="383.208,-297 383.208,-333 464.792,-333 464.792,-297 383.208,-297"/>
<text text-anchor="middle" x="424" y="-309.4" font-family="Times,serif" font-size="14.00">Traversable</text>
</g>
<!-- 11&#45;&gt;17 -->
<g id="edge13" class="edge"><title>11&#45;&gt;17</title>
<path fill="none" stroke="black" d="M356.855,-259.063C368.279,-268.41 382.612,-280.137 395.1,-290.354"/>
<polygon fill="none" stroke="black" points="393.034,-293.186 402.99,-296.81 397.467,-287.769 393.034,-293.186"/>
</g>
<!-- 18 -->
<g id="node17" class="node"><title>18</title>
<polygon fill="none" stroke="black" points="482.783,-297 482.783,-333 539.217,-333 539.217,-297 482.783,-297"/>
<text text-anchor="middle" x="511" y="-309.4" font-family="Times,serif" font-size="14.00">Owned</text>
</g>
<!-- 11&#45;&gt;18 -->
<g id="edge15" class="edge"><title>11&#45;&gt;18</title>
<path fill="none" stroke="black" d="M363.253,-252.126C391.059,-262.601 435.35,-279.685 473,-296 473.096,-296.042 473.193,-296.084 473.289,-296.125"/>
<polygon fill="none" stroke="black" points="471.902,-299.339 482.46,-300.23 474.762,-292.95 471.902,-299.339"/>
</g>
<!-- 19 -->
<g id="node18" class="node"><title>19</title>
<polygon fill="none" stroke="black" points="557.276,-297 557.276,-333 648.724,-333 648.724,-297 557.276,-297"/>
<text text-anchor="middle" x="603" y="-309.4" font-family="Times,serif" font-size="14.00">UndoSupport</text>
</g>
<!-- 11&#45;&gt;19 -->
<g id="edge16" class="edge"><title>11&#45;&gt;19</title>
<path fill="none" stroke="black" d="M363.264,-248.328C402.036,-257.459 475.502,-275.252 547.473,-295.939"/>
<polygon fill="none" stroke="black" points="546.576,-299.323 557.155,-298.742 548.523,-292.599 546.576,-299.323"/>
</g>
<!-- 13 -->
<g id="node12" class="node"><title>13</title>
<polygon fill="none" stroke="black" points="113.131,-371 113.131,-407 206.869,-407 206.869,-371 113.131,-371"/>
<text text-anchor="middle" x="160" y="-383.4" font-family="Times,serif" font-size="14.00">LockableItem</text>
</g>
<!-- 12&#45;&gt;13 -->
<g id="edge17" class="edge"><title>12&#45;&gt;13</title>
<path fill="none" stroke="black" d="M156.185,-333.063C156.75,-341.193 157.439,-351.124 158.076,-360.295"/>
<polygon fill="none" stroke="black" points="154.604,-360.826 158.789,-370.559 161.588,-360.341 154.604,-360.826"/>
</g>
<!-- 14 -->
<g id="node13" class="node"><title>14</title>
<polygon fill="none" stroke="black" points="117.003,-445 117.003,-481 202.997,-481 202.997,-445 117.003,-445"/>
<text text-anchor="middle" x="160" y="-457.4" font-family="Times,serif" font-size="14.00">EtagSupport</text>
</g>
<!-- 13&#45;&gt;14 -->
<g id="edge18" class="edge"><title>13&#45;&gt;14</title>
<path fill="none" stroke="black" d="M160,-407.063C160,-415.193 160,-425.124 160,-434.295"/>
<polygon fill="none" stroke="black" points="156.5,-434.559 160,-444.559 163.5,-434.559 156.5,-434.559"/>
</g>
</g>
</svg>
