<?xml version="1.0" encoding="UTF-8" standalone="no"?>
<!DOCTYPE svg PUBLIC "-//W3C//DTD SVG 1.1//EN"
 "http://www.w3.org/Graphics/SVG/1.1/DTD/svg11.dtd">
<!-- Generated by graphviz version 2.26.3 (20100126.1600)
 -->
<!-- Title: classes_No_Name Pages: 1 -->
<svg width="736pt" height="490pt"
 viewBox="0.00 0.00 736.00 490.00" xmlns="http://www.w3.org/2000/svg" xmlns:xlink="http://www.w3.org/1999/xlink">
<g id="graph1" class="graph" transform="scale(1 1) rotate(0) translate(4 486)">
<title>classes_No_Name</title>
<polygon fill="white" stroke="white" points="-4,5 -4,-486 733,-486 733,5 -4,5"/>
<!-- 2 -->
<g id="node1" class="node"><title>2</title>
<polygon fill="none" stroke="black" points="199,-1 199,-37 255,-37 255,-1 199,-1"/>
<text text-anchor="middle" x="227" y="-15.4" font-family="Times Roman,serif" font-size="14.00">Pdata</text>
</g>
<!-- 3 -->
<g id="node2" class="node"><title>3</title>
<polygon fill="none" stroke="black" points="272.5,-1 272.5,-37 331.5,-37 331.5,-1 272.5,-1"/>
<text text-anchor="middle" x="302" y="-15.4" font-family="Times Roman,serif" font-size="14.00">Image</text>
</g>
<!-- 4 -->
<g id="node3" class="node"><title>4</title>
<polygon fill="none" stroke="black" points="275,-75 275,-111 329,-111 329,-75 275,-75"/>
<text text-anchor="middle" x="302" y="-89.4" font-family="Times Roman,serif" font-size="14.00">File</text>
</g>
<!-- 3&#45;&gt;4 -->
<g id="edge2" class="edge"><title>3&#45;&gt;4</title>
<path fill="none" stroke="black" d="M302,-37.2921C302,-45.5365 302,-55.4624 302,-64.6378"/>
<polygon fill="none" stroke="black" points="298.5,-64.9182 302,-74.9183 305.5,-64.9183 298.5,-64.9182"/>
</g>
<!-- 5 -->
<g id="node4" class="node"><title>5</title>
<polygon fill="none" stroke="black" points="24,-149 24,-185 160,-185 160,-149 24,-149"/>
<text text-anchor="middle" x="92" y="-163.4" font-family="Times Roman,serif" font-size="14.00">PropertyManager</text>
</g>
<!-- 4&#45;&gt;5 -->
<g id="edge4" class="edge"><title>4&#45;&gt;5</title>
<path fill="none" stroke="black" d="M274.976,-102.523C244.312,-113.328 193.322,-131.296 152.947,-145.524"/>
<polygon fill="none" stroke="black" points="151.725,-142.243 143.457,-148.868 154.052,-148.845 151.725,-142.243"/>
</g>
<!-- 9 -->
<g id="node8" class="node"><title>9</title>
<polygon fill="none" stroke="black" points="180,-149 180,-185 286,-185 286,-149 180,-149"/>
<text text-anchor="middle" x="233" y="-163.4" font-family="Times Roman,serif" font-size="14.00">RoleManager</text>
</g>
<!-- 4&#45;&gt;9 -->
<g id="edge6" class="edge"><title>4&#45;&gt;9</title>
<path fill="none" stroke="black" d="M284.944,-111.292C276.421,-120.433 265.971,-131.64 256.684,-141.6"/>
<polygon fill="none" stroke="black" points="254.12,-139.218 249.86,-148.918 259.24,-143.991 254.12,-139.218"/>
</g>
<!-- 10 -->
<g id="node9" class="node"><title>10</title>
<polygon fill="none" stroke="black" points="303.5,-149 303.5,-185 440.5,-185 440.5,-149 303.5,-149"/>
<text text-anchor="middle" x="372" y="-163.4" font-family="Times Roman,serif" font-size="14.00">Item_w__name__</text>
</g>
<!-- 4&#45;&gt;10 -->
<g id="edge8" class="edge"><title>4&#45;&gt;10</title>
<path fill="none" stroke="black" d="M319.303,-111.292C327.95,-120.433 338.551,-131.64 347.973,-141.6"/>
<polygon fill="none" stroke="black" points="345.481,-144.059 354.896,-148.918 350.566,-139.248 345.481,-144.059"/>
</g>
<!-- 20 -->
<g id="node19" class="node"><title>20</title>
<polygon fill="none" stroke="black" points="457.5,-149 457.5,-185 544.5,-185 544.5,-149 457.5,-149"/>
<text text-anchor="middle" x="501" y="-163.4" font-family="Times Roman,serif" font-size="14.00">Cacheable</text>
</g>
<!-- 4&#45;&gt;20 -->
<g id="edge10" class="edge"><title>4&#45;&gt;20</title>
<path fill="none" stroke="black" d="M329.253,-103.134C359.674,-114.446 409.642,-133.028 447.86,-147.239"/>
<polygon fill="none" stroke="black" points="446.711,-150.546 457.304,-150.751 449.151,-143.985 446.711,-150.546"/>
</g>
<!-- 6 -->
<g id="node5" class="node"><title>6</title>
<polygon fill="none" stroke="black" points="0,-223 0,-259 176,-259 176,-223 0,-223"/>
<text text-anchor="middle" x="88" y="-237.4" font-family="Times Roman,serif" font-size="14.00">ElementWithAttributes</text>
</g>
<!-- 5&#45;&gt;6 -->
<g id="edge12" class="edge"><title>5&#45;&gt;6</title>
<path fill="none" stroke="black" d="M91.0112,-185.292C90.5656,-193.536 90.0291,-203.462 89.5331,-212.638"/>
<polygon fill="none" stroke="black" points="86.0223,-212.744 88.9774,-222.918 93.0121,-213.122 86.0223,-212.744"/>
</g>
<!-- 7 -->
<g id="node6" class="node"><title>7</title>
<polygon fill="none" stroke="black" points="50,-297 50,-333 124,-333 124,-297 50,-297"/>
<text text-anchor="middle" x="87" y="-311.4" font-family="Times Roman,serif" font-size="14.00">Element</text>
</g>
<!-- 6&#45;&gt;7 -->
<g id="edge14" class="edge"><title>6&#45;&gt;7</title>
<path fill="none" stroke="black" d="M87.7528,-259.292C87.6414,-267.536 87.5073,-277.462 87.3833,-286.638"/>
<polygon fill="none" stroke="black" points="83.8799,-286.872 87.2443,-296.918 90.8792,-286.967 83.8799,-286.872"/>
</g>
<!-- 8 -->
<g id="node7" class="node"><title>8</title>
<polygon fill="none" stroke="black" points="58,-371 58,-407 112,-407 112,-371 58,-371"/>
<text text-anchor="middle" x="85" y="-385.4" font-family="Times Roman,serif" font-size="14.00">Node</text>
</g>
<!-- 7&#45;&gt;8 -->
<g id="edge16" class="edge"><title>7&#45;&gt;8</title>
<path fill="none" stroke="black" d="M86.5056,-333.292C86.2828,-341.536 86.0145,-351.462 85.7665,-360.638"/>
<polygon fill="none" stroke="black" points="82.2602,-360.827 85.4887,-370.918 89.2577,-361.017 82.2602,-360.827"/>
</g>
<!-- 11 -->
<g id="node10" class="node"><title>11</title>
<polygon fill="none" stroke="black" points="353,-223 353,-259 407,-259 407,-223 353,-223"/>
<text text-anchor="middle" x="380" y="-237.4" font-family="Times Roman,serif" font-size="14.00">Item</text>
</g>
<!-- 10&#45;&gt;11 -->
<g id="edge18" class="edge"><title>10&#45;&gt;11</title>
<path fill="none" stroke="black" d="M373.978,-185.292C374.878,-193.626 375.965,-203.678 376.966,-212.937"/>
<polygon fill="none" stroke="black" points="373.491,-213.352 378.045,-222.918 380.45,-212.6 373.491,-213.352"/>
</g>
<!-- 11&#45;&gt;7 -->
<g id="edge28" class="edge"><title>11&#45;&gt;7</title>
<path fill="none" stroke="black" d="M352.917,-245.449C308.735,-253.045 218.384,-269.98 133.941,-295.957"/>
<polygon fill="none" stroke="black" points="132.707,-292.676 124.207,-299.001 134.796,-299.357 132.707,-292.676"/>
</g>
<!-- 12 -->
<g id="node11" class="node"><title>12</title>
<polygon fill="none" stroke="black" points="141.5,-297 141.5,-333 220.5,-333 220.5,-297 141.5,-297"/>
<text text-anchor="middle" x="181" y="-311.4" font-family="Times Roman,serif" font-size="14.00">Resource</text>
</g>
<!-- 11&#45;&gt;12 -->
<g id="edge20" class="edge"><title>11&#45;&gt;12</title>
<path fill="none" stroke="black" d="M352.913,-250.612C324.461,-260.763 278.201,-277.425 229.883,-295.704"/>
<polygon fill="none" stroke="black" points="228.627,-292.437 220.519,-299.257 231.11,-298.982 228.627,-292.437"/>
</g>
<!-- 15 -->
<g id="node14" class="node"><title>15</title>
<polygon fill="none" stroke="black" points="238,-297 238,-333 336,-333 336,-297 238,-297"/>
<text text-anchor="middle" x="287" y="-311.4" font-family="Times Roman,serif" font-size="14.00">CopySource</text>
</g>
<!-- 11&#45;&gt;15 -->
<g id="edge22" class="edge"><title>11&#45;&gt;15</title>
<path fill="none" stroke="black" d="M357.011,-259.292C345.186,-268.701 330.608,-280.301 317.821,-290.475"/>
<polygon fill="none" stroke="black" points="315.37,-287.953 309.724,-296.918 319.729,-293.431 315.37,-287.953"/>
</g>
<!-- 16 -->
<g id="node15" class="node"><title>16</title>
<polygon fill="none" stroke="black" points="354,-297 354,-333 408,-333 408,-297 354,-297"/>
<text text-anchor="middle" x="381" y="-311.4" font-family="Times Roman,serif" font-size="14.00">Tabs</text>
</g>
<!-- 11&#45;&gt;16 -->
<g id="edge24" class="edge"><title>11&#45;&gt;16</title>
<path fill="none" stroke="black" d="M380.247,-259.292C380.359,-267.536 380.493,-277.462 380.617,-286.638"/>
<polygon fill="none" stroke="black" points="377.121,-286.967 380.756,-296.918 384.12,-286.872 377.121,-286.967"/>
</g>
<!-- 17 -->
<g id="node16" class="node"><title>17</title>
<polygon fill="none" stroke="black" points="425.5,-297 425.5,-333 520.5,-333 520.5,-297 425.5,-297"/>
<text text-anchor="middle" x="473" y="-311.4" font-family="Times Roman,serif" font-size="14.00">Traversable</text>
</g>
<!-- 11&#45;&gt;17 -->
<g id="edge26" class="edge"><title>11&#45;&gt;17</title>
<path fill="none" stroke="black" d="M402.989,-259.292C414.814,-268.701 429.392,-280.301 442.179,-290.475"/>
<polygon fill="none" stroke="black" points="440.271,-293.431 450.276,-296.918 444.63,-287.953 440.271,-293.431"/>
</g>
<!-- 18 -->
<g id="node17" class="node"><title>18</title>
<polygon fill="none" stroke="black" points="538,-297 538,-333 604,-333 604,-297 538,-297"/>
<text text-anchor="middle" x="571" y="-311.4" font-family="Times Roman,serif" font-size="14.00">Owned</text>
</g>
<!-- 11&#45;&gt;18 -->
<g id="edge30" class="edge"><title>11&#45;&gt;18</title>
<path fill="none" stroke="black" d="M407.14,-250.364C435.299,-260.221 480.766,-276.532 528.129,-295.759"/>
<polygon fill="none" stroke="black" points="527.042,-299.096 537.623,-299.642 529.692,-292.617 527.042,-299.096"/>
</g>
<!-- 19 -->
<g id="node18" class="node"><title>19</title>
<polygon fill="none" stroke="black" points="621.5,-297 621.5,-333 728.5,-333 728.5,-297 621.5,-297"/>
<text text-anchor="middle" x="675" y="-311.4" font-family="Times Roman,serif" font-size="14.00">UndoSupport</text>
</g>
<!-- 11&#45;&gt;19 -->
<g id="edge32" class="edge"><title>11&#45;&gt;19</title>
<path fill="none" stroke="black" d="M407.053,-246.782C448.93,-255.861 532.15,-274.422 611.624,-295.698"/>
<polygon fill="none" stroke="black" points="610.728,-299.082 621.294,-298.306 612.55,-292.323 610.728,-299.082"/>
</g>
<!-- 13 -->
<g id="node12" class="node"><title>13</title>
<polygon fill="none" stroke="black" points="130,-371 130,-407 238,-407 238,-371 130,-371"/>
<text text-anchor="middle" x="184" y="-385.4" font-family="Times Roman,serif" font-size="14.00">LockableItem</text>
</g>
<!-- 12&#45;&gt;13 -->
<g id="edge34" class="edge"><title>12&#45;&gt;13</title>
<path fill="none" stroke="black" d="M181.742,-333.292C182.076,-341.536 182.478,-351.462 182.85,-360.638"/>
<polygon fill="none" stroke="black" points="179.365,-361.068 183.267,-370.918 186.359,-360.785 179.365,-361.068"/>
</g>
<!-- 14 -->
<g id="node13" class="node"><title>14</title>
<polygon fill="none" stroke="black" points="132.5,-445 132.5,-481 235.5,-481 235.5,-445 132.5,-445"/>
<text text-anchor="middle" x="184" y="-459.4" font-family="Times Roman,serif" font-size="14.00">EtagSupport</text>
</g>
<!-- 13&#45;&gt;14 -->
<g id="edge36" class="edge"><title>13&#45;&gt;14</title>
<path fill="none" stroke="black" d="M184,-407.292C184,-415.536 184,-425.462 184,-434.638"/>
<polygon fill="none" stroke="black" points="180.5,-434.918 184,-444.918 187.5,-434.918 180.5,-434.918"/>
</g>
</g>
</svg>
