<?xml version="1.0" encoding="UTF-8" standalone="no"?>
<!DOCTYPE svg PUBLIC "-//W3C//DTD SVG 1.1//EN"
 "http://www.w3.org/Graphics/SVG/1.1/DTD/svg11.dtd">
<!-- Generated by graphviz version 10.0.1 (20240210.2158)
 -->
<!-- Title: classes_No_Name Pages: 1 -->
<svg width="617pt" height="337pt"
 viewBox="0.00 0.00 617.25 337.00" xmlns="http://www.w3.org/2000/svg" xmlns:xlink="http://www.w3.org/1999/xlink">
<g id="graph0" class="graph" transform="scale(1 1) rotate(0) translate(4 333)">
<title>classes_No_Name</title>
<polygon fill="white" stroke="none" points="-4,4 -4,-333 613.25,-333 613.25,4 -4,4"/>
<!-- 2 -->
<g id="node1" class="node">
<title>2</title>
<polygon fill="none" stroke="black" points="239.38,-0.5 239.38,-36.5 354.38,-36.5 354.38,-0.5 239.38,-0.5"/>
<text text-anchor="middle" x="296.88" y="-13.45" font-family="Times,serif" font-size="14.00">Item_w__name__</text>
</g>
<!-- 3 -->
<g id="node2" class="node">
<title>3</title>
<polygon fill="none" stroke="black" points="282.88,-73.5 282.88,-109.5 336.88,-109.5 336.88,-73.5 282.88,-73.5"/>
<text text-anchor="middle" x="309.62" y="-86.45" font-family="Times,serif" font-size="14.00">Item</text>
</g>
<!-- 2&#45;&gt;3 -->
<g id="edge1" class="edge">
<title>2&#45;&gt;3</title>
<path fill="none" stroke="black" d="M300.02,-36.69C301.43,-44.36 303.12,-53.61 304.7,-62.26"/>
<polygon fill="none" stroke="black" points="301.24,-62.78 306.48,-71.98 308.13,-61.52 301.24,-62.78"/>
</g>
<!-- 4 -->
<g id="node3" class="node">
<title>4</title>
<polygon fill="none" stroke="black" points="12.75,-146.5 12.75,-182.5 79,-182.5 79,-146.5 12.75,-146.5"/>
<text text-anchor="middle" x="45.88" y="-159.45" font-family="Times,serif" font-size="14.00">Resource</text>
</g>
<!-- 3&#45;&gt;4 -->
<g id="edge2" class="edge">
<title>3&#45;&gt;4</title>
<path fill="none" stroke="black" d="M282.64,-97.73C242.45,-105.73 164.83,-122.31 89.62,-146.04"/>
<polygon fill="none" stroke="black" points="88.92,-142.59 80.47,-148.97 91.06,-149.25 88.92,-142.59"/>
</g>
<!-- 7 -->
<g id="node6" class="node">
<title>7</title>
<polygon fill="none" stroke="black" points="97.5,-146.5 97.5,-182.5 180.25,-182.5 180.25,-146.5 97.5,-146.5"/>
<text text-anchor="middle" x="138.88" y="-159.45" font-family="Times,serif" font-size="14.00">CopySource</text>
</g>
<!-- 3&#45;&gt;7 -->
<g id="edge3" class="edge">
<title>3&#45;&gt;7</title>
<path fill="none" stroke="black" d="M282.4,-103.91C257.83,-114.11 221.14,-129.34 191.01,-141.85"/>
<polygon fill="none" stroke="black" points="189.95,-138.5 182.05,-145.57 192.63,-144.97 189.95,-138.5"/>
</g>
<!-- 8 -->
<g id="node7" class="node">
<title>8</title>
<polygon fill="none" stroke="black" points="197.88,-146.5 197.88,-182.5 251.88,-182.5 251.88,-146.5 197.88,-146.5"/>
<text text-anchor="middle" x="224.5" y="-159.45" font-family="Times,serif" font-size="14.00">Tabs</text>
</g>
<!-- 3&#45;&gt;8 -->
<g id="edge4" class="edge">
<title>3&#45;&gt;8</title>
<path fill="none" stroke="black" d="M289.3,-109.69C278.73,-118.52 265.66,-129.43 254.07,-139.11"/>
<polygon fill="none" stroke="black" points="252.15,-136.16 246.72,-145.25 256.64,-141.53 252.15,-136.16"/>
</g>
<!-- 9 -->
<g id="node8" class="node">
<title>9</title>
<polygon fill="none" stroke="black" points="270,-146.5 270,-182.5 349.75,-182.5 349.75,-146.5 270,-146.5"/>
<text text-anchor="middle" x="309.88" y="-159.45" font-family="Times,serif" font-size="14.00">Traversable</text>
</g>
<!-- 3&#45;&gt;9 -->
<g id="edge5" class="edge">
<title>3&#45;&gt;9</title>
<path fill="none" stroke="black" d="M309.88,-109.69C309.88,-117.27 309.88,-126.4 309.88,-134.96"/>
<polygon fill="none" stroke="black" points="306.38,-134.96 309.88,-144.96 313.38,-134.96 306.38,-134.96"/>
</g>
<!-- 10 -->
<g id="node9" class="node">
<title>10</title>
<polygon fill="none" stroke="black" points="368,-146.5 368,-182.5 429.75,-182.5 429.75,-146.5 368,-146.5"/>
<text text-anchor="middle" x="398.88" y="-159.45" font-family="Times,serif" font-size="14.00">Element</text>
</g>
<!-- 3&#45;&gt;10 -->
<g id="edge6" class="edge">
<title>3&#45;&gt;10</title>
<path fill="none" stroke="black" d="M331.42,-109.69C342.49,-118.52 356.17,-129.43 368.31,-139.11"/>
<polygon fill="none" stroke="black" points="366.04,-141.78 376.04,-145.28 370.4,-136.31 366.04,-141.78"/>
</g>
<!-- 12 -->
<g id="node11" class="node">
<title>12</title>
<polygon fill="none" stroke="black" points="447.38,-146.5 447.38,-182.5 502.38,-182.5 502.38,-146.5 447.38,-146.5"/>
<text text-anchor="middle" x="474.88" y="-159.45" font-family="Times,serif" font-size="14.00">Owned</text>
</g>
<!-- 3&#45;&gt;12 -->
<g id="edge7" class="edge">
<title>3&#45;&gt;12</title>
<path fill="none" stroke="black" d="M337.26,-103.31C361.35,-112.94 397.59,-127.7 436.54,-145.06"/>
<polygon fill="none" stroke="black" points="435.11,-148.25 445.66,-149.15 437.97,-141.86 435.11,-148.25"/>
</g>
<!-- 13 -->
<g id="node12" class="node">
<title>13</title>
<polygon fill="none" stroke="black" points="520.5,-146.5 520.5,-182.5 609.25,-182.5 609.25,-146.5 520.5,-146.5"/>
<text text-anchor="middle" x="564.88" y="-159.45" font-family="Times,serif" font-size="14.00">UndoSupport</text>
</g>
<!-- 3&#45;&gt;13 -->
<g id="edge8" class="edge">
<title>3&#45;&gt;13</title>
<path fill="none" stroke="black" d="M337.17,-102.86C344.19,-105.35 351.77,-107.9 358.88,-110 422.47,-128.77 442.61,-127.25 509.06,-145.34"/>
<polygon fill="none" stroke="black" points="508.11,-148.71 518.68,-148.02 509.98,-141.97 508.11,-148.71"/>
</g>
<!-- 5 -->
<g id="node4" class="node">
<title>5</title>
<polygon fill="none" stroke="black" points="0,-219.5 0,-255.5 91.75,-255.5 91.75,-219.5 0,-219.5"/>
<text text-anchor="middle" x="45.88" y="-232.45" font-family="Times,serif" font-size="14.00">LockableItem</text>
</g>
<!-- 4&#45;&gt;5 -->
<g id="edge9" class="edge">
<title>4&#45;&gt;5</title>
<path fill="none" stroke="black" d="M45.88,-182.69C45.88,-190.27 45.88,-199.4 45.88,-207.96"/>
<polygon fill="none" stroke="black" points="42.38,-207.96 45.88,-217.96 49.38,-207.96 42.38,-207.96"/>
</g>
<!-- 6 -->
<g id="node5" class="node">
<title>6</title>
<polygon fill="none" stroke="black" points="4.12,-292.5 4.12,-328.5 87.62,-328.5 87.62,-292.5 4.12,-292.5"/>
<text text-anchor="middle" x="45.88" y="-305.45" font-family="Times,serif" font-size="14.00">EtagSupport</text>
</g>
<!-- 5&#45;&gt;6 -->
<g id="edge10" class="edge">
<title>5&#45;&gt;6</title>
<path fill="none" stroke="black" d="M45.88,-255.69C45.88,-263.27 45.88,-272.4 45.88,-280.96"/>
<polygon fill="none" stroke="black" points="42.38,-280.96 45.88,-290.96 49.38,-280.96 42.38,-280.96"/>
</g>
<!-- 11 -->
<g id="node10" class="node">
<title>11</title>
<polygon fill="none" stroke="black" points="371.88,-219.5 371.88,-255.5 425.88,-255.5 425.88,-219.5 371.88,-219.5"/>
<text text-anchor="middle" x="398.5" y="-232.45" font-family="Times,serif" font-size="14.00">Node</text>
</g>
<!-- 10&#45;&gt;11 -->
<g id="edge11" class="edge">
<title>10&#45;&gt;11</title>
<path fill="none" stroke="black" d="M398.88,-182.69C398.88,-190.27 398.88,-199.4 398.88,-207.96"/>
<polygon fill="none" stroke="black" points="395.38,-207.96 398.88,-217.96 402.38,-207.96 395.38,-207.96"/>
</g>
<!-- 14 -->
<g id="node13" class="node">
<title>14</title>
<polygon fill="none" stroke="black" points="372.62,-0.5 372.62,-36.5 453.12,-36.5 453.12,-0.5 372.62,-0.5"/>
<text text-anchor="middle" x="412.88" y="-13.45" font-family="Times,serif" font-size="14.00">SimpleItem</text>
</g>
<!-- 14&#45;&gt;3 -->
<g id="edge12" class="edge">
<title>14&#45;&gt;3</title>
<path fill="none" stroke="black" d="M387.68,-36.87C374.71,-45.81 358.7,-56.84 344.58,-66.58"/>
<polygon fill="none" stroke="black" points="342.66,-63.65 336.41,-72.21 346.63,-69.41 342.66,-63.65"/>
</g>
<!-- 15 -->
<g id="node14" class="node">
<title>15</title>
<polygon fill="none" stroke="black" points="367.75,-73.5 367.75,-109.5 458,-109.5 458,-73.5 367.75,-73.5"/>
<text text-anchor="middle" x="412.88" y="-86.45" font-family="Times,serif" font-size="14.00">RoleManager</text>
</g>
<!-- 14&#45;&gt;15 -->
<g id="edge13" class="edge">
<title>14&#45;&gt;15</title>
<path fill="none" stroke="black" d="M412.88,-36.69C412.88,-44.27 412.88,-53.4 412.88,-61.96"/>
<polygon fill="none" stroke="black" points="409.38,-61.96 412.88,-71.96 416.38,-61.96 409.38,-61.96"/>
</g>
</g>
</svg>
