<?xml version="1.0" encoding="UTF-8" standalone="no"?>
<!DOCTYPE svg PUBLIC "-//W3C//DTD SVG 1.1//EN"
 "http://www.w3.org/Graphics/SVG/1.1/DTD/svg11.dtd">
<!-- Generated by graphviz version 2.26.3 (20100126.1600)
 -->
<!-- Title: classes_No_Name Pages: 1 -->
<svg width="878pt" height="268pt"
 viewBox="0.00 0.00 878.00 268.00" xmlns="http://www.w3.org/2000/svg" xmlns:xlink="http://www.w3.org/1999/xlink">
<g id="graph1" class="graph" transform="scale(1 1) rotate(0) translate(4 264)">
<title>classes_No_Name</title>
<polygon fill="white" stroke="white" points="-4,5 -4,-264 875,-264 875,5 -4,5"/>
<!-- 2 -->
<g id="node1" class="node"><title>2</title>
<polygon fill="none" stroke="black" points="-0.5,-1 -0.5,-37 184.5,-37 184.5,-1 -0.5,-1"/>
<text text-anchor="middle" x="92" y="-15.4" font-family="Times Roman,serif" font-size="14.00">ArmoredOrcaWithLasers</text>
</g>
<!-- 3 -->
<g id="node2" class="node"><title>3</title>
<polygon fill="none" stroke="black" points="59,-75 59,-111 185,-111 185,-75 59,-75"/>
<text text-anchor="middle" x="122" y="-89.4" font-family="Times Roman,serif" font-size="14.00">OrcaWithLasers</text>
</g>
<!-- 2&#45;&gt;3 -->
<g id="edge2" class="edge"><title>2&#45;&gt;3</title>
<path fill="none" stroke="black" d="M99.4157,-37.2921C102.867,-45.8053 107.045,-56.1115 110.865,-65.5329"/>
<polygon fill="none" stroke="black" points="107.669,-66.9659 114.67,-74.9183 114.156,-64.3359 107.669,-66.9659"/>
</g>
<!-- 8 -->
<g id="node7" class="node"><title>8</title>
<polygon fill="none" stroke="black" points="355,-75 355,-111 451,-111 451,-75 355,-75"/>
<text text-anchor="middle" x="403" y="-89.4" font-family="Times Roman,serif" font-size="14.00">ArmorMixin</text>
</g>
<!-- 2&#45;&gt;8 -->
<g id="edge4" class="edge"><title>2&#45;&gt;8</title>
<path fill="none" stroke="black" d="M184.585,-36.5334C230.432,-45.8146 286.721,-58.1028 345.136,-73.8926"/>
<polygon fill="none" stroke="black" points="344.341,-77.3037 354.91,-76.5623 346.186,-70.551 344.341,-77.3037"/>
</g>
<!-- 4 -->
<g id="node3" class="node"><title>4</title>
<polygon fill="none" stroke="black" points="336,-149 336,-185 390,-185 390,-149 336,-149"/>
<text text-anchor="middle" x="363" y="-163.4" font-family="Times Roman,serif" font-size="14.00">Orca</text>
</g>
<!-- 3&#45;&gt;4 -->
<g id="edge6" class="edge"><title>3&#45;&gt;4</title>
<path fill="none" stroke="black" d="M185.188,-109.899C241.91,-125.115 317.281,-145.474 324,-148 324.714,-148.268 325.432,-148.545 326.154,-148.829"/>
<polygon fill="none" stroke="black" points="325.013,-152.148 335.585,-152.853 327.76,-145.709 325.013,-152.148"/>
</g>
<!-- 6 -->
<g id="node5" class="node"><title>6</title>
<polygon fill="none" stroke="black" points="224.5,-149 224.5,-185 315.5,-185 315.5,-149 224.5,-149"/>
<text text-anchor="middle" x="270" y="-163.4" font-family="Times Roman,serif" font-size="14.00">LaserMixin</text>
</g>
<!-- 3&#45;&gt;6 -->
<g id="edge8" class="edge"><title>3&#45;&gt;6</title>
<path fill="none" stroke="black" d="M158.205,-111.102C178.258,-121.129 203.372,-133.686 224.714,-144.357"/>
<polygon fill="none" stroke="black" points="223.403,-147.615 233.913,-148.956 226.534,-141.354 223.403,-147.615"/>
</g>
<!-- 5 -->
<g id="node4" class="node"><title>5</title>
<polygon fill="none" stroke="black" points="367,-223 367,-259 431,-259 431,-223 367,-223"/>
<text text-anchor="middle" x="399" y="-237.4" font-family="Times Roman,serif" font-size="14.00">Animal</text>
</g>
<!-- 4&#45;&gt;5 -->
<g id="edge10" class="edge"><title>4&#45;&gt;5</title>
<path fill="none" stroke="black" d="M371.899,-185.292C376.084,-193.895 381.16,-204.329 385.782,-213.83"/>
<polygon fill="none" stroke="black" points="382.681,-215.457 390.203,-222.918 388.976,-212.395 382.681,-215.457"/>
</g>
<!-- 7 -->
<g id="node6" class="node"><title>7</title>
<polygon fill="none" stroke="black" points="273.5,-223 273.5,-259 346.5,-259 346.5,-223 273.5,-223"/>
<text text-anchor="middle" x="310" y="-237.4" font-family="Times Roman,serif" font-size="14.00">Weapon</text>
</g>
<!-- 6&#45;&gt;7 -->
<g id="edge12" class="edge"><title>6&#45;&gt;7</title>
<path fill="none" stroke="black" d="M279.888,-185.292C284.538,-193.895 290.178,-204.329 295.314,-213.83"/>
<polygon fill="none" stroke="black" points="292.392,-215.786 300.226,-222.918 298.55,-212.457 292.392,-215.786"/>
</g>
<!-- 9 -->
<g id="node8" class="node"><title>9</title>
<polygon fill="none" stroke="black" points="407.5,-149 407.5,-185 464.5,-185 464.5,-149 407.5,-149"/>
<text text-anchor="middle" x="436" y="-163.4" font-family="Times Roman,serif" font-size="14.00">Shark</text>
</g>
<!-- 9&#45;&gt;5 -->
<g id="edge14" class="edge"><title>9&#45;&gt;5</title>
<path fill="none" stroke="black" d="M426.854,-185.292C422.553,-193.895 417.336,-204.329 412.585,-213.83"/>
<polygon fill="none" stroke="black" points="409.383,-212.409 408.041,-222.918 415.644,-215.539 409.383,-212.409"/>
</g>
<!-- 10 -->
<g id="node9" class="node"><title>10</title>
<polygon fill="none" stroke="black" points="201.5,-1 201.5,-37 394.5,-37 394.5,-1 201.5,-1"/>
<text text-anchor="middle" x="298" y="-15.4" font-family="Times Roman,serif" font-size="14.00">ArmoredSharkWithLasers</text>
</g>
<!-- 10&#45;&gt;8 -->
<g id="edge18" class="edge"><title>10&#45;&gt;8</title>
<path fill="none" stroke="black" d="M323.686,-37.1024C337.288,-46.6883 354.172,-58.5875 368.861,-68.9403"/>
<polygon fill="none" stroke="black" points="367.025,-71.9281 377.215,-74.828 371.058,-66.2063 367.025,-71.9281"/>
</g>
<!-- 11 -->
<g id="node10" class="node"><title>11</title>
<polygon fill="none" stroke="black" points="202.5,-75 202.5,-111 337.5,-111 337.5,-75 202.5,-75"/>
<text text-anchor="middle" x="270" y="-89.4" font-family="Times Roman,serif" font-size="14.00">SharkWithLasers</text>
</g>
<!-- 10&#45;&gt;11 -->
<g id="edge16" class="edge"><title>10&#45;&gt;11</title>
<path fill="none" stroke="black" d="M291.079,-37.2921C287.857,-45.8053 283.958,-56.1115 280.393,-65.5329"/>
<polygon fill="none" stroke="black" points="277.107,-64.3268 276.842,-74.9183 283.654,-66.8041 277.107,-64.3268"/>
</g>
<!-- 11&#45;&gt;6 -->
<g id="edge22" class="edge"><title>11&#45;&gt;6</title>
<path fill="none" stroke="black" d="M270,-111.292C270,-119.536 270,-129.462 270,-138.638"/>
<polygon fill="none" stroke="black" points="266.5,-138.918 270,-148.918 273.5,-138.918 266.5,-138.918"/>
</g>
<!-- 11&#45;&gt;9 -->
<g id="edge20" class="edge"><title>11&#45;&gt;9</title>
<path fill="none" stroke="black" d="M314.527,-111.064C337.395,-120.55 365.832,-132.668 398.188,-147.738"/>
<polygon fill="none" stroke="black" points="396.877,-150.989 407.417,-152.067 399.85,-144.651 396.877,-150.989"/>
</g>
<!-- 12 -->
<g id="node11" class="node"><title>12</title>
<polygon fill="none" stroke="black" points="468.5,-75 468.5,-111 625.5,-111 625.5,-75 468.5,-75"/>
<text text-anchor="middle" x="547" y="-89.4" font-family="Times Roman,serif" font-size="14.00">OrcaWithNunchucks</text>
</g>
<!-- 12&#45;&gt;4 -->
<g id="edge24" class="edge"><title>12&#45;&gt;4</title>
<path fill="none" stroke="black" d="M493.239,-111.083C467.074,-120.32 435.11,-132.245 399.474,-148.012"/>
<polygon fill="none" stroke="black" points="398.032,-144.822 390.336,-152.104 400.893,-151.211 398.032,-144.822"/>
</g>
<!-- 13 -->
<g id="node12" class="node"><title>13</title>
<polygon fill="none" stroke="black" points="486,-149 486,-185 608,-185 608,-149 486,-149"/>
<text text-anchor="middle" x="547" y="-163.4" font-family="Times Roman,serif" font-size="14.00">NunchuckMixin</text>
</g>
<!-- 12&#45;&gt;13 -->
<g id="edge26" class="edge"><title>12&#45;&gt;13</title>
<path fill="none" stroke="black" d="M547,-111.292C547,-119.536 547,-129.462 547,-138.638"/>
<polygon fill="none" stroke="black" points="543.5,-138.918 547,-148.918 550.5,-138.918 543.5,-138.918"/>
</g>
<!-- 13&#45;&gt;7 -->
<g id="edge28" class="edge"><title>13&#45;&gt;7</title>
<path fill="none" stroke="black" d="M485.686,-183.274C448.479,-193.537 400.19,-207.547 358,-222 357.417,-222.2 356.831,-222.402 356.242,-222.608"/>
<polygon fill="none" stroke="black" points="354.765,-219.42 346.558,-226.12 357.152,-226.001 354.765,-219.42"/>
</g>
<!-- 14 -->
<g id="node13" class="node"><title>14</title>
<polygon fill="none" stroke="black" points="412,-1 412,-37 628,-37 628,-1 412,-1"/>
<text text-anchor="middle" x="520" y="-15.4" font-family="Times Roman,serif" font-size="14.00">ArmoredOrcaWithNunchucks</text>
</g>
<!-- 14&#45;&gt;8 -->
<g id="edge32" class="edge"><title>14&#45;&gt;8</title>
<path fill="none" stroke="black" d="M491.379,-37.1024C476.081,-46.7779 457.057,-58.8102 440.582,-69.2302"/>
<polygon fill="none" stroke="black" points="438.312,-66.5246 431.731,-74.828 442.054,-72.4406 438.312,-66.5246"/>
</g>
<!-- 14&#45;&gt;12 -->
<g id="edge30" class="edge"><title>14&#45;&gt;12</title>
<path fill="none" stroke="black" d="M526.674,-37.2921C529.748,-45.7157 533.462,-55.8948 536.87,-65.2351"/>
<polygon fill="none" stroke="black" points="533.687,-66.7237 540.403,-74.9183 540.263,-64.3244 533.687,-66.7237"/>
</g>
<!-- 15 -->
<g id="node14" class="node"><title>15</title>
<polygon fill="none" stroke="black" points="646,-1 646,-37 870,-37 870,-1 646,-1"/>
<text text-anchor="middle" x="758" y="-15.4" font-family="Times Roman,serif" font-size="14.00">ArmoredSharkWithNunchucks</text>
</g>
<!-- 15&#45;&gt;8 -->
<g id="edge36" class="edge"><title>15&#45;&gt;8</title>
<path fill="none" stroke="black" d="M651.481,-37.0508C586.083,-48.4209 507.553,-62.6592 461.045,-73.9481"/>
<polygon fill="none" stroke="black" points="459.907,-70.625 451.061,-76.4563 461.613,-77.414 459.907,-70.625"/>
</g>
<!-- 16 -->
<g id="node15" class="node"><title>16</title>
<polygon fill="none" stroke="black" points="642.5,-75 642.5,-111 807.5,-111 807.5,-75 642.5,-75"/>
<text text-anchor="middle" x="725" y="-89.4" font-family="Times Roman,serif" font-size="14.00">SharkWithNunchucks</text>
</g>
<!-- 15&#45;&gt;16 -->
<g id="edge34" class="edge"><title>15&#45;&gt;16</title>
<path fill="none" stroke="black" d="M749.843,-37.2921C746.046,-45.8053 741.45,-56.1115 737.249,-65.5329"/>
<polygon fill="none" stroke="black" points="733.94,-64.3597 733.063,-74.9183 740.333,-67.2108 733.94,-64.3597"/>
</g>
<!-- 16&#45;&gt;9 -->
<g id="edge38" class="edge"><title>16&#45;&gt;9</title>
<path fill="none" stroke="black" d="M642.348,-110.406C576.497,-124.429 492.797,-142.658 477,-148 476.122,-148.297 475.238,-148.607 474.35,-148.928"/>
<polygon fill="none" stroke="black" points="472.806,-145.775 464.801,-152.714 475.387,-152.282 472.806,-145.775"/>
</g>
<!-- 16&#45;&gt;13 -->
<g id="edge40" class="edge"><title>16&#45;&gt;13</title>
<path fill="none" stroke="black" d="M681.456,-111.102C656.798,-121.354 625.777,-134.25 599.746,-145.072"/>
<polygon fill="none" stroke="black" points="598.293,-141.886 590.402,-148.956 600.98,-148.349 598.293,-141.886"/>
</g>
</g>
</svg>
