<?xml version="1.0" encoding="UTF-8" standalone="no"?>
<!DOCTYPE svg PUBLIC "-//W3C//DTD SVG 1.1//EN"
 "http://www.w3.org/Graphics/SVG/1.1/DTD/svg11.dtd">
<!-- Generated by graphviz version 2.26.3 (20100126.1600)
 -->
<!-- Title: classes_No_Name Pages: 1 -->
<svg width="642pt" height="194pt"
 viewBox="0.00 0.00 642.00 194.00" xmlns="http://www.w3.org/2000/svg" xmlns:xlink="http://www.w3.org/1999/xlink">
<g id="graph1" class="graph" transform="scale(1 1) rotate(0) translate(4 190)">
<title>classes_No_Name</title>
<polygon fill="white" stroke="white" points="-4,5 -4,-190 639,-190 639,5 -4,5"/>
<!-- 2 -->
<g id="node1" class="node"><title>2</title>
<polygon fill="none" stroke="black" points="508,-1 508,-37 634,-37 634,-1 508,-1"/>
<text text-anchor="middle" x="571" y="-15.4" font-family="Times Roman,serif" font-size="14.00">OrcaWithLasers</text>
</g>
<!-- 3 -->
<g id="node2" class="node"><title>3</title>
<polygon fill="none" stroke="black" points="464,-75 464,-111 518,-111 518,-75 464,-75"/>
<text text-anchor="middle" x="491" y="-89.4" font-family="Times Roman,serif" font-size="14.00">Orca</text>
</g>
<!-- 2&#45;&gt;3 -->
<g id="edge2" class="edge"><title>2&#45;&gt;3</title>
<path fill="none" stroke="black" d="M551.225,-37.2921C541.246,-46.5222 528.989,-57.8601 518.143,-67.8926"/>
<polygon fill="none" stroke="black" points="515.512,-65.5585 510.548,-74.9183 520.265,-70.6972 515.512,-65.5585"/>
</g>
<!-- 5 -->
<g id="node4" class="node"><title>5</title>
<polygon fill="none" stroke="black" points="355.5,-75 355.5,-111 446.5,-111 446.5,-75 355.5,-75"/>
<text text-anchor="middle" x="401" y="-89.4" font-family="Times Roman,serif" font-size="14.00">LaserMixin</text>
</g>
<!-- 2&#45;&gt;5 -->
<g id="edge4" class="edge"><title>2&#45;&gt;5</title>
<path fill="none" stroke="black" d="M529.413,-37.1024C505.967,-47.3086 476.496,-60.1371 451.703,-70.9295"/>
<polygon fill="none" stroke="black" points="450.224,-67.7559 442.452,-74.9564 453.018,-74.1742 450.224,-67.7559"/>
</g>
<!-- 4 -->
<g id="node3" class="node"><title>4</title>
<polygon fill="none" stroke="black" points="427,-149 427,-185 491,-185 491,-149 427,-149"/>
<text text-anchor="middle" x="459" y="-163.4" font-family="Times Roman,serif" font-size="14.00">Animal</text>
</g>
<!-- 3&#45;&gt;4 -->
<g id="edge6" class="edge"><title>3&#45;&gt;4</title>
<path fill="none" stroke="black" d="M483.09,-111.292C479.409,-119.805 474.952,-130.112 470.878,-139.533"/>
<polygon fill="none" stroke="black" points="467.576,-138.35 466.819,-148.918 474.001,-141.129 467.576,-138.35"/>
</g>
<!-- 6 -->
<g id="node5" class="node"><title>6</title>
<polygon fill="none" stroke="black" points="272.5,-149 272.5,-185 345.5,-185 345.5,-149 272.5,-149"/>
<text text-anchor="middle" x="309" y="-163.4" font-family="Times Roman,serif" font-size="14.00">Weapon</text>
</g>
<!-- 5&#45;&gt;6 -->
<g id="edge8" class="edge"><title>5&#45;&gt;6</title>
<path fill="none" stroke="black" d="M378.258,-111.292C366.56,-120.701 352.139,-132.301 339.49,-142.475"/>
<polygon fill="none" stroke="black" points="337.078,-139.923 331.48,-148.918 341.466,-145.378 337.078,-139.923"/>
</g>
<!-- 7 -->
<g id="node6" class="node"><title>7</title>
<polygon fill="none" stroke="black" points="141.5,-75 141.5,-111 198.5,-111 198.5,-75 141.5,-75"/>
<text text-anchor="middle" x="170" y="-89.4" font-family="Times Roman,serif" font-size="14.00">Shark</text>
</g>
<!-- 7&#45;&gt;4 -->
<g id="edge10" class="edge"><title>7&#45;&gt;4</title>
<path fill="none" stroke="black" d="M198.766,-108.669C201.509,-109.889 204.281,-111.024 207,-112 245.149,-125.694 355.356,-147.523 416.635,-159.135"/>
<polygon fill="none" stroke="black" points="416.28,-162.63 426.755,-161.044 417.577,-155.751 416.28,-162.63"/>
</g>
<!-- 8 -->
<g id="node7" class="node"><title>8</title>
<polygon fill="none" stroke="black" points="333.5,-1 333.5,-37 490.5,-37 490.5,-1 333.5,-1"/>
<text text-anchor="middle" x="412" y="-15.4" font-family="Times Roman,serif" font-size="14.00">OrcaWithNunchucks</text>
</g>
<!-- 8&#45;&gt;3 -->
<g id="edge12" class="edge"><title>8&#45;&gt;3</title>
<path fill="none" stroke="black" d="M431.528,-37.2921C441.382,-46.5222 453.486,-57.8601 464.196,-67.8926"/>
<polygon fill="none" stroke="black" points="462.006,-70.6363 471.697,-74.9183 466.791,-65.5275 462.006,-70.6363"/>
</g>
<!-- 9 -->
<g id="node8" class="node"><title>9</title>
<polygon fill="none" stroke="black" points="216,-75 216,-111 338,-111 338,-75 216,-75"/>
<text text-anchor="middle" x="277" y="-89.4" font-family="Times Roman,serif" font-size="14.00">NunchuckMixin</text>
</g>
<!-- 8&#45;&gt;9 -->
<g id="edge14" class="edge"><title>8&#45;&gt;9</title>
<path fill="none" stroke="black" d="M378.975,-37.1024C360.915,-47.0019 338.355,-59.3685 319.049,-69.9511"/>
<polygon fill="none" stroke="black" points="317.238,-66.9521 310.152,-74.828 320.603,-73.0904 317.238,-66.9521"/>
</g>
<!-- 9&#45;&gt;6 -->
<g id="edge16" class="edge"><title>9&#45;&gt;6</title>
<path fill="none" stroke="black" d="M284.91,-111.292C288.591,-119.805 293.048,-130.112 297.122,-139.533"/>
<polygon fill="none" stroke="black" points="293.999,-141.129 301.181,-148.918 300.424,-138.35 293.999,-141.129"/>
</g>
<!-- 10 -->
<g id="node9" class="node"><title>10</title>
<polygon fill="none" stroke="black" points="181.5,-1 181.5,-37 316.5,-37 316.5,-1 181.5,-1"/>
<text text-anchor="middle" x="249" y="-15.4" font-family="Times Roman,serif" font-size="14.00">SharkWithLasers</text>
</g>
<!-- 10&#45;&gt;5 -->
<g id="edge20" class="edge"><title>10&#45;&gt;5</title>
<path fill="none" stroke="black" d="M286.183,-37.1024C306.87,-47.1737 332.802,-59.7985 354.785,-70.5005"/>
<polygon fill="none" stroke="black" points="353.414,-73.7259 363.937,-74.9564 356.478,-67.4322 353.414,-73.7259"/>
</g>
<!-- 10&#45;&gt;7 -->
<g id="edge18" class="edge"><title>10&#45;&gt;7</title>
<path fill="none" stroke="black" d="M229.472,-37.2921C219.618,-46.5222 207.514,-57.8601 196.804,-67.8926"/>
<polygon fill="none" stroke="black" points="194.209,-65.5275 189.303,-74.9183 198.994,-70.6363 194.209,-65.5275"/>
</g>
<!-- 11 -->
<g id="node10" class="node"><title>11</title>
<polygon fill="none" stroke="black" points="-0.5,-1 -0.5,-37 164.5,-37 164.5,-1 -0.5,-1"/>
<text text-anchor="middle" x="82" y="-15.4" font-family="Times Roman,serif" font-size="14.00">SharkWithNunchucks</text>
</g>
<!-- 11&#45;&gt;7 -->
<g id="edge22" class="edge"><title>11&#45;&gt;7</title>
<path fill="none" stroke="black" d="M103.753,-37.2921C114.942,-46.7014 128.737,-58.3012 140.836,-68.4755"/>
<polygon fill="none" stroke="black" points="138.591,-71.161 148.497,-74.9183 143.096,-65.8035 138.591,-71.161"/>
</g>
<!-- 11&#45;&gt;9 -->
<g id="edge24" class="edge"><title>11&#45;&gt;9</title>
<path fill="none" stroke="black" d="M129.702,-37.1024C156.952,-47.4435 191.297,-60.4767 219.966,-71.3563"/>
<polygon fill="none" stroke="black" points="218.861,-74.6806 229.453,-74.9564 221.345,-68.136 218.861,-74.6806"/>
</g>
</g>
</svg>
