<?xml version="1.0" encoding="UTF-8" standalone="no"?>
<!DOCTYPE svg PUBLIC "-//W3C//DTD SVG 1.1//EN"
 "http://www.w3.org/Graphics/SVG/1.1/DTD/svg11.dtd">
<!-- Generated by graphviz version 2.26.3 (20100126.1600)
 -->
<!-- Title: classes_No_Name Pages: 1 -->
<svg width="386pt" height="120pt"
 viewBox="0.00 0.00 386.00 120.00" xmlns="http://www.w3.org/2000/svg" xmlns:xlink="http://www.w3.org/1999/xlink">
<g id="graph1" class="graph" transform="scale(1 1) rotate(0) translate(4 116)">
<title>classes_No_Name</title>
<polygon fill="white" stroke="white" points="-4,5 -4,-116 383,-116 383,5 -4,5"/>
<!-- 2 -->
<g id="node1" class="node"><title>2</title>
<polygon fill="none" stroke="black" points="-0.5,-1 -0.5,-37 84.5,-37 84.5,-1 -0.5,-1"/>
<text text-anchor="middle" x="42" y="-15.4" font-family="Times Roman,serif" font-size="14.00">Nunchuck</text>
</g>
<!-- 3 -->
<g id="node2" class="node"><title>3</title>
<polygon fill="none" stroke="black" points="42.5,-75 42.5,-111 115.5,-111 115.5,-75 42.5,-75"/>
<text text-anchor="middle" x="79" y="-89.4" font-family="Times Roman,serif" font-size="14.00">Weapon</text>
</g>
<!-- 2&#45;&gt;3 -->
<g id="edge2" class="edge"><title>2&#45;&gt;3</title>
<path fill="none" stroke="black" d="M51.1461,-37.2921C55.4475,-45.8949 60.6644,-56.3287 65.415,-65.8301"/>
<polygon fill="none" stroke="black" points="62.3564,-67.5393 69.9591,-74.9183 68.6174,-64.4087 62.3564,-67.5393"/>
</g>
<!-- 4 -->
<g id="node3" class="node"><title>4</title>
<polygon fill="none" stroke="black" points="173.5,-1 173.5,-37 230.5,-37 230.5,-1 173.5,-1"/>
<text text-anchor="middle" x="202" y="-15.4" font-family="Times Roman,serif" font-size="14.00">Shark</text>
</g>
<!-- 5 -->
<g id="node4" class="node"><title>5</title>
<polygon fill="none" stroke="black" points="206,-75 206,-111 270,-111 270,-75 206,-75"/>
<text text-anchor="middle" x="238" y="-89.4" font-family="Times Roman,serif" font-size="14.00">Animal</text>
</g>
<!-- 4&#45;&gt;5 -->
<g id="edge4" class="edge"><title>4&#45;&gt;5</title>
<path fill="none" stroke="black" d="M210.899,-37.2921C215.084,-45.8949 220.16,-56.3287 224.782,-65.8301"/>
<polygon fill="none" stroke="black" points="221.681,-67.4571 229.203,-74.9183 227.976,-64.3948 221.681,-67.4571"/>
</g>
<!-- 6 -->
<g id="node5" class="node"><title>6</title>
<polygon fill="none" stroke="black" points="102,-1 102,-37 156,-37 156,-1 102,-1"/>
<text text-anchor="middle" x="129" y="-15.4" font-family="Times Roman,serif" font-size="14.00">Laser</text>
</g>
<!-- 6&#45;&gt;3 -->
<g id="edge6" class="edge"><title>6&#45;&gt;3</title>
<path fill="none" stroke="black" d="M116.64,-37.2921C110.707,-46.0741 103.484,-56.7643 96.9577,-66.4227"/>
<polygon fill="none" stroke="black" points="93.9159,-64.6729 91.2174,-74.9183 99.7161,-68.5919 93.9159,-64.6729"/>
</g>
<!-- 7 -->
<g id="node6" class="node"><title>7</title>
<polygon fill="none" stroke="black" points="319.5,-1 319.5,-37 378.5,-37 378.5,-1 319.5,-1"/>
<text text-anchor="middle" x="349" y="-15.4" font-family="Times Roman,serif" font-size="14.00">Armor</text>
</g>
<!-- 8 -->
<g id="node7" class="node"><title>8</title>
<polygon fill="none" stroke="black" points="248,-1 248,-37 302,-37 302,-1 248,-1"/>
<text text-anchor="middle" x="275" y="-15.4" font-family="Times Roman,serif" font-size="14.00">Orca</text>
</g>
<!-- 8&#45;&gt;5 -->
<g id="edge8" class="edge"><title>8&#45;&gt;5</title>
<path fill="none" stroke="black" d="M265.854,-37.2921C261.553,-45.8949 256.336,-56.3287 251.585,-65.8301"/>
<polygon fill="none" stroke="black" points="248.383,-64.4087 247.041,-74.9183 254.644,-67.5393 248.383,-64.4087"/>
</g>
</g>
</svg>
