<?xml version="1.0" encoding="UTF-8" standalone="no"?>
<!DOCTYPE svg PUBLIC "-//W3C//DTD SVG 1.1//EN"
 "http://www.w3.org/Graphics/SVG/1.1/DTD/svg11.dtd">
<!-- Generated by graphviz version 2.34.0 (20131025.1804)
 -->
<!-- Title: classes_No_Name Pages: 1 -->
<svg width="369pt" height="120pt"
 viewBox="0.00 0.00 369.00 120.00" xmlns="http://www.w3.org/2000/svg" xmlns:xlink="http://www.w3.org/1999/xlink">
<g id="graph0" class="graph" transform="scale(1 1) rotate(0) translate(4 116)">
<title>classes_No_Name</title>
<polygon fill="white" stroke="white" points="-4,4 -4,-116 365,-116 365,4 -4,4"/>
<!-- 2 -->
<g id="node1" class="node"><title>2</title>
<polygon fill="none" stroke="black" points="-0.769043,-1 -0.769043,-37 72.769,-37 72.769,-1 -0.769043,-1"/>
<text text-anchor="middle" x="36" y="-13.4" font-family="Times,serif" font-size="14.00">Nunchuck</text>
</g>
<!-- 3 -->
<g id="node2" class="node"><title>3</title>
<polygon fill="none" stroke="black" points="43.2363,-75 43.2363,-111 104.764,-111 104.764,-75 43.2363,-75"/>
<text text-anchor="middle" x="74" y="-87.4" font-family="Times,serif" font-size="14.00">Weapon</text>
</g>
<!-- 2&#45;&gt;3 -->
<g id="edge1" class="edge"><title>2&#45;&gt;3</title>
<path fill="none" stroke="black" d="M45.0055,-37.063C49.4828,-45.5463 54.9952,-55.9908 60.007,-65.487"/>
<polygon fill="none" stroke="black" points="57.0322,-67.3491 64.7952,-74.5593 63.2229,-64.0818 57.0322,-67.3491"/>
</g>
<!-- 4 -->
<g id="node3" class="node"><title>4</title>
<polygon fill="none" stroke="black" points="163,-1 163,-37 217,-37 217,-1 163,-1"/>
<text text-anchor="middle" x="189.831" y="-13.4" font-family="Times,serif" font-size="14.00">Shark</text>
</g>
<!-- 5 -->
<g id="node4" class="node"><title>5</title>
<polygon fill="none" stroke="black" points="197.003,-75 197.003,-111 254.997,-111 254.997,-75 197.003,-75"/>
<text text-anchor="middle" x="226" y="-87.4" font-family="Times,serif" font-size="14.00">Animal</text>
</g>
<!-- 4&#45;&gt;5 -->
<g id="edge2" class="edge"><title>4&#45;&gt;5</title>
<path fill="none" stroke="black" d="M198.531,-37.063C202.773,-45.5463 207.995,-55.9908 212.744,-65.487"/>
<polygon fill="none" stroke="black" points="209.677,-67.1803 217.28,-74.5593 215.938,-64.0498 209.677,-67.1803"/>
</g>
<!-- 6 -->
<g id="node5" class="node"><title>6</title>
<polygon fill="none" stroke="black" points="91,-1 91,-37 145,-37 145,-1 91,-1"/>
<text text-anchor="middle" x="117.545" y="-13.4" font-family="Times,serif" font-size="14.00">Laser</text>
</g>
<!-- 6&#45;&gt;3 -->
<g id="edge3" class="edge"><title>6&#45;&gt;3</title>
<path fill="none" stroke="black" d="M107.573,-37.063C102.334,-45.6346 95.8725,-56.2086 90.0212,-65.7835"/>
<polygon fill="none" stroke="black" points="86.8862,-64.2014 84.6582,-74.5593 92.8592,-67.8516 86.8862,-64.2014"/>
</g>
<!-- 7 -->
<g id="node6" class="node"><title>7</title>
<polygon fill="none" stroke="black" points="307,-1 307,-37 361,-37 361,-1 307,-1"/>
<text text-anchor="middle" x="333.662" y="-13.4" font-family="Times,serif" font-size="14.00">Armor</text>
</g>
<!-- 8 -->
<g id="node7" class="node"><title>8</title>
<polygon fill="none" stroke="black" points="235,-1 235,-37 289,-37 289,-1 235,-1"/>
<text text-anchor="middle" x="261.6" y="-13.4" font-family="Times,serif" font-size="14.00">Orca</text>
</g>
<!-- 8&#45;&gt;5 -->
<g id="edge4" class="edge"><title>8&#45;&gt;5</title>
<path fill="none" stroke="black" d="M253.469,-37.063C249.227,-45.5463 244.005,-55.9908 239.256,-65.487"/>
<polygon fill="none" stroke="black" points="236.062,-64.0498 234.72,-74.5593 242.323,-67.1803 236.062,-64.0498"/>
</g>
</g>
</svg>
