<?xml version="1.0" encoding="UTF-8" standalone="no"?>
<!DOCTYPE svg PUBLIC "-//W3C//DTD SVG 1.1//EN"
 "http://www.w3.org/Graphics/SVG/1.1/DTD/svg11.dtd">
<!-- Generated by graphviz version 10.0.1 (20240210.2158)
 -->
<!-- Title: classes Pages: 1 -->
<svg width="542pt" height="191pt"
 viewBox="0.00 0.00 541.88 191.00" xmlns="http://www.w3.org/2000/svg" xmlns:xlink="http://www.w3.org/1999/xlink">
<g id="graph0" class="graph" transform="scale(1 1) rotate(0) translate(4 187)">
<title>classes</title>
<polygon fill="white" stroke="none" points="-4,4 -4,-187 537.88,-187 537.88,4 -4,4"/>
<!-- shark_inherit_2.Animal -->
<g id="node1" class="node">
<title>shark_inherit_2.Animal</title>
<polygon fill="none" stroke="black" points="361,-146.5 361,-182.5 418.25,-182.5 418.25,-146.5 361,-146.5"/>
<text text-anchor="start" x="369" y="-159.45" font-family="Times,serif" font-size="14.00">Animal</text>
</g>
<!-- shark_inherit_2.LaserMixin -->
<g id="node2" class="node">
<title>shark_inherit_2.LaserMixin</title>
<polygon fill="none" stroke="black" points="296.75,-73.5 296.75,-109.5 376.5,-109.5 376.5,-73.5 296.75,-73.5"/>
<text text-anchor="start" x="304.75" y="-86.45" font-family="Times,serif" font-size="14.00">LaserMixin</text>
</g>
<!-- shark_inherit_2.Weapon -->
<g id="node10" class="node">
<title>shark_inherit_2.Weapon</title>
<polygon fill="none" stroke="black" points="250.12,-146.5 250.12,-182.5 311.12,-182.5 311.12,-146.5 250.12,-146.5"/>
<text text-anchor="start" x="258.12" y="-159.45" font-family="Times,serif" font-size="14.00">Weapon</text>
</g>
<!-- shark_inherit_2.LaserMixin&#45;&gt;shark_inherit_2.Weapon -->
<g id="edge1" class="edge">
<title>shark_inherit_2.LaserMixin&#45;&gt;shark_inherit_2.Weapon</title>
<path fill="none" stroke="black" d="M323.07,-109.69C316.47,-118.06 308.39,-128.3 301.06,-137.6"/>
<polygon fill="none" stroke="black" points="298.44,-135.26 294.99,-145.28 303.93,-139.6 298.44,-135.26"/>
</g>
<!-- shark_inherit_2.NunchuckMixin -->
<g id="node3" class="node">
<title>shark_inherit_2.NunchuckMixin</title>
<polygon fill="none" stroke="black" points="173,-73.5 173,-109.5 278.25,-109.5 278.25,-73.5 173,-73.5"/>
<text text-anchor="start" x="181" y="-86.45" font-family="Times,serif" font-size="14.00">NunchuckMixin</text>
</g>
<!-- shark_inherit_2.NunchuckMixin&#45;&gt;shark_inherit_2.Weapon -->
<g id="edge2" class="edge">
<title>shark_inherit_2.NunchuckMixin&#45;&gt;shark_inherit_2.Weapon</title>
<path fill="none" stroke="black" d="M238.94,-109.69C245.42,-118.06 253.36,-128.3 260.56,-137.6"/>
<polygon fill="none" stroke="black" points="257.62,-139.51 266.51,-145.27 263.15,-135.23 257.62,-139.51"/>
</g>
<!-- shark_inherit_2.Orca -->
<g id="node4" class="node">
<title>shark_inherit_2.Orca</title>
<polygon fill="none" stroke="black" points="394.62,-73.5 394.62,-109.5 448.62,-109.5 448.62,-73.5 394.62,-73.5"/>
<text text-anchor="start" x="408.12" y="-86.45" font-family="Times,serif" font-size="14.00">Orca</text>
</g>
<!-- shark_inherit_2.Orca&#45;&gt;shark_inherit_2.Animal -->
<g id="edge3" class="edge">
<title>shark_inherit_2.Orca&#45;&gt;shark_inherit_2.Animal</title>
<path fill="none" stroke="black" d="M413.88,-109.69C410.3,-117.62 405.97,-127.24 401.96,-136.14"/>
<polygon fill="none" stroke="black" points="398.84,-134.54 397.92,-145.09 405.22,-137.41 398.84,-134.54"/>
</g>
<!-- shark_inherit_2.OrcaWithLasers -->
<g id="node5" class="node">
<title>shark_inherit_2.OrcaWithLasers</title>
<polygon fill="none" stroke="black" points="429.38,-0.5 429.38,-36.5 533.88,-36.5 533.88,-0.5 429.38,-0.5"/>
<text text-anchor="start" x="437.38" y="-13.45" font-family="Times,serif" font-size="14.00">OrcaWithLasers</text>
</g>
<!-- shark_inherit_2.OrcaWithLasers&#45;&gt;shark_inherit_2.LaserMixin -->
<g id="edge4" class="edge">
<title>shark_inherit_2.OrcaWithLasers&#45;&gt;shark_inherit_2.LaserMixin</title>
<path fill="none" stroke="black" d="M446.15,-36.87C426.93,-46.28 402.96,-58.02 382.35,-68.11"/>
<polygon fill="none" stroke="black" points="381.03,-64.86 373.59,-72.4 384.11,-71.14 381.03,-64.86"/>
</g>
<!-- shark_inherit_2.OrcaWithLasers&#45;&gt;shark_inherit_2.Orca -->
<g id="edge5" class="edge">
<title>shark_inherit_2.OrcaWithLasers&#45;&gt;shark_inherit_2.Orca</title>
<path fill="none" stroke="black" d="M467.1,-36.69C459.95,-45.15 451.19,-55.52 443.27,-64.89"/>
<polygon fill="none" stroke="black" points="440.77,-62.42 436.99,-72.32 446.12,-66.94 440.77,-62.42"/>
</g>
<!-- shark_inherit_2.OrcaWithNunchucks -->
<g id="node6" class="node">
<title>shark_inherit_2.OrcaWithNunchucks</title>
<polygon fill="none" stroke="black" points="281.62,-0.5 281.62,-36.5 411.62,-36.5 411.62,-0.5 281.62,-0.5"/>
<text text-anchor="start" x="289.62" y="-13.45" font-family="Times,serif" font-size="14.00">OrcaWithNunchucks</text>
</g>
<!-- shark_inherit_2.OrcaWithNunchucks&#45;&gt;shark_inherit_2.NunchuckMixin -->
<g id="edge6" class="edge">
<title>shark_inherit_2.OrcaWithNunchucks&#45;&gt;shark_inherit_2.NunchuckMixin</title>
<path fill="none" stroke="black" d="M317.03,-36.87C301.35,-46.07 281.89,-57.48 264.97,-67.42"/>
<polygon fill="none" stroke="black" points="263.5,-64.22 256.64,-72.3 267.04,-70.26 263.5,-64.22"/>
</g>
<!-- shark_inherit_2.OrcaWithNunchucks&#45;&gt;shark_inherit_2.Orca -->
<g id="edge7" class="edge">
<title>shark_inherit_2.OrcaWithNunchucks&#45;&gt;shark_inherit_2.Orca</title>
<path fill="none" stroke="black" d="M364.78,-36.69C373.93,-45.34 385.18,-56 395.26,-65.54"/>
<polygon fill="none" stroke="black" points="392.61,-67.85 402.28,-72.18 397.42,-62.77 392.61,-67.85"/>
</g>
<!-- shark_inherit_2.Shark -->
<g id="node7" class="node">
<title>shark_inherit_2.Shark</title>
<polygon fill="none" stroke="black" points="100.62,-73.5 100.62,-109.5 154.62,-109.5 154.62,-73.5 100.62,-73.5"/>
<text text-anchor="start" x="111.62" y="-86.45" font-family="Times,serif" font-size="14.00">Shark</text>
</g>
<!-- shark_inherit_2.Shark&#45;&gt;shark_inherit_2.Animal -->
<g id="edge8" class="edge">
<title>shark_inherit_2.Shark&#45;&gt;shark_inherit_2.Animal</title>
<path fill="none" stroke="black" d="M154.87,-106.54C157.79,-107.8 160.74,-108.98 163.62,-110 231.14,-133.8 251.04,-129.2 320.62,-146 330.12,-148.29 340.34,-150.84 349.92,-153.26"/>
<polygon fill="none" stroke="black" points="348.77,-156.58 359.32,-155.66 350.5,-149.8 348.77,-156.58"/>
</g>
<!-- shark_inherit_2.SharkWithLasers -->
<g id="node8" class="node">
<title>shark_inherit_2.SharkWithLasers</title>
<polygon fill="none" stroke="black" points="153.75,-0.5 153.75,-36.5 263.5,-36.5 263.5,-0.5 153.75,-0.5"/>
<text text-anchor="start" x="161.75" y="-13.45" font-family="Times,serif" font-size="14.00">SharkWithLasers</text>
</g>
<!-- shark_inherit_2.SharkWithLasers&#45;&gt;shark_inherit_2.LaserMixin -->
<g id="edge9" class="edge">
<title>shark_inherit_2.SharkWithLasers&#45;&gt;shark_inherit_2.LaserMixin</title>
<path fill="none" stroke="black" d="M239.94,-36.87C256.6,-46.11 277.29,-57.59 295.26,-67.55"/>
<polygon fill="none" stroke="black" points="293.43,-70.54 303.87,-72.33 296.82,-64.42 293.43,-70.54"/>
</g>
<!-- shark_inherit_2.SharkWithLasers&#45;&gt;shark_inherit_2.Shark -->
<g id="edge10" class="edge">
<title>shark_inherit_2.SharkWithLasers&#45;&gt;shark_inherit_2.Shark</title>
<path fill="none" stroke="black" d="M189.02,-36.69C179.04,-45.43 166.74,-56.22 155.77,-65.83"/>
<polygon fill="none" stroke="black" points="153.68,-63 148.47,-72.23 158.3,-68.27 153.68,-63"/>
</g>
<!-- shark_inherit_2.SharkWithNunchucks -->
<g id="node9" class="node">
<title>shark_inherit_2.SharkWithNunchucks</title>
<polygon fill="none" stroke="black" points="0,-0.5 0,-36.5 135.25,-36.5 135.25,-0.5 0,-0.5"/>
<text text-anchor="start" x="8" y="-13.45" font-family="Times,serif" font-size="14.00">SharkWithNunchucks</text>
</g>
<!-- shark_inherit_2.SharkWithNunchucks&#45;&gt;shark_inherit_2.NunchuckMixin -->
<g id="edge11" class="edge">
<title>shark_inherit_2.SharkWithNunchucks&#45;&gt;shark_inherit_2.NunchuckMixin</title>
<path fill="none" stroke="black" d="M106.28,-36.87C127.41,-46.37 153.82,-58.23 176.41,-68.39"/>
<polygon fill="none" stroke="black" points="174.89,-71.54 185.44,-72.44 177.76,-65.15 174.89,-71.54"/>
</g>
<!-- shark_inherit_2.SharkWithNunchucks&#45;&gt;shark_inherit_2.Shark -->
<g id="edge12" class="edge">
<title>shark_inherit_2.SharkWithNunchucks&#45;&gt;shark_inherit_2.Shark</title>
<path fill="none" stroke="black" d="M82.15,-36.69C89.3,-45.15 98.06,-55.52 105.98,-64.89"/>
<polygon fill="none" stroke="black" points="103.13,-66.94 112.26,-72.32 108.48,-62.42 103.13,-66.94"/>
</g>
</g>
</svg>
