<?xml version="1.0" encoding="UTF-8" standalone="no"?>
<!DOCTYPE svg PUBLIC "-//W3C//DTD SVG 1.1//EN"
 "http://www.w3.org/Graphics/SVG/1.1/DTD/svg11.dtd">
<!-- Generated by graphviz version 2.34.0 (20131025.1804)
 -->
<!-- Title: classes_No_Name Pages: 1 -->
<svg width="1957pt" height="120pt"
 viewBox="0.00 0.00 1957.00 120.00" xmlns="http://www.w3.org/2000/svg" xmlns:xlink="http://www.w3.org/1999/xlink">
<g id="graph0" class="graph" transform="scale(1 1) rotate(0) translate(4 116)">
<title>classes_No_Name</title>
<polygon fill="white" stroke="white" points="-4,4 -4,-116 1953,-116 1953,4 -4,4"/>
<!-- 2 -->
<g id="node1" class="node"><title>2</title>
<polygon fill="none" stroke="black" points="1282.93,-1 1282.93,-37 1431.07,-37 1431.07,-1 1282.93,-1"/>
<text text-anchor="middle" x="1357" y="-13.4" font-family="Times,serif" font-size="14.00">DataSetCollectionView</text>
</g>
<!-- 3 -->
<g id="node2" class="node"><title>3</title>
<polygon fill="none" stroke="black" points="577.352,-75 577.352,-111 742.648,-111 742.648,-75 577.352,-75"/>
<text text-anchor="middle" x="660" y="-87.4" font-family="Times,serif" font-size="14.00">Ignore_CacheBusterMixin</text>
</g>
<!-- 2&#45;&gt;3 -->
<g id="edge1" class="edge"><title>2&#45;&gt;3</title>
<path fill="none" stroke="black" d="M1282.9,-36.4766C1279.56,-37.0302 1276.25,-37.5422 1273,-38 1045.98,-69.9857 983.293,-44.1311 752.79,-73.8547"/>
<polygon fill="none" stroke="black" points="752.213,-70.4003 742.753,-75.1703 753.123,-77.341 752.213,-70.4003"/>
</g>
<!-- 4 -->
<g id="node3" class="node"><title>4</title>
<polygon fill="none" stroke="black" points="480.886,-75 480.886,-111 559.114,-111 559.114,-75 480.886,-75"/>
<text text-anchor="middle" x="520" y="-87.4" font-family="Times,serif" font-size="14.00">AuthMixin</text>
</g>
<!-- 2&#45;&gt;4 -->
<g id="edge2" class="edge"><title>2&#45;&gt;4</title>
<path fill="none" stroke="black" d="M1282.91,-36.5493C1279.57,-37.0832 1276.25,-37.5712 1273,-38 965.29,-78.5598 877.069,-11.631 569.369,-74.0994"/>
<polygon fill="none" stroke="black" points="568.355,-70.7347 559.267,-76.1805 569.767,-77.5908 568.355,-70.7347"/>
</g>
<!-- 5 -->
<g id="node4" class="node"><title>5</title>
<polygon fill="none" stroke="black" points="760.276,-75 760.276,-111 851.724,-111 851.724,-75 760.276,-75"/>
<text text-anchor="middle" x="806" y="-87.4" font-family="Times,serif" font-size="14.00">AbsUrlMixin</text>
</g>
<!-- 2&#45;&gt;5 -->
<g id="edge3" class="edge"><title>2&#45;&gt;5</title>
<path fill="none" stroke="black" d="M1282.89,-36.3897C1279.55,-36.9668 1276.24,-37.5076 1273,-38 1097.4,-64.656 1049.97,-43.4798 875,-74 870.629,-74.7625 866.129,-75.6644 861.622,-76.6516"/>
<polygon fill="none" stroke="black" points="860.744,-73.2622 851.792,-78.9283 862.323,-80.0817 860.744,-73.2622"/>
</g>
<!-- 6 -->
<g id="node5" class="node"><title>6</title>
<polygon fill="none" stroke="black" points="884.318,-75 884.318,-111 1081.68,-111 1081.68,-75 884.318,-75"/>
<text text-anchor="middle" x="983" y="-87.4" font-family="Times,serif" font-size="14.00">ModelViewWithDataBlobMixin</text>
</g>
<!-- 2&#45;&gt;6 -->
<g id="edge4" class="edge"><title>2&#45;&gt;6</title>
<path fill="none" stroke="black" d="M1282.82,-36.0095C1279.5,-36.6895 1276.22,-37.3559 1273,-38 1211.9,-50.233 1143.37,-63.0364 1088.27,-73.1045"/>
<polygon fill="none" stroke="black" points="1087.35,-69.714 1078.14,-74.9519 1088.61,-76.6003 1087.35,-69.714"/>
</g>
<!-- 7 -->
<g id="node6" class="node"><title>7</title>
<polygon fill="none" stroke="black" points="-0.62793,-1 -0.62793,-37 136.628,-37 136.628,-1 -0.62793,-1"/>
<text text-anchor="middle" x="68" y="-13.4" font-family="Times,serif" font-size="14.00">OwnerPasswordView</text>
</g>
<!-- 7&#45;&gt;3 -->
<g id="edge5" class="edge"><title>7&#45;&gt;3</title>
<path fill="none" stroke="black" d="M136.75,-36.5912C139.53,-37.0972 142.288,-37.57 145,-38 328.166,-67.0468 379.4,-48.5064 567.388,-74.0139"/>
<polygon fill="none" stroke="black" points="566.935,-77.4844 577.319,-75.3848 567.892,-70.5501 566.935,-77.4844"/>
</g>
<!-- 7&#45;&gt;4 -->
<g id="edge6" class="edge"><title>7&#45;&gt;4</title>
<path fill="none" stroke="black" d="M136.784,-36.3907C139.555,-36.9523 142.302,-37.4914 145,-38 260.976,-59.8633 398.594,-77.6062 470.546,-86.2644"/>
<polygon fill="none" stroke="black" points="470.33,-89.7634 480.675,-87.4753 471.161,-82.8129 470.33,-89.7634"/>
</g>
<!-- 7&#45;&gt;5 -->
<g id="edge7" class="edge"><title>7&#45;&gt;5</title>
<path fill="none" stroke="black" d="M136.736,-36.6796C139.52,-37.1612 142.283,-37.6047 145,-38 408.737,-76.3747 484.102,-24.9101 750.064,-74.1282"/>
<polygon fill="none" stroke="black" points="749.537,-77.5905 760.012,-75.9994 750.831,-70.7111 749.537,-77.5905"/>
</g>
<!-- 8 -->
<g id="node7" class="node"><title>8</title>
<polygon fill="none" stroke="black" points="1614.69,-1 1614.69,-37 1839.31,-37 1839.31,-1 1614.69,-1"/>
<text text-anchor="middle" x="1727" y="-13.4" font-family="Times,serif" font-size="14.00">IsOwnerOrSuperuserWithoutApiKey</text>
</g>
<!-- 9 -->
<g id="node8" class="node"><title>9</title>
<polygon fill="none" stroke="black" points="1659.52,-75 1659.52,-111 1794.48,-111 1794.48,-75 1659.52,-75"/>
<text text-anchor="middle" x="1727" y="-87.4" font-family="Times,serif" font-size="14.00">IsOwnerOrSuperuser</text>
</g>
<!-- 8&#45;&gt;9 -->
<g id="edge8" class="edge"><title>8&#45;&gt;9</title>
<path fill="none" stroke="black" d="M1727,-37.063C1727,-45.1928 1727,-55.1239 1727,-64.2953"/>
<polygon fill="none" stroke="black" points="1723.5,-64.5593 1727,-74.5593 1730.5,-64.5594 1723.5,-64.5593"/>
</g>
<!-- 10 -->
<g id="node9" class="node"><title>10</title>
<polygon fill="none" stroke="black" points="263.775,-1 263.775,-37 400.225,-37 400.225,-1 263.775,-1"/>
<text text-anchor="middle" x="332" y="-13.4" font-family="Times,serif" font-size="14.00">DataSetInstanceView</text>
</g>
<!-- 10&#45;&gt;3 -->
<g id="edge9" class="edge"><title>10&#45;&gt;3</title>
<path fill="none" stroke="black" d="M400.419,-36.0605C403.317,-36.7198 406.187,-37.3687 409,-38 461.987,-49.8922 521.39,-62.6958 569.1,-72.8497"/>
<polygon fill="none" stroke="black" points="568.588,-76.3189 579.097,-74.9749 570.044,-69.4719 568.588,-76.3189"/>
</g>
<!-- 10&#45;&gt;4 -->
<g id="edge10" class="edge"><title>10&#45;&gt;4</title>
<path fill="none" stroke="black" d="M376.553,-37.063C405.039,-47.9725 441.994,-62.1255 471.261,-73.3339"/>
<polygon fill="none" stroke="black" points="470.278,-76.7052 480.868,-77.0132 472.781,-70.1682 470.278,-76.7052"/>
</g>
<!-- 10&#45;&gt;5 -->
<g id="edge11" class="edge"><title>10&#45;&gt;5</title>
<path fill="none" stroke="black" d="M400.344,-36.4432C403.263,-36.9977 406.157,-37.52 409,-38 556.469,-62.8982 599.689,-42.9497 749.927,-74.0344"/>
<polygon fill="none" stroke="black" points="749.473,-77.5155 759.98,-76.1567 750.919,-70.6665 749.473,-77.5155"/>
</g>
<!-- 10&#45;&gt;6 -->
<g id="edge12" class="edge"><title>10&#45;&gt;6</title>
<path fill="none" stroke="black" d="M400.329,-36.5339C403.252,-37.0636 406.151,-37.5559 409,-38 607.682,-68.9731 660.189,-51.4296 860,-74 864.525,-74.5112 869.14,-75.0604 873.799,-75.6379"/>
<polygon fill="none" stroke="black" points="873.69,-79.1521 884.052,-76.9435 874.574,-72.2082 873.69,-79.1521"/>
</g>
<!-- 11 -->
<g id="node10" class="node"><title>11</title>
<polygon fill="none" stroke="black" points="1856.9,-1 1856.9,-37 1949.1,-37 1949.1,-1 1856.9,-1"/>
<text text-anchor="middle" x="1903" y="-13.4" font-family="Times,serif" font-size="14.00">CachedMixin</text>
</g>
<!-- 12 -->
<g id="node11" class="node"><title>12</title>
<polygon fill="none" stroke="black" points="417.934,-1 417.934,-37 552.066,-37 552.066,-1 417.934,-1"/>
<text text-anchor="middle" x="485" y="-13.4" font-family="Times,serif" font-size="14.00">PlaceCollectionView</text>
</g>
<!-- 12&#45;&gt;3 -->
<g id="edge13" class="edge"><title>12&#45;&gt;3</title>
<path fill="none" stroke="black" d="M526.473,-37.063C551.228,-47.248 582.854,-60.26 609.113,-71.0638"/>
<polygon fill="none" stroke="black" points="607.943,-74.3667 618.522,-74.9349 610.606,-67.8932 607.943,-74.3667"/>
</g>
<!-- 12&#45;&gt;4 -->
<g id="edge14" class="edge"><title>12&#45;&gt;4</title>
<path fill="none" stroke="black" d="M493.295,-37.063C497.418,-45.5463 502.496,-55.9908 507.112,-65.487"/>
<polygon fill="none" stroke="black" points="504.002,-67.0958 511.522,-74.5593 510.298,-64.0354 504.002,-67.0958"/>
</g>
<!-- 12&#45;&gt;5 -->
<g id="edge15" class="edge"><title>12&#45;&gt;5</title>
<path fill="none" stroke="black" d="M552.1,-36.066C555.105,-36.7307 558.082,-37.3784 561,-38 642.023,-55.2614 666.042,-52.8012 750.46,-74.0357"/>
<polygon fill="none" stroke="black" points="749.659,-77.4436 760.214,-76.526 751.391,-70.6611 749.659,-77.4436"/>
</g>
<!-- 12&#45;&gt;6 -->
<g id="edge16" class="edge"><title>12&#45;&gt;6</title>
<path fill="none" stroke="black" d="M552.463,-36.3948C555.342,-36.9625 558.197,-37.5009 561,-38 692.776,-61.4611 727.326,-56.308 860,-74 864.514,-74.602 869.12,-75.227 873.771,-75.8672"/>
<polygon fill="none" stroke="black" points="873.623,-79.3801 884.009,-77.2898 874.586,-72.4467 873.623,-79.3801"/>
</g>
<!-- 13 -->
<g id="node12" class="node"><title>13</title>
<polygon fill="none" stroke="black" points="569.775,-1 569.775,-37 692.225,-37 692.225,-1 569.775,-1"/>
<text text-anchor="middle" x="631" y="-13.4" font-family="Times,serif" font-size="14.00">PlaceInstanceView</text>
</g>
<!-- 13&#45;&gt;3 -->
<g id="edge17" class="edge"><title>13&#45;&gt;3</title>
<path fill="none" stroke="black" d="M637.873,-37.063C641.254,-45.4579 645.409,-55.7734 649.202,-65.19"/>
<polygon fill="none" stroke="black" points="645.993,-66.5911 652.975,-74.5593 652.486,-63.9758 645.993,-66.5911"/>
</g>
<!-- 13&#45;&gt;4 -->
<g id="edge18" class="edge"><title>13&#45;&gt;4</title>
<path fill="none" stroke="black" d="M604.695,-37.063C589.873,-46.6769 571.169,-58.8096 555.109,-69.2263"/>
<polygon fill="none" stroke="black" points="552.986,-66.4316 546.501,-74.81 556.796,-72.3044 552.986,-66.4316"/>
</g>
<!-- 13&#45;&gt;5 -->
<g id="edge19" class="edge"><title>13&#45;&gt;5</title>
<path fill="none" stroke="black" d="M672.473,-37.063C697.228,-47.248 728.854,-60.26 755.113,-71.0638"/>
<polygon fill="none" stroke="black" points="753.943,-74.3667 764.522,-74.9349 756.606,-67.8932 753.943,-74.3667"/>
</g>
<!-- 13&#45;&gt;6 -->
<g id="edge20" class="edge"><title>13&#45;&gt;6</title>
<path fill="none" stroke="black" d="M692.408,-36.0219C695.309,-36.7059 698.184,-37.3689 701,-38 758.578,-50.9023 823.201,-63.4182 876.044,-73.1465"/>
<polygon fill="none" stroke="black" points="875.642,-76.6311 886.11,-74.992 876.905,-69.7458 875.642,-76.6311"/>
</g>
<!-- 14 -->
<g id="node13" class="node"><title>14</title>
<polygon fill="none" stroke="black" points="154.313,-1 154.313,-37 245.687,-37 245.687,-1 154.313,-1"/>
<text text-anchor="middle" x="200" y="-13.4" font-family="Times,serif" font-size="14.00">ActivityView</text>
</g>
<!-- 14&#45;&gt;3 -->
<g id="edge21" class="edge"><title>14&#45;&gt;3</title>
<path fill="none" stroke="black" d="M245.725,-35.7294C248.845,-36.5659 251.957,-37.3343 255,-38 388.586,-67.2278 427.798,-53.2364 567.097,-73.9489"/>
<polygon fill="none" stroke="black" points="566.889,-77.4575 577.302,-75.5013 567.942,-70.5371 566.889,-77.4575"/>
</g>
<!-- 14&#45;&gt;4 -->
<g id="edge22" class="edge"><title>14&#45;&gt;4</title>
<path fill="none" stroke="black" d="M245.798,-35.4259C248.901,-36.3357 251.989,-37.2034 255,-38 329.411,-57.6877 417.19,-74.3045 470.703,-83.7101"/>
<polygon fill="none" stroke="black" points="470.157,-87.1676 480.609,-85.4376 471.359,-80.2717 470.157,-87.1676"/>
</g>
<!-- 14&#45;&gt;5 -->
<g id="edge23" class="edge"><title>14&#45;&gt;5</title>
<path fill="none" stroke="black" d="M245.694,-35.878C248.822,-36.6786 251.944,-37.3984 255,-38 468.686,-80.0651 532.28,-32.7365 750.182,-74.1389"/>
<polygon fill="none" stroke="black" points="749.52,-77.5756 760.003,-76.0448 750.853,-70.7038 749.52,-77.5756"/>
</g>
<!-- 15 -->
<g id="node14" class="node"><title>15</title>
<polygon fill="none" stroke="black" points="709.748,-1 709.748,-37 902.252,-37 902.252,-1 709.748,-1"/>
<text text-anchor="middle" x="806" y="-13.4" font-family="Times,serif" font-size="14.00">AllSubmissionCollectionsView</text>
</g>
<!-- 15&#45;&gt;3 -->
<g id="edge24" class="edge"><title>15&#45;&gt;3</title>
<path fill="none" stroke="black" d="M771.4,-37.063C751.109,-47.0693 725.286,-59.8044 703.611,-70.4932"/>
<polygon fill="none" stroke="black" points="702.025,-67.3728 694.604,-74.9349 705.121,-73.6509 702.025,-67.3728"/>
</g>
<!-- 15&#45;&gt;4 -->
<g id="edge25" class="edge"><title>15&#45;&gt;4</title>
<path fill="none" stroke="black" d="M717.941,-37.0024C675.298,-45.9421 623.29,-57.8798 568.956,-73.897"/>
<polygon fill="none" stroke="black" points="567.725,-70.6116 559.145,-76.8265 569.728,-77.3189 567.725,-70.6116"/>
</g>
<!-- 15&#45;&gt;5 -->
<g id="edge26" class="edge"><title>15&#45;&gt;5</title>
<path fill="none" stroke="black" d="M806,-37.063C806,-45.1928 806,-55.1239 806,-64.2953"/>
<polygon fill="none" stroke="black" points="802.5,-64.5593 806,-74.5593 809.5,-64.5594 802.5,-64.5593"/>
</g>
<!-- 15&#45;&gt;6 -->
<g id="edge27" class="edge"><title>15&#45;&gt;6</title>
<path fill="none" stroke="black" d="M847.947,-37.063C872.985,-47.248 904.973,-60.26 931.532,-71.0638"/>
<polygon fill="none" stroke="black" points="930.466,-74.4089 941.048,-74.9349 933.104,-67.9248 930.466,-74.4089"/>
</g>
<!-- 16 -->
<g id="node15" class="node"><title>16</title>
<polygon fill="none" stroke="black" points="1448.93,-1 1448.93,-37 1597.07,-37 1597.07,-1 1448.93,-1"/>
<text text-anchor="middle" x="1523" y="-13.4" font-family="Times,serif" font-size="14.00">ApiKeyCollectionView</text>
</g>
<!-- 16&#45;&gt;3 -->
<g id="edge28" class="edge"><title>16&#45;&gt;3</title>
<path fill="none" stroke="black" d="M1448.89,-36.6914C1445.9,-37.1698 1442.92,-37.6093 1440,-38 1139.33,-78.1905 1057.06,-37.0555 752.738,-73.8837"/>
<polygon fill="none" stroke="black" points="752.244,-70.418 742.745,-75.1112 753.098,-77.3657 752.244,-70.418"/>
</g>
<!-- 16&#45;&gt;5 -->
<g id="edge29" class="edge"><title>16&#45;&gt;5</title>
<path fill="none" stroke="black" d="M1448.89,-36.6489C1445.89,-37.139 1442.92,-37.5926 1440,-38 1190.79,-72.7619 1123.43,-34.0597 875,-74 870.619,-74.7044 866.112,-75.5644 861.6,-76.5226"/>
<polygon fill="none" stroke="black" points="860.74,-73.1287 851.763,-78.755 862.289,-79.9551 860.74,-73.1287"/>
</g>
<!-- 16&#45;&gt;6 -->
<g id="edge30" class="edge"><title>16&#45;&gt;6</title>
<path fill="none" stroke="black" d="M1448.86,-36.4483C1445.87,-36.9939 1442.91,-37.5139 1440,-38 1321.58,-57.7894 1184.72,-72.953 1091.87,-82.1026"/>
<polygon fill="none" stroke="black" points="1091.51,-78.621 1081.89,-83.0787 1092.19,-85.5877 1091.51,-78.621"/>
</g>
<!-- 17 -->
<g id="node16" class="node"><title>17</title>
<polygon fill="none" stroke="black" points="920.258,-1 920.258,-37 1077.74,-37 1077.74,-1 920.258,-1"/>
<text text-anchor="middle" x="999" y="-13.4" font-family="Times,serif" font-size="14.00">SubmissionInstanceView</text>
</g>
<!-- 17&#45;&gt;3 -->
<g id="edge31" class="edge"><title>17&#45;&gt;3</title>
<path fill="none" stroke="black" d="M919.947,-36.7899C869.126,-47.5838 802.963,-61.6362 750.106,-72.8623"/>
<polygon fill="none" stroke="black" points="749.115,-69.4948 740.06,-74.9961 750.569,-76.3421 749.115,-69.4948"/>
</g>
<!-- 17&#45;&gt;4 -->
<g id="edge32" class="edge"><title>17&#45;&gt;4</title>
<path fill="none" stroke="black" d="M919.911,-36.555C916.906,-37.0639 913.928,-37.548 911,-38 762.767,-60.8837 719.056,-39.7547 569.324,-74.0173"/>
<polygon fill="none" stroke="black" points="568.248,-70.6741 559.306,-76.3553 569.839,-77.491 568.248,-70.6741"/>
</g>
<!-- 17&#45;&gt;5 -->
<g id="edge33" class="edge"><title>17&#45;&gt;5</title>
<path fill="none" stroke="black" d="M953.262,-37.063C925.721,-47.3373 890.468,-60.4885 861.36,-71.3476"/>
<polygon fill="none" stroke="black" points="859.89,-68.1603 851.744,-74.9349 862.337,-74.7188 859.89,-68.1603"/>
</g>
<!-- 17&#45;&gt;6 -->
<g id="edge34" class="edge"><title>17&#45;&gt;6</title>
<path fill="none" stroke="black" d="M995.208,-37.063C993.382,-45.2812 991.147,-55.34 989.09,-64.5941"/>
<polygon fill="none" stroke="black" points="985.628,-64.0382 986.876,-74.5593 992.462,-65.5567 985.628,-64.0382"/>
</g>
<!-- 18 -->
<g id="node17" class="node"><title>18</title>
<polygon fill="none" stroke="black" points="1095.42,-1 1095.42,-37 1264.58,-37 1264.58,-1 1095.42,-1"/>
<text text-anchor="middle" x="1180" y="-13.4" font-family="Times,serif" font-size="14.00">SubmissionCollectionView</text>
</g>
<!-- 18&#45;&gt;3 -->
<g id="edge35" class="edge"><title>18&#45;&gt;3</title>
<path fill="none" stroke="black" d="M1095.25,-36.5602C1092.13,-37.0642 1089.04,-37.5463 1086,-38 941.076,-59.6254 900.758,-51.807 752.684,-73.8124"/>
<polygon fill="none" stroke="black" points="752.139,-70.3549 742.772,-75.3056 753.182,-77.2768 752.139,-70.3549"/>
</g>
<!-- 18&#45;&gt;4 -->
<g id="edge36" class="edge"><title>18&#45;&gt;4</title>
<path fill="none" stroke="black" d="M1095.27,-36.7082C1092.15,-37.1706 1089.05,-37.6037 1086,-38 860.389,-67.3335 795.345,-26.1691 569.128,-74.1188"/>
<polygon fill="none" stroke="black" points="568.318,-70.7129 559.28,-76.2406 569.792,-77.5559 568.318,-70.7129"/>
</g>
<!-- 18&#45;&gt;5 -->
<g id="edge37" class="edge"><title>18&#45;&gt;5</title>
<path fill="none" stroke="black" d="M1095.21,-36.3177C1092.1,-36.89 1089.02,-37.4524 1086,-38 992.389,-54.9468 968.001,-53.9746 875,-74 870.662,-74.9341 866.186,-75.9595 861.696,-77.0323"/>
<polygon fill="none" stroke="black" points="860.768,-73.656 851.891,-79.4396 862.437,-80.4541 860.768,-73.656"/>
</g>
<!-- 18&#45;&gt;6 -->
<g id="edge38" class="edge"><title>18&#45;&gt;6</title>
<path fill="none" stroke="black" d="M1133.31,-37.063C1105.08,-47.382 1068.91,-60.603 1039.12,-71.4891"/>
<polygon fill="none" stroke="black" points="1037.88,-68.2147 1029.69,-74.9349 1040.29,-74.7894 1037.88,-68.2147"/>
</g>
</g>
</svg>
