<?xml version="1.0" encoding="UTF-8" standalone="no"?>
<!DOCTYPE svg PUBLIC "-//W3C//DTD SVG 1.1//EN"
 "http://www.w3.org/Graphics/SVG/1.1/DTD/svg11.dtd">
<!-- Generated by graphviz version 2.26.3 (20100126.1600)
 -->
<!-- Title: classes_No_Name Pages: 1 -->
<svg width="2240pt" height="120pt"
 viewBox="0.00 0.00 2240.00 120.00" xmlns="http://www.w3.org/2000/svg" xmlns:xlink="http://www.w3.org/1999/xlink">
<g id="graph1" class="graph" transform="scale(1 1) rotate(0) translate(4 116)">
<title>classes_No_Name</title>
<polygon fill="white" stroke="white" points="-4,5 -4,-116 2237,-116 2237,5 -4,5"/>
<!-- 2 -->
<g id="node1" class="node"><title>2</title>
<polygon fill="none" stroke="black" points="1469.5,-1 1469.5,-37 1644.5,-37 1644.5,-1 1469.5,-1"/>
<text text-anchor="middle" x="1557" y="-15.4" font-family="Times Roman,serif" font-size="14.00">DataSetCollectionView</text>
</g>
<!-- 3 -->
<g id="node2" class="node"><title>3</title>
<polygon fill="none" stroke="black" points="668,-75 668,-111 860,-111 860,-75 668,-75"/>
<text text-anchor="middle" x="764" y="-89.4" font-family="Times Roman,serif" font-size="14.00">Ignore_CacheBusterMixin</text>
</g>
<!-- 2&#45;&gt;3 -->
<g id="edge2" class="edge"><title>2&#45;&gt;3</title>
<path fill="none" stroke="black" d="M1469.45,-36.8333C1466.6,-37.2512 1463.78,-37.642 1461,-38 1202.88,-71.2377 1132.48,-43.2077 870.273,-73.9333"/>
<polygon fill="none" stroke="black" points="869.578,-70.4912 860.062,-75.148 870.405,-77.4422 869.578,-70.4912"/>
</g>
<!-- 4 -->
<g id="node3" class="node"><title>4</title>
<polygon fill="none" stroke="black" points="563.5,-75 563.5,-111 650.5,-111 650.5,-75 563.5,-75"/>
<text text-anchor="middle" x="607" y="-89.4" font-family="Times Roman,serif" font-size="14.00">AuthMixin</text>
</g>
<!-- 2&#45;&gt;4 -->
<g id="edge4" class="edge"><title>2&#45;&gt;4</title>
<path fill="none" stroke="black" d="M1469.45,-36.8913C1466.61,-37.2925 1463.78,-37.6641 1461,-38 1110.05,-80.3612 1010.7,-5.37319 660.604,-74.0009"/>
<polygon fill="none" stroke="black" points="659.829,-70.5863 650.702,-75.9669 661.193,-77.4523 659.829,-70.5863"/>
</g>
<!-- 5 -->
<g id="node4" class="node"><title>5</title>
<polygon fill="none" stroke="black" points="878,-75 878,-111 976,-111 976,-75 878,-75"/>
<text text-anchor="middle" x="927" y="-89.4" font-family="Times Roman,serif" font-size="14.00">AbsUrlMixin</text>
</g>
<!-- 2&#45;&gt;5 -->
<g id="edge6" class="edge"><title>2&#45;&gt;5</title>
<path fill="none" stroke="black" d="M1469.44,-36.7675C1466.59,-37.2043 1463.78,-37.6169 1461,-38 1259.61,-65.7824 1205.74,-41.8398 1005,-74 998.859,-74.9839 992.488,-76.2021 986.155,-77.5431"/>
<polygon fill="none" stroke="black" points="985.277,-74.1527 976.273,-79.7353 986.793,-80.9866 985.277,-74.1527"/>
</g>
<!-- 6 -->
<g id="node5" class="node"><title>6</title>
<polygon fill="none" stroke="black" points="1013.5,-75 1013.5,-111 1238.5,-111 1238.5,-75 1013.5,-75"/>
<text text-anchor="middle" x="1126" y="-89.4" font-family="Times Roman,serif" font-size="14.00">ModelViewWithDataBlobMixin</text>
</g>
<!-- 2&#45;&gt;6 -->
<g id="edge8" class="edge"><title>2&#45;&gt;6</title>
<path fill="none" stroke="black" d="M1469.39,-36.4624C1466.56,-36.9869 1463.76,-37.5007 1461,-38 1390.81,-50.7042 1312.11,-63.6889 1248.64,-73.8494"/>
<polygon fill="none" stroke="black" points="1247.91,-70.4215 1238.59,-75.4554 1249.02,-77.3339 1247.91,-70.4215"/>
</g>
<!-- 7 -->
<g id="node6" class="node"><title>7</title>
<polygon fill="none" stroke="black" points="-0.5,-1 -0.5,-37 162.5,-37 162.5,-1 -0.5,-1"/>
<text text-anchor="middle" x="81" y="-15.4" font-family="Times Roman,serif" font-size="14.00">OwnerPasswordView</text>
</g>
<!-- 7&#45;&gt;3 -->
<g id="edge10" class="edge"><title>7&#45;&gt;3</title>
<path fill="none" stroke="black" d="M162.834,-36.7633C165.584,-37.2046 168.312,-37.6189 171,-38 383.065,-68.0678 441.495,-47.2517 657.844,-73.9338"/>
<polygon fill="none" stroke="black" points="657.575,-77.4273 667.932,-75.198 658.445,-70.4816 657.575,-77.4273"/>
</g>
<!-- 7&#45;&gt;4 -->
<g id="edge12" class="edge"><title>7&#45;&gt;4</title>
<path fill="none" stroke="black" d="M162.862,-36.5814C165.604,-37.0748 168.323,-37.5493 171,-38 307.905,-61.0456 470.472,-79.1179 553.049,-87.6433"/>
<polygon fill="none" stroke="black" points="552.892,-91.1454 563.197,-88.6844 553.606,-84.182 552.892,-91.1454"/>
</g>
<!-- 7&#45;&gt;5 -->
<g id="edge14" class="edge"><title>7&#45;&gt;5</title>
<path fill="none" stroke="black" d="M162.823,-36.841C165.577,-37.2601 168.308,-37.6486 171,-38 475.713,-77.7733 561.769,-18.4501 867.822,-74.0714"/>
<polygon fill="none" stroke="black" points="867.402,-77.5528 877.871,-75.9242 868.671,-70.6688 867.402,-77.5528"/>
</g>
<!-- 8 -->
<g id="node7" class="node"><title>8</title>
<polygon fill="none" stroke="black" points="1844,-1 1844,-37 2110,-37 2110,-1 1844,-1"/>
<text text-anchor="middle" x="1977" y="-15.4" font-family="Times Roman,serif" font-size="14.00">IsOwnerOrSuperuserWithoutApiKey</text>
</g>
<!-- 9 -->
<g id="node8" class="node"><title>9</title>
<polygon fill="none" stroke="black" points="1895.5,-75 1895.5,-111 2058.5,-111 2058.5,-75 1895.5,-75"/>
<text text-anchor="middle" x="1977" y="-89.4" font-family="Times Roman,serif" font-size="14.00">IsOwnerOrSuperuser</text>
</g>
<!-- 8&#45;&gt;9 -->
<g id="edge16" class="edge"><title>8&#45;&gt;9</title>
<path fill="none" stroke="black" d="M1977,-37.2921C1977,-45.5365 1977,-55.4624 1977,-64.6378"/>
<polygon fill="none" stroke="black" points="1973.5,-64.9182 1977,-74.9183 1980.5,-64.9183 1973.5,-64.9182"/>
</g>
<!-- 10 -->
<g id="node9" class="node"><title>10</title>
<polygon fill="none" stroke="black" points="300,-1 300,-37 466,-37 466,-1 300,-1"/>
<text text-anchor="middle" x="383" y="-15.4" font-family="Times Roman,serif" font-size="14.00">DataSetInstanceView</text>
</g>
<!-- 10&#45;&gt;3 -->
<g id="edge18" class="edge"><title>10&#45;&gt;3</title>
<path fill="none" stroke="black" d="M466.233,-36.25C469.191,-36.8438 472.12,-37.4287 475,-38 535.486,-50.0006 603.2,-62.9152 657.871,-73.2124"/>
<polygon fill="none" stroke="black" points="657.448,-76.6942 667.923,-75.1039 658.743,-69.8149 657.448,-76.6942"/>
</g>
<!-- 10&#45;&gt;4 -->
<g id="edge20" class="edge"><title>10&#45;&gt;4</title>
<path fill="none" stroke="black" d="M437.51,-37.0078C472.785,-48.6611 518.499,-63.7629 553.56,-75.3456"/>
<polygon fill="none" stroke="black" points="552.555,-78.6998 563.149,-78.5134 554.751,-72.0531 552.555,-78.6998"/>
</g>
<!-- 10&#45;&gt;5 -->
<g id="edge22" class="edge"><title>10&#45;&gt;5</title>
<path fill="none" stroke="black" d="M466.17,-36.6135C469.146,-37.1045 472.096,-37.5689 475,-38 645.707,-63.3439 694.98,-39.3294 867.902,-74.0296"/>
<polygon fill="none" stroke="black" points="867.345,-77.4881 877.844,-76.0614 868.747,-70.6299 867.345,-77.4881"/>
</g>
<!-- 10&#45;&gt;6 -->
<g id="edge24" class="edge"><title>10&#45;&gt;6</title>
<path fill="none" stroke="black" d="M466.159,-36.6913C469.138,-37.1602 472.092,-37.5989 475,-38 700.1,-69.0479 758.955,-50.8156 985,-74 990.903,-74.6054 996.94,-75.2646 1003.03,-75.962"/>
<polygon fill="none" stroke="black" points="1002.99,-79.4806 1013.33,-77.1691 1003.8,-72.5282 1002.99,-79.4806"/>
</g>
<!-- 11 -->
<g id="node10" class="node"><title>11</title>
<polygon fill="none" stroke="black" points="2128,-1 2128,-37 2232,-37 2232,-1 2128,-1"/>
<text text-anchor="middle" x="2180" y="-15.4" font-family="Times Roman,serif" font-size="14.00">CachedMixin</text>
</g>
<!-- 12 -->
<g id="node11" class="node"><title>12</title>
<polygon fill="none" stroke="black" points="484,-1 484,-37 638,-37 638,-1 484,-1"/>
<text text-anchor="middle" x="561" y="-15.4" font-family="Times Roman,serif" font-size="14.00">PlaceCollectionView</text>
</g>
<!-- 12&#45;&gt;3 -->
<g id="edge26" class="edge"><title>12&#45;&gt;3</title>
<path fill="none" stroke="black" d="M610.4,-37.0078C638.887,-47.3922 674.886,-60.515 704.871,-71.4458"/>
<polygon fill="none" stroke="black" points="703.785,-74.7748 714.379,-74.9114 706.182,-68.1982 703.785,-74.7748"/>
</g>
<!-- 12&#45;&gt;4 -->
<g id="edge28" class="edge"><title>12&#45;&gt;4</title>
<path fill="none" stroke="black" d="M572.371,-37.2921C577.83,-46.0741 584.475,-56.7643 590.479,-66.4227"/>
<polygon fill="none" stroke="black" points="587.508,-68.2732 595.76,-74.9183 593.453,-64.5776 587.508,-68.2732"/>
</g>
<!-- 12&#45;&gt;5 -->
<g id="edge30" class="edge"><title>12&#45;&gt;5</title>
<path fill="none" stroke="black" d="M638.312,-36.2974C641.243,-36.8842 644.147,-37.4539 647,-38 742.01,-56.1836 770.082,-50.7574 867.792,-73.893"/>
<polygon fill="none" stroke="black" points="867.248,-77.3621 877.79,-76.3012 868.887,-70.5567 867.248,-77.3621"/>
</g>
<!-- 12&#45;&gt;6 -->
<g id="edge32" class="edge"><title>12&#45;&gt;6</title>
<path fill="none" stroke="black" d="M638.277,-36.4984C641.217,-37.0289 644.133,-37.5321 647,-38 796.099,-62.3329 835.015,-55.9108 985,-74 990.891,-74.7105 996.918,-75.455 1003,-76.2208"/>
<polygon fill="none" stroke="black" points="1002.93,-79.739 1013.29,-77.5275 1003.81,-72.7948 1002.93,-79.739"/>
</g>
<!-- 13 -->
<g id="node12" class="node"><title>13</title>
<polygon fill="none" stroke="black" points="655.5,-1 655.5,-37 800.5,-37 800.5,-1 655.5,-1"/>
<text text-anchor="middle" x="728" y="-15.4" font-family="Times Roman,serif" font-size="14.00">PlaceInstanceView</text>
</g>
<!-- 13&#45;&gt;3 -->
<g id="edge34" class="edge"><title>13&#45;&gt;3</title>
<path fill="none" stroke="black" d="M736.899,-37.2921C741.084,-45.8949 746.16,-56.3287 750.782,-65.8301"/>
<polygon fill="none" stroke="black" points="747.681,-67.4571 755.203,-74.9183 753.976,-64.3948 747.681,-67.4571"/>
</g>
<!-- 13&#45;&gt;4 -->
<g id="edge36" class="edge"><title>13&#45;&gt;4</title>
<path fill="none" stroke="black" d="M698.4,-37.1024C682.433,-46.8675 662.54,-59.0332 645.394,-69.5192"/>
<polygon fill="none" stroke="black" points="643.419,-66.6247 636.714,-74.828 647.071,-72.5965 643.419,-66.6247"/>
</g>
<!-- 13&#45;&gt;5 -->
<g id="edge38" class="edge"><title>13&#45;&gt;5</title>
<path fill="none" stroke="black" d="M776.426,-37.0078C804.231,-47.3473 839.336,-60.4014 868.654,-71.3037"/>
<polygon fill="none" stroke="black" points="867.764,-74.7065 878.356,-74.9114 870.203,-68.1454 867.764,-74.7065"/>
</g>
<!-- 13&#45;&gt;6 -->
<g id="edge40" class="edge"><title>13&#45;&gt;6</title>
<path fill="none" stroke="black" d="M800.813,-36.2921C803.575,-36.8804 806.311,-37.4518 809,-38 872.897,-51.0255 944.442,-63.6092 1003.37,-73.445"/>
<polygon fill="none" stroke="black" points="1003.03,-76.9362 1013.47,-75.1241 1004.18,-70.031 1003.03,-76.9362"/>
</g>
<!-- 14 -->
<g id="node13" class="node"><title>14</title>
<polygon fill="none" stroke="black" points="179.5,-1 179.5,-37 282.5,-37 282.5,-1 179.5,-1"/>
<text text-anchor="middle" x="231" y="-15.4" font-family="Times Roman,serif" font-size="14.00">ActivityView</text>
</g>
<!-- 14&#45;&gt;3 -->
<g id="edge42" class="edge"><title>14&#45;&gt;3</title>
<path fill="none" stroke="black" d="M282.53,-36.071C285.38,-36.7794 288.217,-37.4298 291,-38 448.847,-70.3418 494.459,-52.0972 658.004,-73.9369"/>
<polygon fill="none" stroke="black" points="657.538,-77.4057 667.92,-75.2905 658.485,-70.4701 657.538,-77.4057"/>
</g>
<!-- 14&#45;&gt;4 -->
<g id="edge44" class="edge"><title>14&#45;&gt;4</title>
<path fill="none" stroke="black" d="M282.586,-35.8199C285.422,-36.5931 288.24,-37.3261 291,-38 382.086,-60.2419 490.054,-77.0187 553.293,-85.8976"/>
<polygon fill="none" stroke="black" points="553.042,-89.3963 563.429,-87.3067 554.006,-82.4629 553.042,-89.3963"/>
</g>
<!-- 14&#45;&gt;5 -->
<g id="edge46" class="edge"><title>14&#45;&gt;5</title>
<path fill="none" stroke="black" d="M282.506,-36.1902C285.363,-36.8678 288.207,-37.479 291,-38 540.809,-84.6044 614.353,-27.0429 867.989,-74.0939"/>
<polygon fill="none" stroke="black" points="867.387,-77.542 877.864,-75.9613 868.688,-70.6639 867.387,-77.542"/>
</g>
<!-- 15 -->
<g id="node14" class="node"><title>15</title>
<polygon fill="none" stroke="black" points="817.5,-1 817.5,-37 1036.5,-37 1036.5,-1 817.5,-1"/>
<text text-anchor="middle" x="927" y="-15.4" font-family="Times Roman,serif" font-size="14.00">AllSubmissionCollectionsView</text>
</g>
<!-- 15&#45;&gt;3 -->
<g id="edge48" class="edge"><title>15&#45;&gt;3</title>
<path fill="none" stroke="black" d="M887.126,-37.1024C864.744,-47.2636 836.636,-60.0241 812.929,-70.7867"/>
<polygon fill="none" stroke="black" points="811.404,-67.6355 803.745,-74.9564 814.297,-74.0094 811.404,-67.6355"/>
</g>
<!-- 15&#45;&gt;4 -->
<g id="edge50" class="edge"><title>15&#45;&gt;4</title>
<path fill="none" stroke="black" d="M820.803,-37.05C773.841,-45.9339 717.918,-57.7399 660.195,-73.8333"/>
<polygon fill="none" stroke="black" points="659.211,-70.4742 650.539,-76.5612 661.114,-77.2106 659.211,-70.4742"/>
</g>
<!-- 15&#45;&gt;5 -->
<g id="edge52" class="edge"><title>15&#45;&gt;5</title>
<path fill="none" stroke="black" d="M927,-37.2921C927,-45.5365 927,-55.4624 927,-64.6378"/>
<polygon fill="none" stroke="black" points="923.5,-64.9182 927,-74.9183 930.5,-64.9183 923.5,-64.9182"/>
</g>
<!-- 15&#45;&gt;6 -->
<g id="edge54" class="edge"><title>15&#45;&gt;6</title>
<path fill="none" stroke="black" d="M975.426,-37.0078C1003.23,-47.3473 1038.34,-60.4014 1067.65,-71.3037"/>
<polygon fill="none" stroke="black" points="1066.76,-74.7065 1077.36,-74.9114 1069.2,-68.1454 1066.76,-74.7065"/>
</g>
<!-- 16 -->
<g id="node15" class="node"><title>16</title>
<polygon fill="none" stroke="black" points="1661.5,-1 1661.5,-37 1826.5,-37 1826.5,-1 1661.5,-1"/>
<text text-anchor="middle" x="1744" y="-15.4" font-family="Times Roman,serif" font-size="14.00">ApiKeyCollectionView</text>
</g>
<!-- 16&#45;&gt;3 -->
<g id="edge56" class="edge"><title>16&#45;&gt;3</title>
<path fill="none" stroke="black" d="M1661.27,-36.8592C1658.48,-37.2731 1655.72,-37.6556 1653,-38 1310.24,-81.3688 1217.37,-35.7439 870.14,-73.9647"/>
<polygon fill="none" stroke="black" points="869.605,-70.5026 860.055,-75.0904 870.381,-77.4594 869.605,-70.5026"/>
</g>
<!-- 16&#45;&gt;5 -->
<g id="edge58" class="edge"><title>16&#45;&gt;5</title>
<path fill="none" stroke="black" d="M1661.26,-36.825C1658.48,-37.2487 1655.72,-37.6425 1653,-38 1367.01,-75.5828 1290.32,-31.6892 1005,-74 998.848,-74.9123 992.47,-76.0839 986.133,-77.3967"/>
<polygon fill="none" stroke="black" points="985.267,-74.0033 976.245,-79.5588 986.762,-80.8417 985.267,-74.0033"/>
</g>
<!-- 16&#45;&gt;6 -->
<g id="edge60" class="edge"><title>16&#45;&gt;6</title>
<path fill="none" stroke="black" d="M1661.24,-36.6529C1658.46,-37.1258 1655.71,-37.5767 1653,-38 1515.31,-59.5012 1356.04,-74.815 1248.94,-83.7352"/>
<polygon fill="none" stroke="black" points="1248.42,-80.2662 1238.74,-84.5784 1249,-87.2424 1248.42,-80.2662"/>
</g>
<!-- 17 -->
<g id="node16" class="node"><title>17</title>
<polygon fill="none" stroke="black" points="1054,-1 1054,-37 1240,-37 1240,-1 1054,-1"/>
<text text-anchor="middle" x="1147" y="-15.4" font-family="Times Roman,serif" font-size="14.00">SubmissionInstanceView</text>
</g>
<!-- 17&#45;&gt;3 -->
<g id="edge62" class="edge"><title>17&#45;&gt;3</title>
<path fill="none" stroke="black" d="M1053.8,-37.0078C997.387,-47.9069 925.364,-61.8226 867.232,-73.0544"/>
<polygon fill="none" stroke="black" points="866.443,-69.6421 857.288,-74.9757 867.771,-76.515 866.443,-69.6421"/>
</g>
<!-- 17&#45;&gt;4 -->
<g id="edge64" class="edge"><title>17&#45;&gt;4</title>
<path fill="none" stroke="black" d="M1053.95,-36.6954C1050.93,-37.1529 1047.94,-37.5894 1045,-38 877.601,-61.3477 828.93,-37.0809 660.671,-73.9071"/>
<polygon fill="none" stroke="black" points="659.734,-70.53 650.735,-76.1217 661.257,-77.3623 659.734,-70.53"/>
</g>
<!-- 17&#45;&gt;5 -->
<g id="edge66" class="edge"><title>17&#45;&gt;5</title>
<path fill="none" stroke="black" d="M1093.46,-37.0078C1060.93,-47.9494 1019.37,-61.931 985.908,-73.1855"/>
<polygon fill="none" stroke="black" points="984.615,-69.9275 976.253,-76.4331 986.847,-76.5623 984.615,-69.9275"/>
</g>
<!-- 17&#45;&gt;6 -->
<g id="edge68" class="edge"><title>17&#45;&gt;6</title>
<path fill="none" stroke="black" d="M1141.81,-37.2921C1139.42,-45.7157 1136.53,-55.8948 1133.88,-65.2351"/>
<polygon fill="none" stroke="black" points="1130.49,-64.3426 1131.13,-74.9183 1137.23,-66.2537 1130.49,-64.3426"/>
</g>
<!-- 18 -->
<g id="node17" class="node"><title>18</title>
<polygon fill="none" stroke="black" points="1257.5,-1 1257.5,-37 1452.5,-37 1452.5,-1 1257.5,-1"/>
<text text-anchor="middle" x="1355" y="-15.4" font-family="Times Roman,serif" font-size="14.00">SubmissionCollectionView</text>
</g>
<!-- 18&#45;&gt;3 -->
<g id="edge70" class="edge"><title>18&#45;&gt;3</title>
<path fill="none" stroke="black" d="M1257.44,-36.8017C1254.6,-37.2194 1251.78,-37.62 1249,-38 1084.12,-60.5476 1038.78,-51.2488 870.046,-73.9216"/>
<polygon fill="none" stroke="black" points="869.515,-70.4616 860.078,-75.2787 870.459,-77.3976 869.515,-70.4616"/>
</g>
<!-- 18&#45;&gt;4 -->
<g id="edge72" class="edge"><title>18&#45;&gt;4</title>
<path fill="none" stroke="black" d="M1257.45,-36.9256C1254.61,-37.3071 1251.78,-37.6666 1249,-38 991.464,-68.8318 918.033,-21.5873 660.731,-73.949"/>
<polygon fill="none" stroke="black" points="659.798,-70.5677 650.713,-76.0187 661.214,-77.4229 659.798,-70.5677"/>
</g>
<!-- 18&#45;&gt;5 -->
<g id="edge74" class="edge"><title>18&#45;&gt;5</title>
<path fill="none" stroke="black" d="M1257.41,-36.6099C1254.58,-37.0835 1251.77,-37.5479 1249,-38 1140.82,-55.6723 1112.59,-53.0059 1005,-74 998.895,-75.1912 992.549,-76.5444 986.231,-77.967"/>
<polygon fill="none" stroke="black" points="985.319,-74.5854 976.363,-80.2463 986.895,-81.4058 985.319,-74.5854"/>
</g>
<!-- 18&#45;&gt;6 -->
<g id="edge76" class="edge"><title>18&#45;&gt;6</title>
<path fill="none" stroke="black" d="M1299.27,-37.0078C1266.86,-47.4821 1225.82,-60.7424 1191.82,-71.7292"/>
<polygon fill="none" stroke="black" points="1190.42,-68.5061 1181.98,-74.9114 1192.57,-75.1669 1190.42,-68.5061"/>
</g>
</g>
</svg>
