<?xml version="1.0" encoding="UTF-8" standalone="no"?>
<!DOCTYPE svg PUBLIC "-//W3C//DTD SVG 1.1//EN"
 "http://www.w3.org/Graphics/SVG/1.1/DTD/svg11.dtd">
<!-- Generated by graphviz version 2.34.0 (20131025.1804)
 -->
<!-- Title: classes_No_Name Pages: 1 -->
<svg width="553pt" height="120pt"
 viewBox="0.00 0.00 553.00 120.00" xmlns="http://www.w3.org/2000/svg" xmlns:xlink="http://www.w3.org/1999/xlink">
<g id="graph0" class="graph" transform="scale(1 1) rotate(0) translate(4 116)">
<title>classes_No_Name</title>
<polygon fill="white" stroke="white" points="-4,4 -4,-116 549,-116 549,4 -4,4"/>
<!-- 2 -->
<g id="node1" class="node"><title>2</title>
<polygon fill="none" stroke="black" points="150.411,-1 150.411,-37 257.589,-37 257.589,-1 150.411,-1"/>
<text text-anchor="middle" x="204" y="-13.4" font-family="Times,serif" font-size="14.00">OrcaWithLasers</text>
</g>
<!-- 3 -->
<g id="node2" class="node"><title>3</title>
<polygon fill="none" stroke="black" points="47,-75 47,-111 101,-111 101,-75 47,-75"/>
<text text-anchor="middle" x="73.6001" y="-87.4" font-family="Times,serif" font-size="14.00">Orca</text>
</g>
<!-- 2&#45;&gt;3 -->
<g id="edge1" class="edge"><title>2&#45;&gt;3</title>
<path fill="none" stroke="black" d="M173.192,-37.063C154.179,-47.593 129.711,-61.1449 109.833,-72.1539"/>
<polygon fill="none" stroke="black" points="108.112,-69.1064 101.059,-77.0132 111.503,-75.23 108.112,-69.1064"/>
</g>
<!-- 4 -->
<g id="node3" class="node"><title>4</title>
<polygon fill="none" stroke="black" points="292.341,-75 292.341,-111 373.659,-111 373.659,-75 292.341,-75"/>
<text text-anchor="middle" x="333" y="-87.4" font-family="Times,serif" font-size="14.00">LaserMixin</text>
</g>
<!-- 2&#45;&gt;4 -->
<g id="edge2" class="edge"><title>2&#45;&gt;4</title>
<path fill="none" stroke="black" d="M234.571,-37.063C252.115,-46.8549 274.341,-59.2598 293.231,-69.8032"/>
<polygon fill="none" stroke="black" points="291.763,-72.9925 302.201,-74.81 295.175,-66.8801 291.763,-72.9925"/>
</g>
<!-- 5 -->
<g id="node4" class="node"><title>5</title>
<polygon fill="none" stroke="black" points="454,-75 454,-111 508,-111 508,-75 454,-75"/>
<text text-anchor="middle" x="480.831" y="-87.4" font-family="Times,serif" font-size="14.00">Shark</text>
</g>
<!-- 6 -->
<g id="node5" class="node"><title>6</title>
<polygon fill="none" stroke="black" points="-0.812988,-1 -0.812988,-37 132.813,-37 132.813,-1 -0.812988,-1"/>
<text text-anchor="middle" x="66" y="-13.4" font-family="Times,serif" font-size="14.00">OrcaWithNunchucks</text>
</g>
<!-- 6&#45;&gt;3 -->
<g id="edge3" class="edge"><title>6&#45;&gt;3</title>
<path fill="none" stroke="black" d="M67.8959,-37.063C68.809,-45.2812 69.9267,-55.34 70.9549,-64.5941"/>
<polygon fill="none" stroke="black" points="67.4792,-65.007 72.0621,-74.5593 74.4363,-64.2339 67.4792,-65.007"/>
</g>
<!-- 7 -->
<g id="node6" class="node"><title>7</title>
<polygon fill="none" stroke="black" points="135.117,-75 135.117,-111 242.883,-111 242.883,-75 135.117,-75"/>
<text text-anchor="middle" x="189" y="-87.4" font-family="Times,serif" font-size="14.00">NunchuckMixin</text>
</g>
<!-- 6&#45;&gt;7 -->
<g id="edge4" class="edge"><title>6&#45;&gt;7</title>
<path fill="none" stroke="black" d="M95.1493,-37.063C111.725,-46.7659 132.684,-59.0345 150.589,-69.5152"/>
<polygon fill="none" stroke="black" points="149.235,-72.7787 159.634,-74.81 152.772,-66.7376 149.235,-72.7787"/>
</g>
<!-- 8 -->
<g id="node7" class="node"><title>8</title>
<polygon fill="none" stroke="black" points="432.68,-1 432.68,-37 545.32,-37 545.32,-1 432.68,-1"/>
<text text-anchor="middle" x="489" y="-13.4" font-family="Times,serif" font-size="14.00">SharkWithLasers</text>
</g>
<!-- 8&#45;&gt;4 -->
<g id="edge6" class="edge"><title>8&#45;&gt;4</title>
<path fill="none" stroke="black" d="M452.03,-37.063C430.253,-47.114 402.511,-59.9181 379.288,-70.6362"/>
<polygon fill="none" stroke="black" points="377.587,-67.5664 369.974,-74.9349 380.521,-73.9221 377.587,-67.5664"/>
</g>
<!-- 8&#45;&gt;5 -->
<g id="edge5" class="edge"><title>8&#45;&gt;5</title>
<path fill="none" stroke="black" d="M487.104,-37.063C486.191,-45.2812 485.073,-55.34 484.045,-64.5941"/>
<polygon fill="none" stroke="black" points="480.564,-64.2339 482.938,-74.5593 487.521,-65.007 480.564,-64.2339"/>
</g>
<!-- 9 -->
<g id="node8" class="node"><title>9</title>
<polygon fill="none" stroke="black" points="275.456,-1 275.456,-37 414.544,-37 414.544,-1 275.456,-1"/>
<text text-anchor="middle" x="345" y="-13.4" font-family="Times,serif" font-size="14.00">SharkWithNunchucks</text>
</g>
<!-- 9&#45;&gt;5 -->
<g id="edge7" class="edge"><title>9&#45;&gt;5</title>
<path fill="none" stroke="black" d="M377.23,-37.063C397.483,-47.7854 423.655,-61.6409 444.648,-72.7546"/>
<polygon fill="none" stroke="black" points="443.115,-75.9036 453.591,-77.4893 446.391,-69.7171 443.115,-75.9036"/>
</g>
<!-- 9&#45;&gt;7 -->
<g id="edge8" class="edge"><title>9&#45;&gt;7</title>
<path fill="none" stroke="black" d="M308.03,-37.063C286.253,-47.114 258.511,-59.9181 235.288,-70.6362"/>
<polygon fill="none" stroke="black" points="233.587,-67.5664 225.974,-74.9349 236.521,-73.9221 233.587,-67.5664"/>
</g>
</g>
</svg>
