<?xml version="1.0" encoding="UTF-8" standalone="no"?>
<!DOCTYPE svg PUBLIC "-//W3C//DTD SVG 1.1//EN"
 "http://www.w3.org/Graphics/SVG/1.1/DTD/svg11.dtd">
<!-- Generated by graphviz version 2.34.0 (20131025.1804)
 -->
<!-- Title: classes_No_Name Pages: 1 -->
<svg width="161pt" height="120pt"
 viewBox="0.00 0.00 161.00 120.00" xmlns="http://www.w3.org/2000/svg" xmlns:xlink="http://www.w3.org/1999/xlink">
<g id="graph0" class="graph" transform="scale(1 1) rotate(0) translate(4 116)">
<title>classes_No_Name</title>
<polygon fill="white" stroke="white" points="-4,4 -4,-116 157,-116 157,4 -4,4"/>
<!-- 2 -->
<g id="node1" class="node"><title>2</title>
<polygon fill="none" stroke="black" points="0,-75 0,-111 54,-111 54,-75 0,-75"/>
<text text-anchor="middle" x="26.8311" y="-87.4" font-family="Times,serif" font-size="14.00">Shark</text>
</g>
<!-- 3 -->
<g id="node2" class="node"><title>3</title>
<polygon fill="none" stroke="black" points="13.6802,-1 13.6802,-37 126.32,-37 126.32,-1 13.6802,-1"/>
<text text-anchor="middle" x="70" y="-13.4" font-family="Times,serif" font-size="14.00">SharkWithLasers</text>
</g>
<!-- 3&#45;&gt;2 -->
<g id="edge1" class="edge"><title>3&#45;&gt;2</title>
<path fill="none" stroke="black" d="M59.8096,-37.063C54.6904,-45.6346 48.3754,-56.2086 42.6571,-65.7835"/>
<polygon fill="none" stroke="black" points="39.5385,-64.1793 37.416,-74.5593 45.5483,-67.7685 39.5385,-64.1793"/>
</g>
<!-- 4 -->
<g id="node3" class="node"><title>4</title>
<polygon fill="none" stroke="black" points="72.3413,-75 72.3413,-111 153.659,-111 153.659,-75 72.3413,-75"/>
<text text-anchor="middle" x="113" y="-87.4" font-family="Times,serif" font-size="14.00">LaserMixin</text>
</g>
<!-- 3&#45;&gt;4 -->
<g id="edge2" class="edge"><title>3&#45;&gt;4</title>
<path fill="none" stroke="black" d="M80.1904,-37.063C85.3096,-45.6346 91.6246,-56.2086 97.3429,-65.7835"/>
<polygon fill="none" stroke="black" points="94.4517,-67.7685 102.584,-74.5593 100.461,-64.1793 94.4517,-67.7685"/>
</g>
</g>
</svg>
