<?xml version="1.0" encoding="UTF-8" standalone="no"?>
<!DOCTYPE svg PUBLIC "-//W3C//DTD SVG 1.1//EN"
 "http://www.w3.org/Graphics/SVG/1.1/DTD/svg11.dtd">
<!-- Generated by graphviz version 2.26.3 (20100126.1600)
 -->
<!-- Title: classes_No_Name Pages: 1 -->
<svg width="172pt" height="120pt"
 viewBox="0.00 0.00 172.00 120.00" xmlns="http://www.w3.org/2000/svg" xmlns:xlink="http://www.w3.org/1999/xlink">
<g id="graph1" class="graph" transform="scale(1 1) rotate(0) translate(4 116)">
<title>classes_No_Name</title>
<polygon fill="white" stroke="white" points="-4,5 -4,-116 169,-116 169,5 -4,5"/>
<!-- 2 -->
<g id="node1" class="node"><title>2</title>
<polygon fill="none" stroke="black" points="-0.5,-75 -0.5,-111 56.5,-111 56.5,-75 -0.5,-75"/>
<text text-anchor="middle" x="28" y="-89.4" font-family="Times Roman,serif" font-size="14.00">Shark</text>
</g>
<!-- 3 -->
<g id="node2" class="node"><title>3</title>
<polygon fill="none" stroke="black" points="5.5,-1 5.5,-37 140.5,-37 140.5,-1 5.5,-1"/>
<text text-anchor="middle" x="73" y="-15.4" font-family="Times Roman,serif" font-size="14.00">SharkWithLasers</text>
</g>
<!-- 3&#45;&gt;2 -->
<g id="edge2" class="edge"><title>3&#45;&gt;2</title>
<path fill="none" stroke="black" d="M61.8764,-37.2921C56.5905,-45.9845 50.1678,-56.5463 44.3419,-66.1267"/>
<polygon fill="none" stroke="black" points="41.201,-64.5555 38.9956,-74.9183 47.182,-68.1926 41.201,-64.5555"/>
</g>
<!-- 4 -->
<g id="node3" class="node"><title>4</title>
<polygon fill="none" stroke="black" points="73.5,-75 73.5,-111 164.5,-111 164.5,-75 73.5,-75"/>
<text text-anchor="middle" x="119" y="-89.4" font-family="Times Roman,serif" font-size="14.00">LaserMixin</text>
</g>
<!-- 3&#45;&gt;4 -->
<g id="edge4" class="edge"><title>3&#45;&gt;4</title>
<path fill="none" stroke="black" d="M84.3708,-37.2921C89.8299,-46.0741 96.4751,-56.7643 102.479,-66.4227"/>
<polygon fill="none" stroke="black" points="99.5081,-68.2732 107.76,-74.9183 105.453,-64.5776 99.5081,-68.2732"/>
</g>
</g>
</svg>
