<?xml version="1.0" encoding="UTF-8" standalone="no"?>
<!DOCTYPE svg PUBLIC "-//W3C//DTD SVG 1.1//EN"
 "http://www.w3.org/Graphics/SVG/1.1/DTD/svg11.dtd">
<!-- Generated by graphviz version 2.26.3 (20100126.1600)
 -->
<!-- Title: classes_No_Name Pages: 1 -->
<svg width="642pt" height="120pt"
 viewBox="0.00 0.00 642.00 120.00" xmlns="http://www.w3.org/2000/svg" xmlns:xlink="http://www.w3.org/1999/xlink">
<g id="graph1" class="graph" transform="scale(1 1) rotate(0) translate(4 116)">
<title>classes_No_Name</title>
<polygon fill="white" stroke="white" points="-4,5 -4,-116 639,-116 639,5 -4,5"/>
<!-- 2 -->
<g id="node1" class="node"><title>2</title>
<polygon fill="none" stroke="black" points="174,-1 174,-37 300,-37 300,-1 174,-1"/>
<text text-anchor="middle" x="237" y="-15.4" font-family="Times Roman,serif" font-size="14.00">OrcaWithLasers</text>
</g>
<!-- 3 -->
<g id="node2" class="node"><title>3</title>
<polygon fill="none" stroke="black" points="51,-75 51,-111 105,-111 105,-75 51,-75"/>
<text text-anchor="middle" x="78" y="-89.4" font-family="Times Roman,serif" font-size="14.00">Orca</text>
</g>
<!-- 2&#45;&gt;3 -->
<g id="edge2" class="edge"><title>2&#45;&gt;3</title>
<path fill="none" stroke="black" d="M194.843,-37.0402C170.951,-47.4664 140.605,-61.0478 114,-74 113.909,-74.0445 113.817,-74.089 113.726,-74.1337"/>
<polygon fill="none" stroke="black" points="112.401,-70.8823 105.03,-78.4925 115.538,-77.1401 112.401,-70.8823"/>
</g>
<!-- 4 -->
<g id="node3" class="node"><title>4</title>
<polygon fill="none" stroke="black" points="262.5,-75 262.5,-111 353.5,-111 353.5,-75 262.5,-75"/>
<text text-anchor="middle" x="308" y="-89.4" font-family="Times Roman,serif" font-size="14.00">LaserMixin</text>
</g>
<!-- 2&#45;&gt;4 -->
<g id="edge4" class="edge"><title>2&#45;&gt;4</title>
<path fill="none" stroke="black" d="M254.551,-37.2921C263.32,-46.4326 274.074,-57.6401 283.63,-67.6"/>
<polygon fill="none" stroke="black" points="281.202,-70.1256 290.651,-74.9183 286.254,-65.2793 281.202,-70.1256"/>
</g>
<!-- 5 -->
<g id="node4" class="node"><title>5</title>
<polygon fill="none" stroke="black" points="454.5,-75 454.5,-111 511.5,-111 511.5,-75 454.5,-75"/>
<text text-anchor="middle" x="483" y="-89.4" font-family="Times Roman,serif" font-size="14.00">Shark</text>
</g>
<!-- 6 -->
<g id="node5" class="node"><title>6</title>
<polygon fill="none" stroke="black" points="-0.5,-1 -0.5,-37 156.5,-37 156.5,-1 -0.5,-1"/>
<text text-anchor="middle" x="78" y="-15.4" font-family="Times Roman,serif" font-size="14.00">OrcaWithNunchucks</text>
</g>
<!-- 6&#45;&gt;3 -->
<g id="edge6" class="edge"><title>6&#45;&gt;3</title>
<path fill="none" stroke="black" d="M78,-37.2921C78,-45.5365 78,-55.4624 78,-64.6378"/>
<polygon fill="none" stroke="black" points="74.5001,-64.9182 78,-74.9183 81.5001,-64.9183 74.5001,-64.9182"/>
</g>
<!-- 7 -->
<g id="node6" class="node"><title>7</title>
<polygon fill="none" stroke="black" points="123,-75 123,-111 245,-111 245,-75 123,-75"/>
<text text-anchor="middle" x="184" y="-89.4" font-family="Times Roman,serif" font-size="14.00">NunchuckMixin</text>
</g>
<!-- 6&#45;&gt;7 -->
<g id="edge8" class="edge"><title>6&#45;&gt;7</title>
<path fill="none" stroke="black" d="M103.931,-37.1024C117.662,-46.6883 134.706,-58.5875 149.536,-68.9403"/>
<polygon fill="none" stroke="black" points="147.767,-71.9736 157.97,-74.828 151.774,-66.2338 147.767,-71.9736"/>
</g>
<!-- 8 -->
<g id="node7" class="node"><title>8</title>
<polygon fill="none" stroke="black" points="499.5,-1 499.5,-37 634.5,-37 634.5,-1 499.5,-1"/>
<text text-anchor="middle" x="567" y="-15.4" font-family="Times Roman,serif" font-size="14.00">SharkWithLasers</text>
</g>
<!-- 8&#45;&gt;4 -->
<g id="edge12" class="edge"><title>8&#45;&gt;4</title>
<path fill="none" stroke="black" d="M503.973,-37.0078C461.09,-49.2599 404.866,-65.324 363.642,-77.1022"/>
<polygon fill="none" stroke="black" points="362.421,-73.8111 353.767,-79.9237 364.344,-80.5417 362.421,-73.8111"/>
</g>
<!-- 8&#45;&gt;5 -->
<g id="edge10" class="edge"><title>8&#45;&gt;5</title>
<path fill="none" stroke="black" d="M546.236,-37.2921C535.657,-46.6118 522.638,-58.0804 511.169,-68.1844"/>
<polygon fill="none" stroke="black" points="508.715,-65.6817 503.525,-74.9183 513.342,-70.9342 508.715,-65.6817"/>
</g>
<!-- 9 -->
<g id="node8" class="node"><title>9</title>
<polygon fill="none" stroke="black" points="317.5,-1 317.5,-37 482.5,-37 482.5,-1 317.5,-1"/>
<text text-anchor="middle" x="400" y="-15.4" font-family="Times Roman,serif" font-size="14.00">SharkWithNunchucks</text>
</g>
<!-- 9&#45;&gt;5 -->
<g id="edge14" class="edge"><title>9&#45;&gt;5</title>
<path fill="none" stroke="black" d="M420.517,-37.2921C430.97,-46.6118 443.833,-58.0804 455.166,-68.1844"/>
<polygon fill="none" stroke="black" points="452.926,-70.8759 462.719,-74.9183 457.584,-65.651 452.926,-70.8759"/>
</g>
<!-- 9&#45;&gt;7 -->
<g id="edge16" class="edge"><title>9&#45;&gt;7</title>
<path fill="none" stroke="black" d="M347.437,-37.0078C316.994,-47.4372 278.489,-60.6287 246.501,-71.5876"/>
<polygon fill="none" stroke="black" points="245.125,-68.3593 236.799,-74.9114 247.394,-74.9814 245.125,-68.3593"/>
</g>
</g>
</svg>
