<?xml version="1.0" encoding="UTF-8" standalone="no"?>
<!DOCTYPE svg PUBLIC "-//W3C//DTD SVG 1.1//EN"
 "http://www.w3.org/Graphics/SVG/1.1/DTD/svg11.dtd">
<!-- Generated by graphviz version 10.0.1 (20240210.2158)
 -->
<!-- Title: classes Pages: 1 -->
<svg width="739pt" height="264pt"
 viewBox="0.00 0.00 739.38 264.00" xmlns="http://www.w3.org/2000/svg" xmlns:xlink="http://www.w3.org/1999/xlink">
<g id="graph0" class="graph" transform="scale(1 1) rotate(0) translate(4 260)">
<title>classes</title>
<polygon fill="white" stroke="none" points="-4,4 -4,-260 735.38,-260 735.38,4 -4,4"/>
<!-- shark_inherit_3.Animal -->
<g id="node1" class="node">
<title>shark_inherit_3.Animal</title>
<polygon fill="none" stroke="black" points="309.38,-219.5 309.38,-255.5 366.62,-255.5 366.62,-219.5 309.38,-219.5"/>
<text text-anchor="start" x="317.38" y="-232.45" font-family="Times,serif" font-size="14.00">Animal</text>
</g>
<!-- shark_inherit_3.ArmorMixin -->
<g id="node2" class="node">
<title>shark_inherit_3.ArmorMixin</title>
<polygon fill="none" stroke="black" points="296.75,-73.5 296.75,-109.5 383.25,-109.5 383.25,-73.5 296.75,-73.5"/>
<text text-anchor="start" x="304.75" y="-86.45" font-family="Times,serif" font-size="14.00">ArmorMixin</text>
</g>
<!-- shark_inherit_3.ArmoredOrcaWithLasers -->
<g id="node3" class="node">
<title>shark_inherit_3.ArmoredOrcaWithLasers</title>
<polygon fill="none" stroke="black" points="0,-0.5 0,-36.5 154,-36.5 154,-0.5 0,-0.5"/>
<text text-anchor="start" x="8" y="-13.45" font-family="Times,serif" font-size="14.00">ArmoredOrcaWithLasers</text>
</g>
<!-- shark_inherit_3.ArmoredOrcaWithLasers&#45;&gt;shark_inherit_3.ArmorMixin -->
<g id="edge1" class="edge">
<title>shark_inherit_3.ArmoredOrcaWithLasers&#45;&gt;shark_inherit_3.ArmorMixin</title>
<path fill="none" stroke="black" d="M151.59,-36.94C189.37,-46.12 236.14,-58 285.48,-72.35"/>
<polygon fill="none" stroke="black" points="284.35,-75.67 294.93,-75.13 286.32,-68.95 284.35,-75.67"/>
</g>
<!-- shark_inherit_3.OrcaWithLasers -->
<g id="node10" class="node">
<title>shark_inherit_3.OrcaWithLasers</title>
<polygon fill="none" stroke="black" points="46.75,-73.5 46.75,-109.5 151.25,-109.5 151.25,-73.5 46.75,-73.5"/>
<text text-anchor="start" x="54.75" y="-86.45" font-family="Times,serif" font-size="14.00">OrcaWithLasers</text>
</g>
<!-- shark_inherit_3.ArmoredOrcaWithLasers&#45;&gt;shark_inherit_3.OrcaWithLasers -->
<g id="edge2" class="edge">
<title>shark_inherit_3.ArmoredOrcaWithLasers&#45;&gt;shark_inherit_3.OrcaWithLasers</title>
<path fill="none" stroke="black" d="M82.33,-36.69C84.73,-44.45 87.63,-53.82 90.34,-62.55"/>
<polygon fill="none" stroke="black" points="86.97,-63.51 93.28,-72.03 93.66,-61.44 86.97,-63.51"/>
</g>
<!-- shark_inherit_3.ArmoredOrcaWithNunchucks -->
<g id="node4" class="node">
<title>shark_inherit_3.ArmoredOrcaWithNunchucks</title>
<polygon fill="none" stroke="black" points="349.25,-0.5 349.25,-36.5 528.75,-36.5 528.75,-0.5 349.25,-0.5"/>
<text text-anchor="start" x="357.25" y="-13.45" font-family="Times,serif" font-size="14.00">ArmoredOrcaWithNunchucks</text>
</g>
<!-- shark_inherit_3.ArmoredOrcaWithNunchucks&#45;&gt;shark_inherit_3.ArmorMixin -->
<g id="edge3" class="edge">
<title>shark_inherit_3.ArmoredOrcaWithNunchucks&#45;&gt;shark_inherit_3.ArmorMixin</title>
<path fill="none" stroke="black" d="M414.78,-36.87C402.32,-45.81 386.93,-56.84 373.36,-66.58"/>
<polygon fill="none" stroke="black" points="371.63,-63.51 365.54,-72.18 375.71,-69.2 371.63,-63.51"/>
</g>
<!-- shark_inherit_3.OrcaWithNunchucks -->
<g id="node11" class="node">
<title>shark_inherit_3.OrcaWithNunchucks</title>
<polygon fill="none" stroke="black" points="401,-73.5 401,-109.5 531,-109.5 531,-73.5 401,-73.5"/>
<text text-anchor="start" x="409" y="-86.45" font-family="Times,serif" font-size="14.00">OrcaWithNunchucks</text>
</g>
<!-- shark_inherit_3.ArmoredOrcaWithNunchucks&#45;&gt;shark_inherit_3.OrcaWithNunchucks -->
<g id="edge4" class="edge">
<title>shark_inherit_3.ArmoredOrcaWithNunchucks&#45;&gt;shark_inherit_3.OrcaWithNunchucks</title>
<path fill="none" stroke="black" d="M445.54,-36.69C448.52,-44.54 452.13,-54.03 455.48,-62.84"/>
<polygon fill="none" stroke="black" points="452.16,-63.95 458.99,-72.06 458.7,-61.47 452.16,-63.95"/>
</g>
<!-- shark_inherit_3.ArmoredSharkWithLasers -->
<g id="node5" class="node">
<title>shark_inherit_3.ArmoredSharkWithLasers</title>
<polygon fill="none" stroke="black" points="172.38,-0.5 172.38,-36.5 331.62,-36.5 331.62,-0.5 172.38,-0.5"/>
<text text-anchor="start" x="180.38" y="-13.45" font-family="Times,serif" font-size="14.00">ArmoredSharkWithLasers</text>
</g>
<!-- shark_inherit_3.ArmoredSharkWithLasers&#45;&gt;shark_inherit_3.ArmorMixin -->
<g id="edge5" class="edge">
<title>shark_inherit_3.ArmoredSharkWithLasers&#45;&gt;shark_inherit_3.ArmorMixin</title>
<path fill="none" stroke="black" d="M273.3,-36.69C284.25,-45.52 297.77,-56.43 309.77,-66.11"/>
<polygon fill="none" stroke="black" points="307.43,-68.72 317.41,-72.27 311.83,-63.27 307.43,-68.72"/>
</g>
<!-- shark_inherit_3.SharkWithLasers -->
<g id="node13" class="node">
<title>shark_inherit_3.SharkWithLasers</title>
<polygon fill="none" stroke="black" points="169.12,-73.5 169.12,-109.5 278.88,-109.5 278.88,-73.5 169.12,-73.5"/>
<text text-anchor="start" x="177.12" y="-86.45" font-family="Times,serif" font-size="14.00">SharkWithLasers</text>
</g>
<!-- shark_inherit_3.ArmoredSharkWithLasers&#45;&gt;shark_inherit_3.SharkWithLasers -->
<g id="edge6" class="edge">
<title>shark_inherit_3.ArmoredSharkWithLasers&#45;&gt;shark_inherit_3.SharkWithLasers</title>
<path fill="none" stroke="black" d="M245.22,-36.69C242.13,-44.54 238.38,-54.03 234.91,-62.84"/>
<polygon fill="none" stroke="black" points="231.68,-61.48 231.27,-72.06 238.2,-64.04 231.68,-61.48"/>
</g>
<!-- shark_inherit_3.ArmoredSharkWithNunchucks -->
<g id="node6" class="node">
<title>shark_inherit_3.ArmoredSharkWithNunchucks</title>
<polygon fill="none" stroke="black" points="546.62,-0.5 546.62,-36.5 731.38,-36.5 731.38,-0.5 546.62,-0.5"/>
<text text-anchor="start" x="554.62" y="-13.45" font-family="Times,serif" font-size="14.00">ArmoredSharkWithNunchucks</text>
</g>
<!-- shark_inherit_3.ArmoredSharkWithNunchucks&#45;&gt;shark_inherit_3.ArmorMixin -->
<g id="edge7" class="edge">
<title>shark_inherit_3.ArmoredSharkWithNunchucks&#45;&gt;shark_inherit_3.ArmorMixin</title>
<path fill="none" stroke="black" d="M546.62,-36.97C502.88,-45.84 449.78,-57.47 394.64,-72.41"/>
<polygon fill="none" stroke="black" points="393.76,-69.02 385.04,-75.04 395.61,-75.77 393.76,-69.02"/>
</g>
<!-- shark_inherit_3.SharkWithNunchucks -->
<g id="node14" class="node">
<title>shark_inherit_3.SharkWithNunchucks</title>
<polygon fill="none" stroke="black" points="549.38,-73.5 549.38,-109.5 684.62,-109.5 684.62,-73.5 549.38,-73.5"/>
<text text-anchor="start" x="557.38" y="-86.45" font-family="Times,serif" font-size="14.00">SharkWithNunchucks</text>
</g>
<!-- shark_inherit_3.ArmoredSharkWithNunchucks&#45;&gt;shark_inherit_3.SharkWithNunchucks -->
<g id="edge8" class="edge">
<title>shark_inherit_3.ArmoredSharkWithNunchucks&#45;&gt;shark_inherit_3.SharkWithNunchucks</title>
<path fill="none" stroke="black" d="M633.67,-36.69C631.27,-44.45 628.37,-53.82 625.66,-62.55"/>
<polygon fill="none" stroke="black" points="622.34,-61.44 622.72,-72.03 629.03,-63.51 622.34,-61.44"/>
</g>
<!-- shark_inherit_3.LaserMixin -->
<g id="node7" class="node">
<title>shark_inherit_3.LaserMixin</title>
<polygon fill="none" stroke="black" points="177.12,-146.5 177.12,-182.5 256.88,-182.5 256.88,-146.5 177.12,-146.5"/>
<text text-anchor="start" x="185.12" y="-159.45" font-family="Times,serif" font-size="14.00">LaserMixin</text>
</g>
<!-- shark_inherit_3.Weapon -->
<g id="node15" class="node">
<title>shark_inherit_3.Weapon</title>
<polygon fill="none" stroke="black" points="226.5,-219.5 226.5,-255.5 287.5,-255.5 287.5,-219.5 226.5,-219.5"/>
<text text-anchor="start" x="234.5" y="-232.45" font-family="Times,serif" font-size="14.00">Weapon</text>
</g>
<!-- shark_inherit_3.LaserMixin&#45;&gt;shark_inherit_3.Weapon -->
<g id="edge9" class="edge">
<title>shark_inherit_3.LaserMixin&#45;&gt;shark_inherit_3.Weapon</title>
<path fill="none" stroke="black" d="M226.68,-182.69C231.25,-190.8 236.81,-200.66 241.91,-209.72"/>
<polygon fill="none" stroke="black" points="238.71,-211.16 246.66,-218.15 244.8,-207.72 238.71,-211.16"/>
</g>
<!-- shark_inherit_3.NunchuckMixin -->
<g id="node8" class="node">
<title>shark_inherit_3.NunchuckMixin</title>
<polygon fill="none" stroke="black" points="419.38,-146.5 419.38,-182.5 524.62,-182.5 524.62,-146.5 419.38,-146.5"/>
<text text-anchor="start" x="427.38" y="-159.45" font-family="Times,serif" font-size="14.00">NunchuckMixin</text>
</g>
<!-- shark_inherit_3.NunchuckMixin&#45;&gt;shark_inherit_3.Weapon -->
<g id="edge10" class="edge">
<title>shark_inherit_3.NunchuckMixin&#45;&gt;shark_inherit_3.Weapon</title>
<path fill="none" stroke="black" d="M418.92,-180.74C384.73,-190.87 339.45,-204.87 300,-219 299.51,-219.18 299.01,-219.36 298.51,-219.54"/>
<polygon fill="none" stroke="black" points="297.41,-216.21 289.3,-223.03 299.89,-222.76 297.41,-216.21"/>
</g>
<!-- shark_inherit_3.Orca -->
<g id="node9" class="node">
<title>shark_inherit_3.Orca</title>
<polygon fill="none" stroke="black" points="275,-146.5 275,-182.5 329,-182.5 329,-146.5 275,-146.5"/>
<text text-anchor="start" x="288.5" y="-159.45" font-family="Times,serif" font-size="14.00">Orca</text>
</g>
<!-- shark_inherit_3.Orca&#45;&gt;shark_inherit_3.Animal -->
<g id="edge11" class="edge">
<title>shark_inherit_3.Orca&#45;&gt;shark_inherit_3.Animal</title>
<path fill="none" stroke="black" d="M310.71,-182.69C314.78,-190.71 319.72,-200.45 324.27,-209.43"/>
<polygon fill="none" stroke="black" points="321.04,-210.79 328.68,-218.12 327.28,-207.62 321.04,-210.79"/>
</g>
<!-- shark_inherit_3.OrcaWithLasers&#45;&gt;shark_inherit_3.LaserMixin -->
<g id="edge12" class="edge">
<title>shark_inherit_3.OrcaWithLasers&#45;&gt;shark_inherit_3.LaserMixin</title>
<path fill="none" stroke="black" d="M127.87,-109.87C143.01,-118.98 161.77,-130.27 178.17,-140.14"/>
<polygon fill="none" stroke="black" points="176.35,-143.13 186.73,-145.28 179.96,-137.13 176.35,-143.13"/>
</g>
<!-- shark_inherit_3.OrcaWithLasers&#45;&gt;shark_inherit_3.Orca -->
<g id="edge13" class="edge">
<title>shark_inherit_3.OrcaWithLasers&#45;&gt;shark_inherit_3.Orca</title>
<path fill="none" stroke="black" d="M151.51,-108.43C187.74,-119.57 233.61,-134 264.15,-145.58"/>
<polygon fill="none" stroke="black" points="262.67,-148.76 273.26,-149.16 265.23,-142.25 262.67,-148.76"/>
</g>
<!-- shark_inherit_3.OrcaWithNunchucks&#45;&gt;shark_inherit_3.NunchuckMixin -->
<g id="edge14" class="edge">
<title>shark_inherit_3.OrcaWithNunchucks&#45;&gt;shark_inherit_3.NunchuckMixin</title>
<path fill="none" stroke="black" d="M467.45,-109.69C468.1,-117.36 468.88,-126.61 469.61,-135.26"/>
<polygon fill="none" stroke="black" points="466.1,-135.29 470.43,-144.96 473.08,-134.7 466.1,-135.29"/>
</g>
<!-- shark_inherit_3.OrcaWithNunchucks&#45;&gt;shark_inherit_3.Orca -->
<g id="edge15" class="edge">
<title>shark_inherit_3.OrcaWithNunchucks&#45;&gt;shark_inherit_3.Orca</title>
<path fill="none" stroke="black" d="M422.49,-109.97C399.93,-119.19 371.76,-130.95 339.56,-145.39"/>
<polygon fill="none" stroke="black" points="338.5,-142.04 330.82,-149.34 341.38,-148.42 338.5,-142.04"/>
</g>
<!-- shark_inherit_3.Shark -->
<g id="node12" class="node">
<title>shark_inherit_3.Shark</title>
<polygon fill="none" stroke="black" points="347,-146.5 347,-182.5 401,-182.5 401,-146.5 347,-146.5"/>
<text text-anchor="start" x="358" y="-159.45" font-family="Times,serif" font-size="14.00">Shark</text>
</g>
<!-- shark_inherit_3.Shark&#45;&gt;shark_inherit_3.Animal -->
<g id="edge16" class="edge">
<title>shark_inherit_3.Shark&#45;&gt;shark_inherit_3.Animal</title>
<path fill="none" stroke="black" d="M365.29,-182.69C361.22,-190.71 356.28,-200.45 351.73,-209.43"/>
<polygon fill="none" stroke="black" points="348.72,-207.62 347.32,-218.12 354.96,-210.79 348.72,-207.62"/>
</g>
<!-- shark_inherit_3.SharkWithLasers&#45;&gt;shark_inherit_3.LaserMixin -->
<g id="edge17" class="edge">
<title>shark_inherit_3.SharkWithLasers&#45;&gt;shark_inherit_3.LaserMixin</title>
<path fill="none" stroke="black" d="M222.31,-109.69C221.55,-117.36 220.64,-126.61 219.78,-135.26"/>
<polygon fill="none" stroke="black" points="216.33,-134.67 218.83,-144.96 223.29,-135.36 216.33,-134.67"/>
</g>
<!-- shark_inherit_3.SharkWithLasers&#45;&gt;shark_inherit_3.Shark -->
<g id="edge18" class="edge">
<title>shark_inherit_3.SharkWithLasers&#45;&gt;shark_inherit_3.Shark</title>
<path fill="none" stroke="black" d="M261.54,-109.96C281.54,-119.3 306.78,-131.14 336.32,-145.22"/>
<polygon fill="none" stroke="black" points="334.6,-148.28 345.14,-149.43 337.62,-141.96 334.6,-148.28"/>
</g>
<!-- shark_inherit_3.SharkWithNunchucks&#45;&gt;shark_inherit_3.NunchuckMixin -->
<g id="edge19" class="edge">
<title>shark_inherit_3.SharkWithNunchucks&#45;&gt;shark_inherit_3.NunchuckMixin</title>
<path fill="none" stroke="black" d="M581.53,-109.87C562.31,-119.28 538.34,-131.02 517.73,-141.11"/>
<polygon fill="none" stroke="black" points="516.41,-137.86 508.97,-145.4 519.49,-144.14 516.41,-137.86"/>
</g>
<!-- shark_inherit_3.SharkWithNunchucks&#45;&gt;shark_inherit_3.Shark -->
<g id="edge20" class="edge">
<title>shark_inherit_3.SharkWithNunchucks&#45;&gt;shark_inherit_3.Shark</title>
<path fill="none" stroke="black" d="M549.02,-108.52C503.85,-119.43 447.67,-133.56 412.07,-145.69"/>
<polygon fill="none" stroke="black" points="410.93,-142.37 402.7,-149.04 413.29,-148.97 410.93,-142.37"/>
</g>
</g>
</svg>
