<?xml version="1.0" encoding="UTF-8" standalone="no"?>
<!DOCTYPE svg PUBLIC "-//W3C//DTD SVG 1.1//EN"
 "http://www.w3.org/Graphics/SVG/1.1/DTD/svg11.dtd">
<!-- Generated by graphviz version 2.34.0 (20131025.1804)
 -->
<!-- Title: classes_No_Name Pages: 1 -->
<svg width="756pt" height="268pt"
 viewBox="0.00 0.00 756.00 268.00" xmlns="http://www.w3.org/2000/svg" xmlns:xlink="http://www.w3.org/1999/xlink">
<g id="graph0" class="graph" transform="scale(1 1) rotate(0) translate(4 264)">
<title>classes_No_Name</title>
<polygon fill="white" stroke="white" points="-4,4 -4,-264 752,-264 752,4 -4,4"/>
<!-- 2 -->
<g id="node1" class="node"><title>2</title>
<polygon fill="none" stroke="black" points="-0.85791,-1 -0.85791,-37 156.858,-37 156.858,-1 -0.85791,-1"/>
<text text-anchor="middle" x="78" y="-13.4" font-family="Times,serif" font-size="14.00">ArmoredOrcaWithLasers</text>
</g>
<!-- 3 -->
<g id="node2" class="node"><title>3</title>
<polygon fill="none" stroke="black" points="47.4111,-75 47.4111,-111 154.589,-111 154.589,-75 47.4111,-75"/>
<text text-anchor="middle" x="101" y="-87.4" font-family="Times,serif" font-size="14.00">OrcaWithLasers</text>
</g>
<!-- 2&#45;&gt;3 -->
<g id="edge1" class="edge"><title>2&#45;&gt;3</title>
<path fill="none" stroke="black" d="M83.4507,-37.063C86.1042,-45.3695 89.3583,-55.5565 92.3406,-64.8923"/>
<polygon fill="none" stroke="black" points="89.0516,-66.0986 95.4287,-74.5593 95.7197,-63.9685 89.0516,-66.0986"/>
</g>
<!-- 8 -->
<g id="node7" class="node"><title>8</title>
<polygon fill="none" stroke="black" points="303.224,-75 303.224,-111 390.776,-111 390.776,-75 303.224,-75"/>
<text text-anchor="middle" x="347" y="-87.4" font-family="Times,serif" font-size="14.00">ArmorMixin</text>
</g>
<!-- 2&#45;&gt;8 -->
<g id="edge2" class="edge"><title>2&#45;&gt;8</title>
<path fill="none" stroke="black" d="M152.884,-37.1149C192.195,-46.4774 241.31,-58.7646 293.375,-73.9255"/>
<polygon fill="none" stroke="black" points="292.548,-77.3304 303.129,-76.7897 294.52,-70.614 292.548,-77.3304"/>
</g>
<!-- 4 -->
<g id="node3" class="node"><title>4</title>
<polygon fill="none" stroke="black" points="283,-149 283,-185 337,-185 337,-149 283,-149"/>
<text text-anchor="middle" x="309.6" y="-161.4" font-family="Times,serif" font-size="14.00">Orca</text>
</g>
<!-- 3&#45;&gt;4 -->
<g id="edge3" class="edge"><title>3&#45;&gt;4</title>
<path fill="none" stroke="black" d="M154.67,-109.899C196.621,-122.504 251.333,-139.384 273,-148 273.1,-148.04 273.199,-148.079 273.299,-148.119"/>
<polygon fill="none" stroke="black" points="272.155,-151.437 282.725,-152.17 274.919,-145.006 272.155,-151.437"/>
</g>
<!-- 6 -->
<g id="node5" class="node"><title>6</title>
<polygon fill="none" stroke="black" points="183.341,-149 183.341,-185 264.659,-185 264.659,-149 183.341,-149"/>
<text text-anchor="middle" x="224" y="-161.4" font-family="Times,serif" font-size="14.00">LaserMixin</text>
</g>
<!-- 3&#45;&gt;6 -->
<g id="edge4" class="edge"><title>3&#45;&gt;6</title>
<path fill="none" stroke="black" d="M130.149,-111.063C146.725,-120.766 167.684,-133.034 185.589,-143.515"/>
<polygon fill="none" stroke="black" points="184.235,-146.779 194.634,-148.81 187.772,-140.738 184.235,-146.779"/>
</g>
<!-- 5 -->
<g id="node4" class="node"><title>5</title>
<polygon fill="none" stroke="black" points="317.003,-223 317.003,-259 374.997,-259 374.997,-223 317.003,-223"/>
<text text-anchor="middle" x="346" y="-235.4" font-family="Times,serif" font-size="14.00">Animal</text>
</g>
<!-- 4&#45;&gt;5 -->
<g id="edge5" class="edge"><title>4&#45;&gt;5</title>
<path fill="none" stroke="black" d="M318.531,-185.063C322.773,-193.546 327.995,-203.991 332.744,-213.487"/>
<polygon fill="none" stroke="black" points="329.677,-215.18 337.28,-222.559 335.938,-212.05 329.677,-215.18"/>
</g>
<!-- 7 -->
<g id="node6" class="node"><title>7</title>
<polygon fill="none" stroke="black" points="233.236,-223 233.236,-259 294.764,-259 294.764,-223 233.236,-223"/>
<text text-anchor="middle" x="264" y="-235.4" font-family="Times,serif" font-size="14.00">Weapon</text>
</g>
<!-- 6&#45;&gt;7 -->
<g id="edge6" class="edge"><title>6&#45;&gt;7</title>
<path fill="none" stroke="black" d="M233.479,-185.063C238.241,-193.635 244.116,-204.209 249.435,-213.783"/>
<polygon fill="none" stroke="black" points="246.395,-215.518 254.311,-222.559 252.514,-212.118 246.395,-215.518"/>
</g>
<!-- 9 -->
<g id="node8" class="node"><title>9</title>
<polygon fill="none" stroke="black" points="355,-149 355,-185 409,-185 409,-149 355,-149"/>
<text text-anchor="middle" x="381.831" y="-161.4" font-family="Times,serif" font-size="14.00">Shark</text>
</g>
<!-- 9&#45;&gt;5 -->
<g id="edge7" class="edge"><title>9&#45;&gt;5</title>
<path fill="none" stroke="black" d="M373.469,-185.063C369.227,-193.546 364.005,-203.991 359.256,-213.487"/>
<polygon fill="none" stroke="black" points="356.062,-212.05 354.72,-222.559 362.323,-215.18 356.062,-212.05"/>
</g>
<!-- 10 -->
<g id="node9" class="node"><title>10</title>
<polygon fill="none" stroke="black" points="174.411,-1 174.411,-37 337.589,-37 337.589,-1 174.411,-1"/>
<text text-anchor="middle" x="256" y="-13.4" font-family="Times,serif" font-size="14.00">ArmoredSharkWithLasers</text>
</g>
<!-- 10&#45;&gt;8 -->
<g id="edge9" class="edge"><title>10&#45;&gt;8</title>
<path fill="none" stroke="black" d="M277.566,-37.063C289.379,-46.4098 304.202,-58.1375 317.115,-68.3544"/>
<polygon fill="none" stroke="black" points="315.26,-71.3499 325.274,-74.81 319.603,-65.8603 315.26,-71.3499"/>
</g>
<!-- 11 -->
<g id="node10" class="node"><title>11</title>
<polygon fill="none" stroke="black" points="172.68,-75 172.68,-111 285.32,-111 285.32,-75 172.68,-75"/>
<text text-anchor="middle" x="229" y="-87.4" font-family="Times,serif" font-size="14.00">SharkWithLasers</text>
</g>
<!-- 10&#45;&gt;11 -->
<g id="edge8" class="edge"><title>10&#45;&gt;11</title>
<path fill="none" stroke="black" d="M249.601,-37.063C246.453,-45.4579 242.585,-55.7734 239.054,-65.19"/>
<polygon fill="none" stroke="black" points="235.774,-63.9671 235.54,-74.5593 242.329,-66.425 235.774,-63.9671"/>
</g>
<!-- 11&#45;&gt;6 -->
<g id="edge11" class="edge"><title>11&#45;&gt;6</title>
<path fill="none" stroke="black" d="M227.815,-111.063C227.25,-119.193 226.561,-129.124 225.924,-138.295"/>
<polygon fill="none" stroke="black" points="222.412,-138.341 225.211,-148.559 229.396,-138.826 222.412,-138.341"/>
</g>
<!-- 11&#45;&gt;9 -->
<g id="edge10" class="edge"><title>11&#45;&gt;9</title>
<path fill="none" stroke="black" d="M266.815,-111.091C287.732,-120.626 314.371,-132.903 345.552,-147.843"/>
<polygon fill="none" stroke="black" points="344.389,-151.167 354.918,-152.346 347.422,-144.858 344.389,-151.167"/>
</g>
<!-- 12 -->
<g id="node11" class="node"><title>12</title>
<polygon fill="none" stroke="black" points="409.187,-75 409.187,-111 542.813,-111 542.813,-75 409.187,-75"/>
<text text-anchor="middle" x="476" y="-87.4" font-family="Times,serif" font-size="14.00">OrcaWithNunchucks</text>
</g>
<!-- 12&#45;&gt;4 -->
<g id="edge12" class="edge"><title>12&#45;&gt;4</title>
<path fill="none" stroke="black" d="M432.932,-111.008C409.549,-120.443 380.004,-132.685 346.194,-148.041"/>
<polygon fill="none" stroke="black" points="344.667,-144.89 337.029,-152.232 347.579,-151.256 344.667,-144.89"/>
</g>
<!-- 13 -->
<g id="node12" class="node"><title>13</title>
<polygon fill="none" stroke="black" points="427.117,-149 427.117,-185 534.883,-185 534.883,-149 427.117,-149"/>
<text text-anchor="middle" x="481" y="-161.4" font-family="Times,serif" font-size="14.00">NunchuckMixin</text>
</g>
<!-- 12&#45;&gt;13 -->
<g id="edge13" class="edge"><title>12&#45;&gt;13</title>
<path fill="none" stroke="black" d="M477.185,-111.063C477.75,-119.193 478.439,-129.124 479.076,-138.295"/>
<polygon fill="none" stroke="black" points="475.604,-138.826 479.789,-148.559 482.588,-138.341 475.604,-138.826"/>
</g>
<!-- 13&#45;&gt;7 -->
<g id="edge14" class="edge"><title>13&#45;&gt;7</title>
<path fill="none" stroke="black" d="M426.835,-183.606C392.532,-193.809 347.375,-207.83 308,-222 306.952,-222.377 305.891,-222.765 304.824,-223.161"/>
<polygon fill="none" stroke="black" points="303.202,-220.034 295.12,-226.884 305.71,-226.569 303.202,-220.034"/>
</g>
<!-- 14 -->
<g id="node13" class="node"><title>14</title>
<polygon fill="none" stroke="black" points="355.918,-1 355.918,-37 540.082,-37 540.082,-1 355.918,-1"/>
<text text-anchor="middle" x="448" y="-13.4" font-family="Times,serif" font-size="14.00">ArmoredOrcaWithNunchucks</text>
</g>
<!-- 14&#45;&gt;8 -->
<g id="edge16" class="edge"><title>14&#45;&gt;8</title>
<path fill="none" stroke="black" d="M424.064,-37.063C410.703,-46.5878 393.874,-58.5851 379.353,-68.9365"/>
<polygon fill="none" stroke="black" points="377.225,-66.1552 371.114,-74.81 381.288,-71.8552 377.225,-66.1552"/>
</g>
<!-- 14&#45;&gt;12 -->
<g id="edge15" class="edge"><title>14&#45;&gt;12</title>
<path fill="none" stroke="black" d="M454.636,-37.063C457.9,-45.4579 461.912,-55.7734 465.574,-65.19"/>
<polygon fill="none" stroke="black" points="462.331,-66.5079 469.218,-74.5593 468.855,-63.9707 462.331,-66.5079"/>
</g>
<!-- 15 -->
<g id="node14" class="node"><title>15</title>
<polygon fill="none" stroke="black" points="558.187,-1 558.187,-37 747.813,-37 747.813,-1 558.187,-1"/>
<text text-anchor="middle" x="653" y="-13.4" font-family="Times,serif" font-size="14.00">ArmoredSharkWithNunchucks</text>
</g>
<!-- 15&#45;&gt;8 -->
<g id="edge18" class="edge"><title>15&#45;&gt;8</title>
<path fill="none" stroke="black" d="M560.438,-37.052C514.81,-46.102 458.869,-58.1544 400.59,-73.9905"/>
<polygon fill="none" stroke="black" points="399.552,-70.646 390.837,-76.6706 401.407,-77.3958 399.552,-70.646"/>
</g>
<!-- 16 -->
<g id="node15" class="node"><title>16</title>
<polygon fill="none" stroke="black" points="560.456,-75 560.456,-111 699.544,-111 699.544,-75 560.456,-75"/>
<text text-anchor="middle" x="630" y="-87.4" font-family="Times,serif" font-size="14.00">SharkWithNunchucks</text>
</g>
<!-- 15&#45;&gt;16 -->
<g id="edge17" class="edge"><title>15&#45;&gt;16</title>
<path fill="none" stroke="black" d="M647.549,-37.063C644.896,-45.3695 641.642,-55.5565 638.659,-64.8923"/>
<polygon fill="none" stroke="black" points="635.28,-63.9685 635.571,-74.5593 641.948,-66.0986 635.28,-63.9685"/>
</g>
<!-- 16&#45;&gt;9 -->
<g id="edge19" class="edge"><title>16&#45;&gt;9</title>
<path fill="none" stroke="black" d="M560.34,-110.045C513.466,-121.133 455.028,-135.591 418.837,-148.137"/>
<polygon fill="none" stroke="black" points="417.451,-144.916 409.247,-151.62 419.841,-151.496 417.451,-144.916"/>
</g>
<!-- 16&#45;&gt;13 -->
<g id="edge20" class="edge"><title>16&#45;&gt;13</title>
<path fill="none" stroke="black" d="M594.689,-111.063C573.982,-121.069 547.627,-133.804 525.507,-144.493"/>
<polygon fill="none" stroke="black" points="523.796,-141.433 516.315,-148.935 526.842,-147.735 523.796,-141.433"/>
</g>
</g>
</svg>
