<?xml version="1.0" encoding="UTF-8" standalone="no"?>
<!DOCTYPE svg PUBLIC "-//W3C//DTD SVG 1.1//EN"
 "http://www.w3.org/Graphics/SVG/1.1/DTD/svg11.dtd">
<!-- Generated by graphviz version 10.0.1 (20240210.2158)
 -->
<!-- Title: classes_No_Name Pages: 1 -->
<svg width="1917pt" height="118pt"
 viewBox="0.00 0.00 1917.00 118.00" xmlns="http://www.w3.org/2000/svg" xmlns:xlink="http://www.w3.org/1999/xlink">
<g id="graph0" class="graph" transform="scale(1 1) rotate(0) translate(4 114)">
<title>classes_No_Name</title>
<polygon fill="white" stroke="none" points="-4,4 -4,-114 1913,-114 1913,4 -4,4"/>
<!-- 2 -->
<g id="node1" class="node">
<title>2</title>
<polygon fill="none" stroke="black" points="1258.75,-0.5 1258.75,-36.5 1403,-36.5 1403,-0.5 1258.75,-0.5"/>
<text text-anchor="middle" x="1330.88" y="-13.45" font-family="Times,serif" font-size="14.00">DataSetCollectionView</text>
</g>
<!-- 3 -->
<g id="node2" class="node">
<title>3</title>
<polygon fill="none" stroke="black" points="567.5,-73.5 567.5,-109.5 728.25,-109.5 728.25,-73.5 567.5,-73.5"/>
<text text-anchor="middle" x="647.88" y="-86.45" font-family="Times,serif" font-size="14.00">Ignore_CacheBusterMixin</text>
</g>
<!-- 2&#45;&gt;3 -->
<g id="edge1" class="edge">
<title>2&#45;&gt;3</title>
<path fill="none" stroke="black" d="M1258.54,-35.66C1255.62,-36.15 1252.72,-36.59 1249.88,-37 1027.24,-68.7 965.43,-43.73 739.56,-72.75"/>
<polygon fill="none" stroke="black" points="739.29,-69.25 729.83,-74.02 740.2,-76.19 739.29,-69.25"/>
</g>
<!-- 4 -->
<g id="node3" class="node">
<title>4</title>
<polygon fill="none" stroke="black" points="472.5,-73.5 472.5,-109.5 549.25,-109.5 549.25,-73.5 472.5,-73.5"/>
<text text-anchor="middle" x="510.88" y="-86.45" font-family="Times,serif" font-size="14.00">AuthMixin</text>
</g>
<!-- 2&#45;&gt;4 -->
<g id="edge2" class="edge">
<title>2&#45;&gt;4</title>
<path fill="none" stroke="black" d="M1258.55,-35.73C1255.63,-36.19 1252.73,-36.62 1249.88,-37 948.76,-77.11 862.33,-13.25 560.9,-73"/>
<polygon fill="none" stroke="black" points="560.22,-69.57 551.11,-74.98 561.61,-76.43 560.22,-69.57"/>
</g>
<!-- 5 -->
<g id="node4" class="node">
<title>5</title>
<polygon fill="none" stroke="black" points="746.12,-73.5 746.12,-109.5 835.62,-109.5 835.62,-73.5 746.12,-73.5"/>
<text text-anchor="middle" x="790.88" y="-86.45" font-family="Times,serif" font-size="14.00">AbsUrlMixin</text>
</g>
<!-- 2&#45;&gt;5 -->
<g id="edge3" class="edge">
<title>2&#45;&gt;5</title>
<path fill="none" stroke="black" d="M1258.53,-35.58C1255.61,-36.09 1252.72,-36.56 1249.88,-37 1077.82,-63.43 1031.43,-43.51 859.88,-73 855.61,-73.73 851.23,-74.59 846.83,-75.53"/>
<polygon fill="none" stroke="black" points="846.4,-72.04 837.42,-77.66 847.94,-78.87 846.4,-72.04"/>
</g>
<!-- 6 -->
<g id="node5" class="node">
<title>6</title>
<polygon fill="none" stroke="black" points="869,-73.5 869,-109.5 1062.75,-109.5 1062.75,-73.5 869,-73.5"/>
<text text-anchor="middle" x="965.88" y="-86.45" font-family="Times,serif" font-size="14.00">ModelViewWithDataBlobMixin</text>
</g>
<!-- 2&#45;&gt;6 -->
<g id="edge4" class="edge">
<title>2&#45;&gt;6</title>
<path fill="none" stroke="black" d="M1258.47,-35.24C1255.57,-35.84 1252.7,-36.43 1249.88,-37 1191.57,-48.79 1126.35,-61.13 1073.13,-70.99"/>
<polygon fill="none" stroke="black" points="1072.65,-67.52 1063.45,-72.78 1073.92,-74.4 1072.65,-67.52"/>
</g>
<!-- 7 -->
<g id="node6" class="node">
<title>7</title>
<polygon fill="none" stroke="black" points="0,-0.5 0,-36.5 133.75,-36.5 133.75,-0.5 0,-0.5"/>
<text text-anchor="middle" x="66.88" y="-13.45" font-family="Times,serif" font-size="14.00">OwnerPasswordView</text>
</g>
<!-- 7&#45;&gt;3 -->
<g id="edge5" class="edge">
<title>7&#45;&gt;3</title>
<path fill="none" stroke="black" d="M133.91,-35.47C136.93,-36.02 139.93,-36.54 142.88,-37 322.18,-65.28 372.57,-48 556.33,-72.89"/>
<polygon fill="none" stroke="black" points="555.59,-76.32 565.98,-74.22 556.55,-69.39 555.59,-76.32"/>
</g>
<!-- 7&#45;&gt;4 -->
<g id="edge6" class="edge">
<title>7&#45;&gt;4</title>
<path fill="none" stroke="black" d="M133.95,-35.26C136.96,-35.87 139.95,-36.45 142.88,-37 255.88,-58.19 389.75,-75.79 460.76,-84.54"/>
<polygon fill="none" stroke="black" points="460.17,-87.99 470.52,-85.73 461.02,-81.04 460.17,-87.99"/>
</g>
<!-- 7&#45;&gt;5 -->
<g id="edge7" class="edge">
<title>7&#45;&gt;5</title>
<path fill="none" stroke="black" d="M133.9,-35.57C136.92,-36.09 139.93,-36.57 142.88,-37 400.94,-74.27 474.91,-25.26 734.42,-72.84"/>
<polygon fill="none" stroke="black" points="733.76,-76.28 744.23,-74.67 735.04,-69.39 733.76,-76.28"/>
</g>
<!-- 8 -->
<g id="node7" class="node">
<title>8</title>
<polygon fill="none" stroke="black" points="1583,-0.5 1583,-36.5 1800.75,-36.5 1800.75,-0.5 1583,-0.5"/>
<text text-anchor="middle" x="1691.88" y="-13.45" font-family="Times,serif" font-size="14.00">IsOwnerOrSuperuserWithoutApiKey</text>
</g>
<!-- 9 -->
<g id="node8" class="node">
<title>9</title>
<polygon fill="none" stroke="black" points="1626.5,-73.5 1626.5,-109.5 1757.25,-109.5 1757.25,-73.5 1626.5,-73.5"/>
<text text-anchor="middle" x="1691.88" y="-86.45" font-family="Times,serif" font-size="14.00">IsOwnerOrSuperuser</text>
</g>
<!-- 8&#45;&gt;9 -->
<g id="edge8" class="edge">
<title>8&#45;&gt;9</title>
<path fill="none" stroke="black" d="M1691.88,-36.69C1691.88,-44.27 1691.88,-53.4 1691.88,-61.96"/>
<polygon fill="none" stroke="black" points="1688.38,-61.96 1691.88,-71.96 1695.38,-61.96 1688.38,-61.96"/>
</g>
<!-- 10 -->
<g id="node9" class="node">
<title>10</title>
<polygon fill="none" stroke="black" points="259.38,-0.5 259.38,-36.5 392.38,-36.5 392.38,-0.5 259.38,-0.5"/>
<text text-anchor="middle" x="325.88" y="-13.45" font-family="Times,serif" font-size="14.00">DataSetInstanceView</text>
</g>
<!-- 10&#45;&gt;3 -->
<g id="edge9" class="edge">
<title>10&#45;&gt;3</title>
<path fill="none" stroke="black" d="M392.59,-34.91C395.73,-35.62 398.84,-36.32 401.88,-37 452.8,-48.4 509.74,-60.81 556,-70.8"/>
<polygon fill="none" stroke="black" points="555.23,-74.21 565.74,-72.9 556.7,-67.37 555.23,-74.21"/>
</g>
<!-- 10&#45;&gt;4 -->
<g id="edge10" class="edge">
<title>10&#45;&gt;4</title>
<path fill="none" stroke="black" d="M371.13,-36.87C398.54,-47.39 433.52,-60.81 461.63,-71.6"/>
<polygon fill="none" stroke="black" points="460.03,-74.73 470.62,-75.05 462.54,-68.2 460.03,-74.73"/>
</g>
<!-- 10&#45;&gt;5 -->
<g id="edge11" class="edge">
<title>10&#45;&gt;5</title>
<path fill="none" stroke="black" d="M392.51,-35.32C395.67,-35.92 398.8,-36.48 401.88,-37 545.94,-61.24 588.37,-42.71 734.52,-72.76"/>
<polygon fill="none" stroke="black" points="733.7,-76.16 744.21,-74.8 735.14,-69.31 733.7,-76.16"/>
</g>
<!-- 10&#45;&gt;6 -->
<g id="edge12" class="edge">
<title>10&#45;&gt;6</title>
<path fill="none" stroke="black" d="M392.5,-35.42C395.66,-35.99 398.8,-36.52 401.88,-37 597.08,-67.24 648.58,-50.85 844.88,-73 848.96,-73.46 853.13,-73.95 857.33,-74.47"/>
<polygon fill="none" stroke="black" points="856.67,-77.91 867.03,-75.69 857.55,-70.97 856.67,-77.91"/>
</g>
<!-- 11 -->
<g id="node10" class="node">
<title>11</title>
<polygon fill="none" stroke="black" points="1818.75,-0.5 1818.75,-36.5 1909,-36.5 1909,-0.5 1818.75,-0.5"/>
<text text-anchor="middle" x="1863.88" y="-13.45" font-family="Times,serif" font-size="14.00">CachedMixin</text>
</g>
<!-- 12 -->
<g id="node11" class="node">
<title>12</title>
<polygon fill="none" stroke="black" points="410.5,-0.5 410.5,-36.5 541.25,-36.5 541.25,-0.5 410.5,-0.5"/>
<text text-anchor="middle" x="475.88" y="-13.45" font-family="Times,serif" font-size="14.00">PlaceCollectionView</text>
</g>
<!-- 12&#45;&gt;3 -->
<g id="edge13" class="edge">
<title>12&#45;&gt;3</title>
<path fill="none" stroke="black" d="M517.95,-36.87C541.27,-46.5 570.49,-58.55 595.3,-68.8"/>
<polygon fill="none" stroke="black" points="593.66,-71.91 604.24,-72.49 596.33,-65.44 593.66,-71.91"/>
</g>
<!-- 12&#45;&gt;4 -->
<g id="edge14" class="edge">
<title>12&#45;&gt;4</title>
<path fill="none" stroke="black" d="M484.35,-36.69C488.3,-44.71 493.11,-54.45 497.53,-63.43"/>
<polygon fill="none" stroke="black" points="494.25,-64.69 501.81,-72.11 500.53,-61.6 494.25,-64.69"/>
</g>
<!-- 12&#45;&gt;5 -->
<g id="edge15" class="edge">
<title>12&#45;&gt;5</title>
<path fill="none" stroke="black" d="M541.61,-35.2C544.4,-35.82 547.16,-36.42 549.88,-37 629.16,-54 652.93,-52.11 734.8,-72.64"/>
<polygon fill="none" stroke="black" points="733.89,-76.02 744.45,-75.1 735.62,-69.24 733.89,-76.02"/>
</g>
<!-- 12&#45;&gt;6 -->
<g id="edge16" class="edge">
<title>12&#45;&gt;6</title>
<path fill="none" stroke="black" d="M541.56,-35.43C544.37,-35.99 547.15,-36.51 549.88,-37 679.9,-60.23 713.95,-55.55 844.88,-73 849.01,-73.55 853.22,-74.12 857.48,-74.7"/>
<polygon fill="none" stroke="black" points="856.93,-78.16 867.32,-76.06 857.89,-71.23 856.93,-78.16"/>
</g>
<!-- 13 -->
<g id="node12" class="node">
<title>13</title>
<polygon fill="none" stroke="black" points="559.12,-0.5 559.12,-36.5 678.62,-36.5 678.62,-0.5 559.12,-0.5"/>
<text text-anchor="middle" x="618.88" y="-13.45" font-family="Times,serif" font-size="14.00">PlaceInstanceView</text>
</g>
<!-- 13&#45;&gt;3 -->
<g id="edge17" class="edge">
<title>13&#45;&gt;3</title>
<path fill="none" stroke="black" d="M625.9,-36.69C629.1,-44.54 632.98,-54.03 636.58,-62.84"/>
<polygon fill="none" stroke="black" points="633.33,-64.14 640.35,-72.07 639.81,-61.49 633.33,-64.14"/>
</g>
<!-- 13&#45;&gt;4 -->
<g id="edge18" class="edge">
<title>13&#45;&gt;4</title>
<path fill="none" stroke="black" d="M592.46,-36.87C578.73,-45.89 561.75,-57.06 546.84,-66.86"/>
<polygon fill="none" stroke="black" points="545.09,-63.82 538.66,-72.23 548.94,-69.66 545.09,-63.82"/>
</g>
<!-- 13&#45;&gt;5 -->
<g id="edge19" class="edge">
<title>13&#45;&gt;5</title>
<path fill="none" stroke="black" d="M660.95,-36.87C684.27,-46.5 713.49,-58.55 738.3,-68.8"/>
<polygon fill="none" stroke="black" points="736.66,-71.91 747.24,-72.49 739.33,-65.44 736.66,-71.91"/>
</g>
<!-- 13&#45;&gt;6 -->
<g id="edge20" class="edge">
<title>13&#45;&gt;6</title>
<path fill="none" stroke="black" d="M679.04,-34.98C682.02,-35.68 684.98,-36.35 687.88,-37 743.63,-49.42 806.06,-61.59 857.61,-71.18"/>
<polygon fill="none" stroke="black" points="856.82,-74.59 867.29,-72.97 858.09,-67.71 856.82,-74.59"/>
</g>
<!-- 14 -->
<g id="node13" class="node">
<title>14</title>
<polygon fill="none" stroke="black" points="152.12,-0.5 152.12,-36.5 241.62,-36.5 241.62,-0.5 152.12,-0.5"/>
<text text-anchor="middle" x="196.88" y="-13.45" font-family="Times,serif" font-size="14.00">ActivityView</text>
</g>
<!-- 14&#45;&gt;3 -->
<g id="edge21" class="edge">
<title>14&#45;&gt;3</title>
<path fill="none" stroke="black" d="M242.1,-35.1C244.72,-35.79 247.32,-36.44 249.88,-37 380.9,-65.97 419.66,-52.59 556.15,-72.83"/>
<polygon fill="none" stroke="black" points="555.55,-76.28 565.96,-74.32 556.6,-69.36 555.55,-76.28"/>
</g>
<!-- 14&#45;&gt;4 -->
<g id="edge22" class="edge">
<title>14&#45;&gt;4</title>
<path fill="none" stroke="black" d="M241.87,-34.75C244.57,-35.55 247.25,-36.3 249.88,-37 322.53,-56.37 408.17,-72.72 460.99,-82.06"/>
<polygon fill="none" stroke="black" points="460.13,-85.47 470.58,-83.75 461.34,-78.57 460.13,-85.47"/>
</g>
<!-- 14&#45;&gt;5 -->
<g id="edge23" class="edge">
<title>14&#45;&gt;5</title>
<path fill="none" stroke="black" d="M242.07,-35.23C244.69,-35.89 247.31,-36.49 249.88,-37 459.1,-78.62 521.76,-32.86 734.48,-72.83"/>
<polygon fill="none" stroke="black" points="733.74,-76.25 744.22,-74.71 735.07,-69.38 733.74,-76.25"/>
</g>
<!-- 15 -->
<g id="node14" class="node">
<title>15</title>
<polygon fill="none" stroke="black" points="697,-0.5 697,-36.5 884.75,-36.5 884.75,-0.5 697,-0.5"/>
<text text-anchor="middle" x="790.88" y="-13.45" font-family="Times,serif" font-size="14.00">AllSubmissionCollectionsView</text>
</g>
<!-- 15&#45;&gt;3 -->
<g id="edge24" class="edge">
<title>15&#45;&gt;3</title>
<path fill="none" stroke="black" d="M755.89,-36.87C737.02,-46.24 713.51,-57.91 693.25,-67.97"/>
<polygon fill="none" stroke="black" points="691.75,-64.81 684.35,-72.39 694.86,-71.08 691.75,-64.81"/>
</g>
<!-- 15&#45;&gt;4 -->
<g id="edge25" class="edge">
<title>15&#45;&gt;4</title>
<path fill="none" stroke="black" d="M703.46,-37C662.53,-45.82 613,-57.39 560.42,-72.73"/>
<polygon fill="none" stroke="black" points="559.56,-69.33 550.96,-75.52 561.54,-76.04 559.56,-69.33"/>
</g>
<!-- 15&#45;&gt;5 -->
<g id="edge26" class="edge">
<title>15&#45;&gt;5</title>
<path fill="none" stroke="black" d="M790.88,-36.69C790.88,-44.27 790.88,-53.4 790.88,-61.96"/>
<polygon fill="none" stroke="black" points="787.38,-61.96 790.88,-71.96 794.38,-61.96 787.38,-61.96"/>
</g>
<!-- 15&#45;&gt;6 -->
<g id="edge27" class="edge">
<title>15&#45;&gt;6</title>
<path fill="none" stroke="black" d="M833.68,-36.87C857.41,-46.5 887.14,-58.55 912.38,-68.8"/>
<polygon fill="none" stroke="black" points="910.92,-71.98 921.5,-72.5 913.55,-65.49 910.92,-71.98"/>
</g>
<!-- 16 -->
<g id="node15" class="node">
<title>16</title>
<polygon fill="none" stroke="black" points="1420.75,-0.5 1420.75,-36.5 1565,-36.5 1565,-0.5 1420.75,-0.5"/>
<text text-anchor="middle" x="1492.88" y="-13.45" font-family="Times,serif" font-size="14.00">ApiKeyCollectionView</text>
</g>
<!-- 16&#45;&gt;3 -->
<g id="edge28" class="edge">
<title>16&#45;&gt;3</title>
<path fill="none" stroke="black" d="M1420.55,-35.72C1417.63,-36.19 1414.73,-36.62 1411.88,-37 1117.74,-76.36 1036.97,-36.91 739.45,-72.79"/>
<polygon fill="none" stroke="black" points="739.33,-69.28 729.83,-73.97 740.18,-76.23 739.33,-69.28"/>
</g>
<!-- 16&#45;&gt;5 -->
<g id="edge29" class="edge">
<title>16&#45;&gt;5</title>
<path fill="none" stroke="black" d="M1420.55,-35.68C1417.62,-36.16 1414.72,-36.6 1411.88,-37 1168.39,-71.05 1102.72,-34.62 859.88,-73 855.6,-73.68 851.21,-74.49 846.81,-75.4"/>
<polygon fill="none" stroke="black" points="846.39,-71.91 837.39,-77.49 847.91,-78.74 846.39,-71.91"/>
</g>
<!-- 16&#45;&gt;6 -->
<g id="edge30" class="edge">
<title>16&#45;&gt;6</title>
<path fill="none" stroke="black" d="M1420.52,-35.48C1417.6,-36.02 1414.71,-36.52 1411.88,-37 1297.18,-56.23 1164.77,-71.21 1074.2,-80.36"/>
<polygon fill="none" stroke="black" points="1073.92,-76.87 1064.32,-81.36 1074.62,-83.84 1073.92,-76.87"/>
</g>
<!-- 17 -->
<g id="node16" class="node">
<title>17</title>
<polygon fill="none" stroke="black" points="902.88,-0.5 902.88,-36.5 1056.88,-36.5 1056.88,-0.5 902.88,-0.5"/>
<text text-anchor="middle" x="979.88" y="-13.45" font-family="Times,serif" font-size="14.00">SubmissionInstanceView</text>
</g>
<!-- 17&#45;&gt;3 -->
<g id="edge31" class="edge">
<title>17&#45;&gt;3</title>
<path fill="none" stroke="black" d="M902.45,-36.06C853.81,-46.46 790.82,-59.93 739.66,-70.87"/>
<polygon fill="none" stroke="black" points="739.13,-67.41 730.08,-72.92 740.59,-74.25 739.13,-67.41"/>
</g>
<!-- 17&#45;&gt;4 -->
<g id="edge32" class="edge">
<title>17&#45;&gt;4</title>
<path fill="none" stroke="black" d="M902.58,-35.58C899.65,-36.08 896.74,-36.56 893.88,-37 749.51,-59.39 706.81,-40.1 560.82,-72.9"/>
<polygon fill="none" stroke="black" points="560.11,-69.47 551.14,-75.12 561.67,-76.3 560.11,-69.47"/>
</g>
<!-- 17&#45;&gt;5 -->
<g id="edge33" class="edge">
<title>17&#45;&gt;5</title>
<path fill="none" stroke="black" d="M933.64,-36.87C907.4,-46.73 874.37,-59.13 846.69,-69.53"/>
<polygon fill="none" stroke="black" points="845.53,-66.23 837.4,-73.02 847.99,-72.78 845.53,-66.23"/>
</g>
<!-- 17&#45;&gt;6 -->
<g id="edge34" class="edge">
<title>17&#45;&gt;6</title>
<path fill="none" stroke="black" d="M976.49,-36.69C974.97,-44.36 973.15,-53.61 971.44,-62.26"/>
<polygon fill="none" stroke="black" points="968.03,-61.5 969.53,-71.99 974.89,-62.85 968.03,-61.5"/>
</g>
<!-- 18 -->
<g id="node17" class="node">
<title>18</title>
<polygon fill="none" stroke="black" points="1075.25,-0.5 1075.25,-36.5 1240.5,-36.5 1240.5,-0.5 1075.25,-0.5"/>
<text text-anchor="middle" x="1157.88" y="-13.45" font-family="Times,serif" font-size="14.00">SubmissionCollectionView</text>
</g>
<!-- 18&#45;&gt;3 -->
<g id="edge35" class="edge">
<title>18&#45;&gt;3</title>
<path fill="none" stroke="black" d="M1075.18,-35.55C1072.04,-36.06 1068.93,-36.54 1065.88,-37 923.95,-58.23 884.21,-51.16 739.42,-72.69"/>
<polygon fill="none" stroke="black" points="739.21,-69.18 729.85,-74.13 740.26,-76.1 739.21,-69.18"/>
</g>
<!-- 18&#45;&gt;4 -->
<g id="edge36" class="edge">
<title>18&#45;&gt;4</title>
<path fill="none" stroke="black" d="M1075.2,-35.7C1072.05,-36.17 1068.94,-36.6 1065.88,-37 845.47,-65.69 781.84,-27.13 560.64,-73.02"/>
<polygon fill="none" stroke="black" points="560.18,-69.54 551.12,-75.03 561.63,-76.39 560.18,-69.54"/>
</g>
<!-- 18&#45;&gt;5 -->
<g id="edge37" class="edge">
<title>18&#45;&gt;5</title>
<path fill="none" stroke="black" d="M1075.13,-35.3C1072.01,-35.88 1068.91,-36.45 1065.88,-37 974.44,-53.68 950.76,-53.56 859.88,-73 855.65,-73.9 851.28,-74.89 846.9,-75.91"/>
<polygon fill="none" stroke="black" points="846.42,-72.43 837.51,-78.17 848.05,-79.24 846.42,-72.43"/>
</g>
<!-- 18&#45;&gt;6 -->
<g id="edge38" class="edge">
<title>18&#45;&gt;6</title>
<path fill="none" stroke="black" d="M1110.91,-36.87C1084.64,-46.58 1051.68,-58.77 1023.82,-69.07"/>
<polygon fill="none" stroke="black" points="1022.61,-65.79 1014.44,-72.54 1025.04,-72.35 1022.61,-65.79"/>
</g>
</g>
</svg>
