<?xml version="1.0" encoding="UTF-8" standalone="no"?>
<!DOCTYPE svg PUBLIC "-//W3C//DTD SVG 1.1//EN"
 "http://www.w3.org/Graphics/SVG/1.1/DTD/svg11.dtd">
<!-- Generated by graphviz version 10.0.1 (20240210.2158)
 -->
<!-- Title: classes Pages: 1 -->
<svg width="542pt" height="118pt"
 viewBox="0.00 0.00 541.88 118.00" xmlns="http://www.w3.org/2000/svg" xmlns:xlink="http://www.w3.org/1999/xlink">
<g id="graph0" class="graph" transform="scale(1 1) rotate(0) translate(4 114)">
<title>classes</title>
<polygon fill="white" stroke="none" points="-4,4 -4,-114 537.88,-114 537.88,4 -4,4"/>
<!-- shark_inherit_1a.LaserMixin -->
<g id="node1" class="node">
<title>shark_inherit_1a.LaserMixin</title>
<polygon fill="none" stroke="black" points="75.38,-73.5 75.38,-109.5 155.12,-109.5 155.12,-73.5 75.38,-73.5"/>
<text text-anchor="start" x="83.38" y="-86.45" font-family="Times,serif" font-size="14.00">LaserMixin</text>
</g>
<!-- shark_inherit_1a.NunchuckMixin -->
<g id="node2" class="node">
<title>shark_inherit_1a.NunchuckMixin</title>
<polygon fill="none" stroke="black" points="324.62,-73.5 324.62,-109.5 429.88,-109.5 429.88,-73.5 324.62,-73.5"/>
<text text-anchor="start" x="332.62" y="-86.45" font-family="Times,serif" font-size="14.00">NunchuckMixin</text>
</g>
<!-- shark_inherit_1a.Orca -->
<g id="node3" class="node">
<title>shark_inherit_1a.Orca</title>
<polygon fill="none" stroke="black" points="177.25,-73.5 177.25,-109.5 231.25,-109.5 231.25,-73.5 177.25,-73.5"/>
<text text-anchor="start" x="190.75" y="-86.45" font-family="Times,serif" font-size="14.00">Orca</text>
</g>
<!-- shark_inherit_1a.OrcaWithLasers -->
<g id="node4" class="node">
<title>shark_inherit_1a.OrcaWithLasers</title>
<polygon fill="none" stroke="black" points="0,-0.5 0,-36.5 104.5,-36.5 104.5,-0.5 0,-0.5"/>
<text text-anchor="start" x="8" y="-13.45" font-family="Times,serif" font-size="14.00">OrcaWithLasers</text>
</g>
<!-- shark_inherit_1a.OrcaWithLasers&#45;&gt;shark_inherit_1a.LaserMixin -->
<g id="edge1" class="edge">
<title>shark_inherit_1a.OrcaWithLasers&#45;&gt;shark_inherit_1a.LaserMixin</title>
<path fill="none" stroke="black" d="M67.5,-36.69C75.01,-45.15 84.21,-55.52 92.52,-64.89"/>
<polygon fill="none" stroke="black" points="89.88,-67.18 99.14,-72.34 95.12,-62.54 89.88,-67.18"/>
</g>
<!-- shark_inherit_1a.OrcaWithLasers&#45;&gt;shark_inherit_1a.Orca -->
<g id="edge2" class="edge">
<title>shark_inherit_1a.OrcaWithLasers&#45;&gt;shark_inherit_1a.Orca</title>
<path fill="none" stroke="black" d="M89.43,-36.87C112.91,-47.83 143.14,-61.95 166.68,-72.95"/>
<polygon fill="none" stroke="black" points="165.07,-76.06 175.61,-77.12 168.03,-69.72 165.07,-76.06"/>
</g>
<!-- shark_inherit_1a.OrcaWithNunchucks -->
<g id="node5" class="node">
<title>shark_inherit_1a.OrcaWithNunchucks</title>
<polygon fill="none" stroke="black" points="250.25,-0.5 250.25,-36.5 380.25,-36.5 380.25,-0.5 250.25,-0.5"/>
<text text-anchor="start" x="258.25" y="-13.45" font-family="Times,serif" font-size="14.00">OrcaWithNunchucks</text>
</g>
<!-- shark_inherit_1a.OrcaWithNunchucks&#45;&gt;shark_inherit_1a.NunchuckMixin -->
<g id="edge3" class="edge">
<title>shark_inherit_1a.OrcaWithNunchucks&#45;&gt;shark_inherit_1a.NunchuckMixin</title>
<path fill="none" stroke="black" d="M330.26,-36.69C337.65,-45.15 346.7,-55.52 354.88,-64.89"/>
<polygon fill="none" stroke="black" points="352.17,-67.1 361.38,-72.33 357.44,-62.5 352.17,-67.1"/>
</g>
<!-- shark_inherit_1a.OrcaWithNunchucks&#45;&gt;shark_inherit_1a.Orca -->
<g id="edge4" class="edge">
<title>shark_inherit_1a.OrcaWithNunchucks&#45;&gt;shark_inherit_1a.Orca</title>
<path fill="none" stroke="black" d="M288.1,-36.87C273.85,-45.98 256.2,-57.27 240.78,-67.14"/>
<polygon fill="none" stroke="black" points="239.32,-63.91 232.78,-72.25 243.09,-69.81 239.32,-63.91"/>
</g>
<!-- shark_inherit_1a.Shark -->
<g id="node6" class="node">
<title>shark_inherit_1a.Shark</title>
<polygon fill="none" stroke="black" points="251.25,-73.5 251.25,-109.5 305.25,-109.5 305.25,-73.5 251.25,-73.5"/>
<text text-anchor="start" x="262.25" y="-86.45" font-family="Times,serif" font-size="14.00">Shark</text>
</g>
<!-- shark_inherit_1a.SharkWithLasers -->
<g id="node7" class="node">
<title>shark_inherit_1a.SharkWithLasers</title>
<polygon fill="none" stroke="black" points="122.38,-0.5 122.38,-36.5 232.12,-36.5 232.12,-0.5 122.38,-0.5"/>
<text text-anchor="start" x="130.38" y="-13.45" font-family="Times,serif" font-size="14.00">SharkWithLasers</text>
</g>
<!-- shark_inherit_1a.SharkWithLasers&#45;&gt;shark_inherit_1a.LaserMixin -->
<g id="edge5" class="edge">
<title>shark_inherit_1a.SharkWithLasers&#45;&gt;shark_inherit_1a.LaserMixin</title>
<path fill="none" stroke="black" d="M162.24,-36.69C154.85,-45.15 145.8,-55.52 137.62,-64.89"/>
<polygon fill="none" stroke="black" points="135.06,-62.5 131.12,-72.33 140.33,-67.1 135.06,-62.5"/>
</g>
<!-- shark_inherit_1a.SharkWithLasers&#45;&gt;shark_inherit_1a.Shark -->
<g id="edge6" class="edge">
<title>shark_inherit_1a.SharkWithLasers&#45;&gt;shark_inherit_1a.Shark</title>
<path fill="none" stroke="black" d="M201.96,-36.87C214.67,-45.81 230.37,-56.84 244.22,-66.58"/>
<polygon fill="none" stroke="black" points="242.02,-69.31 252.21,-72.19 246.04,-63.58 242.02,-69.31"/>
</g>
<!-- shark_inherit_1a.SharkWithNunchucks -->
<g id="node8" class="node">
<title>shark_inherit_1a.SharkWithNunchucks</title>
<polygon fill="none" stroke="black" points="398.62,-0.5 398.62,-36.5 533.88,-36.5 533.88,-0.5 398.62,-0.5"/>
<text text-anchor="start" x="406.62" y="-13.45" font-family="Times,serif" font-size="14.00">SharkWithNunchucks</text>
</g>
<!-- shark_inherit_1a.SharkWithNunchucks&#45;&gt;shark_inherit_1a.NunchuckMixin -->
<g id="edge7" class="edge">
<title>shark_inherit_1a.SharkWithNunchucks&#45;&gt;shark_inherit_1a.NunchuckMixin</title>
<path fill="none" stroke="black" d="M444.71,-36.69C433.64,-45.52 419.96,-56.43 407.82,-66.11"/>
<polygon fill="none" stroke="black" points="405.72,-63.31 400.09,-72.28 410.09,-68.78 405.72,-63.31"/>
</g>
<!-- shark_inherit_1a.SharkWithNunchucks&#45;&gt;shark_inherit_1a.Shark -->
<g id="edge8" class="edge">
<title>shark_inherit_1a.SharkWithNunchucks&#45;&gt;shark_inherit_1a.Shark</title>
<path fill="none" stroke="black" d="M412.99,-36.9C386.35,-45.93 353.49,-57.59 316.22,-72.8"/>
<polygon fill="none" stroke="black" points="314.9,-69.56 306.99,-76.61 317.57,-76.03 314.9,-69.56"/>
</g>
</g>
</svg>
