<?xml version="1.0" encoding="UTF-8" standalone="no"?>
<!DOCTYPE svg PUBLIC "-//W3C//DTD SVG 1.1//EN"
 "http://www.w3.org/Graphics/SVG/1.1/DTD/svg11.dtd">
<!-- Generated by graphviz version 2.34.0 (20131025.1804)
 -->
<!-- Title: classes_No_Name Pages: 1 -->
<svg width="553pt" height="194pt"
 viewBox="0.00 0.00 553.00 194.00" xmlns="http://www.w3.org/2000/svg" xmlns:xlink="http://www.w3.org/1999/xlink">
<g id="graph0" class="graph" transform="scale(1 1) rotate(0) translate(4 190)">
<title>classes_No_Name</title>
<polygon fill="white" stroke="white" points="-4,4 -4,-190 549,-190 549,4 -4,4"/>
<!-- 2 -->
<g id="node1" class="node"><title>2</title>
<polygon fill="none" stroke="black" points="438.411,-1 438.411,-37 545.589,-37 545.589,-1 438.411,-1"/>
<text text-anchor="middle" x="492" y="-13.4" font-family="Times,serif" font-size="14.00">OrcaWithLasers</text>
</g>
<!-- 3 -->
<g id="node2" class="node"><title>3</title>
<polygon fill="none" stroke="black" points="402,-75 402,-111 456,-111 456,-75 402,-75"/>
<text text-anchor="middle" x="428.6" y="-87.4" font-family="Times,serif" font-size="14.00">Orca</text>
</g>
<!-- 2&#45;&gt;3 -->
<g id="edge1" class="edge"><title>2&#45;&gt;3</title>
<path fill="none" stroke="black" d="M477.07,-37.063C469.26,-45.9881 459.551,-57.0841 450.908,-66.9627"/>
<polygon fill="none" stroke="black" points="448.212,-64.7288 444.261,-74.5593 453.48,-69.3383 448.212,-64.7288"/>
</g>
<!-- 5 -->
<g id="node4" class="node"><title>5</title>
<polygon fill="none" stroke="black" points="302.341,-75 302.341,-111 383.659,-111 383.659,-75 302.341,-75"/>
<text text-anchor="middle" x="343" y="-87.4" font-family="Times,serif" font-size="14.00">LaserMixin</text>
</g>
<!-- 2&#45;&gt;5 -->
<g id="edge2" class="edge"><title>2&#45;&gt;5</title>
<path fill="none" stroke="black" d="M456.689,-37.063C435.982,-47.0693 409.627,-59.8044 387.507,-70.4932"/>
<polygon fill="none" stroke="black" points="385.796,-67.4326 378.315,-74.9349 388.842,-73.7353 385.796,-67.4326"/>
</g>
<!-- 4 -->
<g id="node3" class="node"><title>4</title>
<polygon fill="none" stroke="black" points="369.003,-149 369.003,-185 426.997,-185 426.997,-149 369.003,-149"/>
<text text-anchor="middle" x="398" y="-161.4" font-family="Times,serif" font-size="14.00">Animal</text>
</g>
<!-- 3&#45;&gt;4 -->
<g id="edge3" class="edge"><title>3&#45;&gt;4</title>
<path fill="none" stroke="black" d="M421.653,-111.063C418.039,-119.458 413.598,-129.773 409.543,-139.19"/>
<polygon fill="none" stroke="black" points="406.249,-137.99 405.509,-148.559 412.679,-140.759 406.249,-137.99"/>
</g>
<!-- 6 -->
<g id="node5" class="node"><title>6</title>
<polygon fill="none" stroke="black" points="229.236,-149 229.236,-185 290.764,-185 290.764,-149 229.236,-149"/>
<text text-anchor="middle" x="260" y="-161.4" font-family="Times,serif" font-size="14.00">Weapon</text>
</g>
<!-- 5&#45;&gt;6 -->
<g id="edge4" class="edge"><title>5&#45;&gt;6</title>
<path fill="none" stroke="black" d="M323.33,-111.063C312.658,-120.321 299.293,-131.914 287.595,-142.062"/>
<polygon fill="none" stroke="black" points="285.077,-139.613 279.816,-148.81 289.664,-144.901 285.077,-139.613"/>
</g>
<!-- 7 -->
<g id="node6" class="node"><title>7</title>
<polygon fill="none" stroke="black" points="104,-75 104,-111 158,-111 158,-75 104,-75"/>
<text text-anchor="middle" x="130.831" y="-87.4" font-family="Times,serif" font-size="14.00">Shark</text>
</g>
<!-- 7&#45;&gt;4 -->
<g id="edge5" class="edge"><title>7&#45;&gt;4</title>
<path fill="none" stroke="black" d="M158.226,-108.438C161.147,-109.738 164.108,-110.955 167,-112 202.007,-124.646 302.737,-146.354 358.93,-158.023"/>
<polygon fill="none" stroke="black" points="358.377,-161.483 368.879,-160.081 359.795,-154.628 358.377,-161.483"/>
</g>
<!-- 8 -->
<g id="node7" class="node"><title>8</title>
<polygon fill="none" stroke="black" points="287.187,-1 287.187,-37 420.813,-37 420.813,-1 287.187,-1"/>
<text text-anchor="middle" x="354" y="-13.4" font-family="Times,serif" font-size="14.00">OrcaWithNunchucks</text>
</g>
<!-- 8&#45;&gt;3 -->
<g id="edge6" class="edge"><title>8&#45;&gt;3</title>
<path fill="none" stroke="black" d="M371.774,-37.063C381.325,-46.2318 393.262,-57.6916 403.759,-67.7689"/>
<polygon fill="none" stroke="black" points="401.456,-70.4095 411.094,-74.81 406.304,-65.3598 401.456,-70.4095"/>
</g>
<!-- 9 -->
<g id="node8" class="node"><title>9</title>
<polygon fill="none" stroke="black" points="176.117,-75 176.117,-111 283.883,-111 283.883,-75 176.117,-75"/>
<text text-anchor="middle" x="230" y="-87.4" font-family="Times,serif" font-size="14.00">NunchuckMixin</text>
</g>
<!-- 8&#45;&gt;9 -->
<g id="edge7" class="edge"><title>8&#45;&gt;9</title>
<path fill="none" stroke="black" d="M324.614,-37.063C307.903,-46.7659 286.774,-59.0345 268.724,-69.5152"/>
<polygon fill="none" stroke="black" points="266.495,-66.7618 259.605,-74.81 270.01,-72.8153 266.495,-66.7618"/>
</g>
<!-- 9&#45;&gt;6 -->
<g id="edge8" class="edge"><title>9&#45;&gt;6</title>
<path fill="none" stroke="black" d="M237.11,-111.063C240.607,-119.458 244.906,-129.773 248.829,-139.19"/>
<polygon fill="none" stroke="black" points="245.656,-140.675 252.733,-148.559 252.118,-137.982 245.656,-140.675"/>
</g>
<!-- 10 -->
<g id="node9" class="node"><title>10</title>
<polygon fill="none" stroke="black" points="156.68,-1 156.68,-37 269.32,-37 269.32,-1 156.68,-1"/>
<text text-anchor="middle" x="213" y="-13.4" font-family="Times,serif" font-size="14.00">SharkWithLasers</text>
</g>
<!-- 10&#45;&gt;5 -->
<g id="edge10" class="edge"><title>10&#45;&gt;5</title>
<path fill="none" stroke="black" d="M243.808,-37.063C261.568,-46.8994 284.09,-59.3726 303.182,-69.9469"/>
<polygon fill="none" stroke="black" points="301.519,-73.0267 311.962,-74.81 304.91,-66.9031 301.519,-73.0267"/>
</g>
<!-- 10&#45;&gt;7 -->
<g id="edge9" class="edge"><title>10&#45;&gt;7</title>
<path fill="none" stroke="black" d="M193.567,-37.063C183.024,-46.3208 169.82,-57.9143 158.263,-68.0621"/>
<polygon fill="none" stroke="black" points="155.783,-65.5819 150.578,-74.81 160.401,-70.842 155.783,-65.5819"/>
</g>
<!-- 11 -->
<g id="node10" class="node"><title>11</title>
<polygon fill="none" stroke="black" points="-0.543945,-1 -0.543945,-37 138.544,-37 138.544,-1 -0.543945,-1"/>
<text text-anchor="middle" x="69" y="-13.4" font-family="Times,serif" font-size="14.00">SharkWithNunchucks</text>
</g>
<!-- 11&#45;&gt;7 -->
<g id="edge11" class="edge"><title>11&#45;&gt;7</title>
<path fill="none" stroke="black" d="M83.6931,-37.063C91.3787,-45.9881 100.934,-57.0841 109.44,-66.9627"/>
<polygon fill="none" stroke="black" points="106.804,-69.2655 115.982,-74.5593 112.109,-64.6978 106.804,-69.2655"/>
</g>
<!-- 11&#45;&gt;9 -->
<g id="edge12" class="edge"><title>11&#45;&gt;9</title>
<path fill="none" stroke="black" d="M107.155,-37.063C129.73,-47.1587 158.516,-60.032 182.547,-70.779"/>
<polygon fill="none" stroke="black" points="181.283,-74.0475 191.84,-74.9349 184.141,-67.6573 181.283,-74.0475"/>
</g>
</g>
</svg>
