<?xml version="1.0" encoding="UTF-8" standalone="no"?>
<!DOCTYPE svg PUBLIC "-//W3C//DTD SVG 1.1//EN"
 "http://www.w3.org/Graphics/SVG/1.1/DTD/svg11.dtd">
<!-- Generated by graphviz version 10.0.1 (20240210.2158)
 -->
<!-- Title: classes Pages: 1 -->
<svg width="160pt" height="118pt"
 viewBox="0.00 0.00 159.88 118.00" xmlns="http://www.w3.org/2000/svg" xmlns:xlink="http://www.w3.org/1999/xlink">
<g id="graph0" class="graph" transform="scale(1 1) rotate(0) translate(4 114)">
<title>classes</title>
<polygon fill="white" stroke="none" points="-4,4 -4,-114 155.88,-114 155.88,4 -4,4"/>
<!-- shark_inherit_1.LaserMixin -->
<g id="node1" class="node">
<title>shark_inherit_1.LaserMixin</title>
<polygon fill="none" stroke="black" points="0,-73.5 0,-109.5 79.75,-109.5 79.75,-73.5 0,-73.5"/>
<text text-anchor="start" x="8" y="-86.45" font-family="Times,serif" font-size="14.00">LaserMixin</text>
</g>
<!-- shark_inherit_1.Shark -->
<g id="node2" class="node">
<title>shark_inherit_1.Shark</title>
<polygon fill="none" stroke="black" points="97.88,-73.5 97.88,-109.5 151.88,-109.5 151.88,-73.5 97.88,-73.5"/>
<text text-anchor="start" x="108.88" y="-86.45" font-family="Times,serif" font-size="14.00">Shark</text>
</g>
<!-- shark_inherit_1.SharkWithLasers -->
<g id="node3" class="node">
<title>shark_inherit_1.SharkWithLasers</title>
<polygon fill="none" stroke="black" points="27,-0.5 27,-36.5 136.75,-36.5 136.75,-0.5 27,-0.5"/>
<text text-anchor="start" x="35" y="-13.45" font-family="Times,serif" font-size="14.00">SharkWithLasers</text>
</g>
<!-- shark_inherit_1.SharkWithLasers&#45;&gt;shark_inherit_1.LaserMixin -->
<g id="edge1" class="edge">
<title>shark_inherit_1.SharkWithLasers&#45;&gt;shark_inherit_1.LaserMixin</title>
<path fill="none" stroke="black" d="M71.71,-36.69C66.91,-44.8 61.07,-54.66 55.71,-63.72"/>
<polygon fill="none" stroke="black" points="52.8,-61.78 50.72,-72.17 58.82,-65.34 52.8,-61.78"/>
</g>
<!-- shark_inherit_1.SharkWithLasers&#45;&gt;shark_inherit_1.Shark -->
<g id="edge2" class="edge">
<title>shark_inherit_1.SharkWithLasers&#45;&gt;shark_inherit_1.Shark</title>
<path fill="none" stroke="black" d="M92.28,-36.69C97.2,-44.8 103.17,-54.66 108.66,-63.72"/>
<polygon fill="none" stroke="black" points="105.6,-65.44 113.78,-72.18 111.59,-61.81 105.6,-65.44"/>
</g>
</g>
</svg>
