<?xml version="1.0" encoding="UTF-8" standalone="no"?>
<!DOCTYPE svg PUBLIC "-//W3C//DTD SVG 1.1//EN"
 "http://www.w3.org/Graphics/SVG/1.1/DTD/svg11.dtd">
<!-- Generated by graphviz version 10.0.1 (20240210.2158)
 -->
<!-- Title: classes Pages: 1 -->
<svg width="368pt" height="118pt"
 viewBox="0.00 0.00 367.75 118.00" xmlns="http://www.w3.org/2000/svg" xmlns:xlink="http://www.w3.org/1999/xlink">
<g id="graph0" class="graph" transform="scale(1 1) rotate(0) translate(4 114)">
<title>classes</title>
<polygon fill="white" stroke="none" points="-4,4 -4,-114 363.75,-114 363.75,4 -4,4"/>
<!-- shark_composition_3.Animal -->
<g id="node1" class="node">
<title>shark_composition_3.Animal</title>
<polygon fill="none" stroke="black" points="34.38,-73.5 34.38,-109.5 91.62,-109.5 91.62,-73.5 34.38,-73.5"/>
<text text-anchor="start" x="42.38" y="-86.45" font-family="Times,serif" font-size="14.00">Animal</text>
</g>
<!-- shark_composition_3.Armor -->
<g id="node2" class="node">
<title>shark_composition_3.Armor</title>
<polygon fill="none" stroke="black" points="144,-0.5 144,-36.5 198,-36.5 198,-0.5 144,-0.5"/>
<text text-anchor="start" x="152.5" y="-13.45" font-family="Times,serif" font-size="14.00">Armor</text>
</g>
<!-- shark_composition_3.Laser -->
<g id="node3" class="node">
<title>shark_composition_3.Laser</title>
<polygon fill="none" stroke="black" points="216,-0.5 216,-36.5 270,-36.5 270,-0.5 216,-0.5"/>
<text text-anchor="start" x="228" y="-13.45" font-family="Times,serif" font-size="14.00">Laser</text>
</g>
<!-- shark_composition_3.Weapon -->
<g id="node7" class="node">
<title>shark_composition_3.Weapon</title>
<polygon fill="none" stroke="black" points="252.5,-73.5 252.5,-109.5 313.5,-109.5 313.5,-73.5 252.5,-73.5"/>
<text text-anchor="start" x="260.5" y="-86.45" font-family="Times,serif" font-size="14.00">Weapon</text>
</g>
<!-- shark_composition_3.Laser&#45;&gt;shark_composition_3.Weapon -->
<g id="edge1" class="edge">
<title>shark_composition_3.Laser&#45;&gt;shark_composition_3.Weapon</title>
<path fill="none" stroke="black" d="M252.68,-36.69C257.25,-44.8 262.81,-54.66 267.91,-63.72"/>
<polygon fill="none" stroke="black" points="264.71,-65.16 272.66,-72.15 270.8,-61.72 264.71,-65.16"/>
</g>
<!-- shark_composition_3.Nunchuck -->
<g id="node4" class="node">
<title>shark_composition_3.Nunchuck</title>
<polygon fill="none" stroke="black" points="288.25,-0.5 288.25,-36.5 359.75,-36.5 359.75,-0.5 288.25,-0.5"/>
<text text-anchor="start" x="296.25" y="-13.45" font-family="Times,serif" font-size="14.00">Nunchuck</text>
</g>
<!-- shark_composition_3.Nunchuck&#45;&gt;shark_composition_3.Weapon -->
<g id="edge2" class="edge">
<title>shark_composition_3.Nunchuck&#45;&gt;shark_composition_3.Weapon</title>
<path fill="none" stroke="black" d="M314.08,-36.69C309.39,-44.8 303.69,-54.66 298.46,-63.72"/>
<polygon fill="none" stroke="black" points="295.56,-61.75 293.59,-72.16 301.62,-65.25 295.56,-61.75"/>
</g>
<!-- shark_composition_3.Orca -->
<g id="node5" class="node">
<title>shark_composition_3.Orca</title>
<polygon fill="none" stroke="black" points="0,-0.5 0,-36.5 54,-36.5 54,-0.5 0,-0.5"/>
<text text-anchor="start" x="13.5" y="-13.45" font-family="Times,serif" font-size="14.00">Orca</text>
</g>
<!-- shark_composition_3.Orca&#45;&gt;shark_composition_3.Animal -->
<g id="edge3" class="edge">
<title>shark_composition_3.Orca&#45;&gt;shark_composition_3.Animal</title>
<path fill="none" stroke="black" d="M35.71,-36.69C39.78,-44.71 44.72,-54.45 49.27,-63.43"/>
<polygon fill="none" stroke="black" points="46.04,-64.79 53.68,-72.12 52.28,-61.62 46.04,-64.79"/>
</g>
<!-- shark_composition_3.Shark -->
<g id="node6" class="node">
<title>shark_composition_3.Shark</title>
<polygon fill="none" stroke="black" points="72,-0.5 72,-36.5 126,-36.5 126,-0.5 72,-0.5"/>
<text text-anchor="start" x="83" y="-13.45" font-family="Times,serif" font-size="14.00">Shark</text>
</g>
<!-- shark_composition_3.Shark&#45;&gt;shark_composition_3.Animal -->
<g id="edge4" class="edge">
<title>shark_composition_3.Shark&#45;&gt;shark_composition_3.Animal</title>
<path fill="none" stroke="black" d="M90.29,-36.69C86.22,-44.71 81.28,-54.45 76.73,-63.43"/>
<polygon fill="none" stroke="black" points="73.72,-61.62 72.32,-72.12 79.96,-64.79 73.72,-61.62"/>
</g>
</g>
</svg>
